M48
; DRILL file {KiCad 7.0.7} date Tue Mar 26 15:49:51 2024
; FORMAT={-:-/ absolute / inch / decimal}
; #@! TF.CreationDate,2024-03-26T15:49:51-05:00
; #@! TF.GenerationSoftware,Kicad,Pcbnew,7.0.7
; #@! TF.FileFunction,Plated,1,2,PTH
FMAT,2
INCH
; #@! TA.AperFunction,Plated,PTH,ViaDrill
T1C0.0157
; #@! TA.AperFunction,Plated,PTH,ComponentDrill
T2C0.0276
; #@! TA.AperFunction,Plated,PTH,ComponentDrill
T3C0.0315
; #@! TA.AperFunction,Plated,PTH,ComponentDrill
T4C0.0350
; #@! TA.AperFunction,Plated,PTH,ComponentDrill
T5C0.0354
; #@! TA.AperFunction,Plated,PTH,ComponentDrill
T6C0.0402
; #@! TA.AperFunction,Plated,PTH,ComponentDrill
T7C0.0630
; #@! TA.AperFunction,Plated,PTH,ComponentDrill
T8C0.0787
; #@! TA.AperFunction,Plated,PTH,ComponentDrill
T9C0.1280
%
G90
G05
T1
X1.95Y-1.94
X2.0454Y-1.6254
X2.0746Y-1.6546
X2.15Y-1.88
X2.22Y-2.2
X2.2329Y-2.2771
X2.24Y-1.84
X2.46Y-2.48
X2.75Y-2.4464
X2.9941Y-2.4785
X3.1Y-2.2204
X3.11Y-2.3404
X3.17Y-2.3104
X3.27Y-2.48
X3.3066Y-2.443
X3.56Y-2.4
X3.59Y-2.21
X3.7Y-2.48
T2
X3.2106Y-1.6065
X3.2106Y-1.6852
X3.2106Y-1.7639
X3.2894Y-1.6065
X3.2894Y-1.6852
X3.2894Y-1.7639
T3
X2.7Y-1.51
X2.7Y-2.11
X2.8Y-1.51
X2.8Y-2.11
X2.9Y-1.51
X2.9Y-2.11
X3.0Y-1.51
X3.0Y-2.11
X3.1Y-1.51
X3.1Y-2.11
X3.2Y-1.51
X3.2Y-2.11
X3.3Y-1.51
X3.3Y-2.11
X3.4Y-1.51
X3.4Y-2.11
X3.5Y-1.51
X3.5Y-2.11
X3.6Y-1.51
X3.6Y-2.11
X3.7Y-1.51
X3.7Y-2.11
X3.8Y-1.51
X3.8Y-2.11
X3.9Y-1.51
X3.9Y-2.11
X4.0Y-1.51
X4.0Y-2.11
X4.1Y-1.51
X4.1Y-2.11
X4.2Y-1.51
X4.2Y-2.11
X4.3Y-1.51
X4.3Y-2.11
X4.4Y-1.51
X4.4Y-2.11
X4.5Y-1.51
X4.5Y-2.11
X4.6Y-1.51
X4.6Y-2.11
X4.7Y-1.51
X4.7Y-2.11
X4.8Y-1.51
X4.8Y-2.11
X4.9Y-1.51
X4.9Y-2.11
X5.0Y-1.51
X5.0Y-2.11
T4
X3.86Y-2.285
X3.96Y-2.285
X4.06Y-2.285
T5
X1.638Y-1.845
X1.638Y-1.945
X1.638Y-2.045
X1.638Y-2.145
X1.738Y-1.895
X1.738Y-1.995
X1.738Y-2.095
X1.738Y-2.195
X2.46Y-2.65
X2.56Y-2.65
X3.07Y-2.63
X3.17Y-2.63
X3.2Y-1.25
X3.27Y-2.63
X3.3Y-1.25
X3.37Y-2.63
X3.4Y-1.25
X3.47Y-2.63
X3.5Y-1.25
X3.6Y-1.25
X3.7Y-1.25
X3.8Y-1.25
X3.9Y-1.25
X4.0Y-1.25
T6
X1.188Y-1.771
X1.188Y-2.169
X1.2584Y-1.871
X1.2584Y-2.269
T7
X1.5081Y-1.71
X1.5081Y-2.33
T9
X1.388Y-1.795
X1.388Y-2.245
T8
G00X4.3726Y-2.3963
M15
G01X4.3726Y-2.3137
M16
G05
G00X4.3726Y-2.7063
M15
G01X4.3726Y-2.6237
M16
G05
T0
M30
