%TF.GenerationSoftware,KiCad,Pcbnew,7.0.7*%
%TF.CreationDate,2024-03-26T15:49:53-05:00*%
%TF.ProjectId,InstrumentsBoard,496e7374-7275-46d6-956e-7473426f6172,rev?*%
%TF.SameCoordinates,Original*%
%TF.FileFunction,Paste,Top*%
%TF.FilePolarity,Positive*%
%FSLAX46Y46*%
G04 Gerber Fmt 4.6, Leading zero omitted, Abs format (unit mm)*
G04 Created by KiCad (PCBNEW 7.0.7) date 2024-03-26 15:49:53*
%MOMM*%
%LPD*%
G01*
G04 APERTURE LIST*
G04 Aperture macros list*
%AMRoundRect*
0 Rectangle with rounded corners*
0 $1 Rounding radius*
0 $2 $3 $4 $5 $6 $7 $8 $9 X,Y pos of 4 corners*
0 Add a 4 corners polygon primitive as box body*
4,1,4,$2,$3,$4,$5,$6,$7,$8,$9,$2,$3,0*
0 Add four circle primitives for the rounded corners*
1,1,$1+$1,$2,$3*
1,1,$1+$1,$4,$5*
1,1,$1+$1,$6,$7*
1,1,$1+$1,$8,$9*
0 Add four rect primitives between the rounded corners*
20,1,$1+$1,$2,$3,$4,$5,0*
20,1,$1+$1,$4,$5,$6,$7,0*
20,1,$1+$1,$6,$7,$8,$9,0*
20,1,$1+$1,$8,$9,$2,$3,0*%
G04 Aperture macros list end*
%ADD10RoundRect,0.237500X0.237500X-0.250000X0.237500X0.250000X-0.237500X0.250000X-0.237500X-0.250000X0*%
%ADD11O,3.000000X5.100000*%
%ADD12RoundRect,0.237500X-0.287500X-0.237500X0.287500X-0.237500X0.287500X0.237500X-0.287500X0.237500X0*%
%ADD13RoundRect,0.237500X-0.237500X0.300000X-0.237500X-0.300000X0.237500X-0.300000X0.237500X0.300000X0*%
%ADD14RoundRect,0.237500X0.250000X0.237500X-0.250000X0.237500X-0.250000X-0.237500X0.250000X-0.237500X0*%
%ADD15RoundRect,0.237500X-0.237500X0.250000X-0.237500X-0.250000X0.237500X-0.250000X0.237500X0.250000X0*%
%ADD16RoundRect,0.150000X0.587500X0.150000X-0.587500X0.150000X-0.587500X-0.150000X0.587500X-0.150000X0*%
%ADD17RoundRect,0.237500X-0.300000X-0.237500X0.300000X-0.237500X0.300000X0.237500X-0.300000X0.237500X0*%
%ADD18RoundRect,0.150000X-0.587500X-0.150000X0.587500X-0.150000X0.587500X0.150000X-0.587500X0.150000X0*%
%ADD19RoundRect,0.237500X-0.250000X-0.237500X0.250000X-0.237500X0.250000X0.237500X-0.250000X0.237500X0*%
%ADD20R,0.400000X0.510000*%
G04 APERTURE END LIST*
D10*
%TO.C,R6*%
X87122000Y-58579500D03*
X87122000Y-56754500D03*
%TD*%
D11*
%TO.C,Conn1*%
X111062800Y-67691000D03*
X111062800Y-59817000D03*
%TD*%
D12*
%TO.C,D2*%
X46510000Y-66294000D03*
X48260000Y-66294000D03*
%TD*%
D13*
%TO.C,C2*%
X107188000Y-56541500D03*
X107188000Y-58266500D03*
%TD*%
%TO.C,C3*%
X93980000Y-65331000D03*
X93980000Y-67056000D03*
%TD*%
D12*
%TO.C,D1*%
X46510000Y-62738000D03*
X48260000Y-62738000D03*
%TD*%
D14*
%TO.C,R5*%
X44243000Y-69850000D03*
X42418000Y-69850000D03*
%TD*%
%TO.C,R8*%
X65532000Y-55880000D03*
X63707000Y-55880000D03*
%TD*%
D15*
%TO.C,R7*%
X71120000Y-57770500D03*
X71120000Y-59595500D03*
%TD*%
D16*
%TO.C,Q1*%
X84836000Y-58551000D03*
X84836000Y-56651000D03*
X82961000Y-57601000D03*
%TD*%
D17*
%TO.C,C1*%
X47651500Y-54356000D03*
X49376500Y-54356000D03*
%TD*%
D14*
%TO.C,R3*%
X44130000Y-62738000D03*
X42305000Y-62738000D03*
%TD*%
%TO.C,R4*%
X44130000Y-66293934D03*
X42305000Y-66293934D03*
%TD*%
D12*
%TO.C,D3*%
X46623000Y-69850000D03*
X48373000Y-69850000D03*
%TD*%
D18*
%TO.C,Q2*%
X73817000Y-56585000D03*
X73817000Y-58485000D03*
X75692000Y-57535000D03*
%TD*%
D19*
%TO.C,R2*%
X76049500Y-60837000D03*
X77874500Y-60837000D03*
%TD*%
D20*
%TO.C,Q3*%
X65524000Y-59123500D03*
X64524000Y-59123500D03*
X65024000Y-60413500D03*
%TD*%
D14*
%TO.C,R1*%
X83105122Y-60837000D03*
X81280122Y-60837000D03*
%TD*%
M02*
