%TF.GenerationSoftware,KiCad,Pcbnew,7.0.7*%
%TF.CreationDate,2024-03-26T15:49:53-05:00*%
%TF.ProjectId,InstrumentsBoard,496e7374-7275-46d6-956e-7473426f6172,rev?*%
%TF.SameCoordinates,Original*%
%TF.FileFunction,Copper,L1,Top*%
%TF.FilePolarity,Positive*%
%FSLAX46Y46*%
G04 Gerber Fmt 4.6, Leading zero omitted, Abs format (unit mm)*
G04 Created by KiCad (PCBNEW 7.0.7) date 2024-03-26 15:49:53*
%MOMM*%
%LPD*%
G01*
G04 APERTURE LIST*
G04 Aperture macros list*
%AMRoundRect*
0 Rectangle with rounded corners*
0 $1 Rounding radius*
0 $2 $3 $4 $5 $6 $7 $8 $9 X,Y pos of 4 corners*
0 Add a 4 corners polygon primitive as box body*
4,1,4,$2,$3,$4,$5,$6,$7,$8,$9,$2,$3,0*
0 Add four circle primitives for the rounded corners*
1,1,$1+$1,$2,$3*
1,1,$1+$1,$4,$5*
1,1,$1+$1,$6,$7*
1,1,$1+$1,$8,$9*
0 Add four rect primitives between the rounded corners*
20,1,$1+$1,$2,$3,$4,$5,0*
20,1,$1+$1,$4,$5,$6,$7,0*
20,1,$1+$1,$6,$7,$8,$9,0*
20,1,$1+$1,$8,$9,$2,$3,0*%
G04 Aperture macros list end*
%TA.AperFunction,SMDPad,CuDef*%
%ADD10RoundRect,0.237500X0.237500X-0.250000X0.237500X0.250000X-0.237500X0.250000X-0.237500X-0.250000X0*%
%TD*%
%TA.AperFunction,ComponentPad*%
%ADD11O,3.000000X5.100000*%
%TD*%
%TA.AperFunction,ComponentPad*%
%ADD12C,1.100000*%
%TD*%
%TA.AperFunction,ComponentPad*%
%ADD13C,1.400000*%
%TD*%
%TA.AperFunction,ComponentPad*%
%ADD14C,4.000000*%
%TD*%
%TA.AperFunction,ComponentPad*%
%ADD15C,2.000000*%
%TD*%
%TA.AperFunction,SMDPad,CuDef*%
%ADD16RoundRect,0.237500X-0.287500X-0.237500X0.287500X-0.237500X0.287500X0.237500X-0.287500X0.237500X0*%
%TD*%
%TA.AperFunction,ComponentPad*%
%ADD17C,1.524000*%
%TD*%
%TA.AperFunction,SMDPad,CuDef*%
%ADD18RoundRect,0.237500X-0.237500X0.300000X-0.237500X-0.300000X0.237500X-0.300000X0.237500X0.300000X0*%
%TD*%
%TA.AperFunction,SMDPad,CuDef*%
%ADD19RoundRect,0.237500X0.250000X0.237500X-0.250000X0.237500X-0.250000X-0.237500X0.250000X-0.237500X0*%
%TD*%
%TA.AperFunction,SMDPad,CuDef*%
%ADD20RoundRect,0.237500X-0.237500X0.250000X-0.237500X-0.250000X0.237500X-0.250000X0.237500X0.250000X0*%
%TD*%
%TA.AperFunction,SMDPad,CuDef*%
%ADD21RoundRect,0.150000X0.587500X0.150000X-0.587500X0.150000X-0.587500X-0.150000X0.587500X-0.150000X0*%
%TD*%
%TA.AperFunction,SMDPad,CuDef*%
%ADD22RoundRect,0.237500X-0.300000X-0.237500X0.300000X-0.237500X0.300000X0.237500X-0.300000X0.237500X0*%
%TD*%
%TA.AperFunction,ComponentPad*%
%ADD23C,1.308000*%
%TD*%
%TA.AperFunction,ComponentPad*%
%ADD24C,1.208000*%
%TD*%
%TA.AperFunction,SMDPad,CuDef*%
%ADD25RoundRect,0.150000X-0.587500X-0.150000X0.587500X-0.150000X0.587500X0.150000X-0.587500X0.150000X0*%
%TD*%
%TA.AperFunction,SMDPad,CuDef*%
%ADD26RoundRect,0.237500X-0.250000X-0.237500X0.250000X-0.237500X0.250000X0.237500X-0.250000X0.237500X0*%
%TD*%
%TA.AperFunction,SMDPad,CuDef*%
%ADD27R,0.400000X0.510000*%
%TD*%
%TA.AperFunction,ViaPad*%
%ADD28C,0.800000*%
%TD*%
%TA.AperFunction,Conductor*%
%ADD29C,0.254000*%
%TD*%
%TA.AperFunction,Conductor*%
%ADD30C,0.250000*%
%TD*%
%TA.AperFunction,Conductor*%
%ADD31C,0.200000*%
%TD*%
G04 APERTURE END LIST*
D10*
%TO.P,R6,1*%
%TO.N,+3V3*%
X87122000Y-58579500D03*
%TO.P,R6,2*%
%TO.N,CCD_CLK_3V3*%
X87122000Y-56754500D03*
%TD*%
D11*
%TO.P,Conn1,1,GND*%
%TO.N,GND*%
X111062800Y-67691000D03*
%TO.P,Conn1,2,V+Log*%
%TO.N,+12V*%
X111062800Y-59817000D03*
%TD*%
D12*
%TO.P,J1,1*%
%TO.N,T+*%
X41604500Y-46863000D03*
%TO.P,J1,2*%
%TO.N,Net-(C1-Pad1)*%
X44144500Y-48133000D03*
%TO.P,J1,3*%
%TO.N,T-*%
X41604500Y-49403000D03*
%TO.P,J1,4*%
%TO.N,R+*%
X44144500Y-50673000D03*
%TO.P,J1,5*%
%TO.N,Net-(C1-Pad1)*%
X41604500Y-51943000D03*
%TO.P,J1,6*%
%TO.N,R-*%
X44144500Y-53213000D03*
%TO.P,J1,7*%
%TO.N,unconnected-(J1-Pad7)*%
X41604500Y-54483000D03*
%TO.P,J1,8*%
%TO.N,GND*%
X44144500Y-55753000D03*
D13*
%TO.P,J1,9*%
X30174500Y-44983000D03*
%TO.P,J1,10*%
%TO.N,LED*%
X31964500Y-47523000D03*
%TO.P,J1,11*%
%TO.N,unconnected-(J1-Pad11)*%
X30174500Y-55093000D03*
%TO.P,J1,12*%
%TO.N,unconnected-(J1-Pad12)*%
X31964500Y-57633000D03*
D14*
%TO.P,J1,13*%
%TO.N,N/C*%
X35254500Y-45593000D03*
%TO.P,J1,14*%
X35254500Y-57023000D03*
D15*
%TO.P,J1,SH*%
%TO.N,GND*%
X38304500Y-43433000D03*
X38304500Y-59183000D03*
%TD*%
D16*
%TO.P,D2,1,K*%
%TO.N,Net-(D2-K)*%
X46510000Y-66294000D03*
%TO.P,D2,2,A*%
%TO.N,+5V*%
X48260000Y-66294000D03*
%TD*%
D17*
%TO.P,U2,1,Vi*%
%TO.N,+12V*%
X98044000Y-58039000D03*
%TO.P,U2,2,GND*%
%TO.N,GND*%
X100584000Y-58039000D03*
%TO.P,U2,3,Vo*%
%TO.N,+5V*%
X103124000Y-58039000D03*
%TD*%
D18*
%TO.P,C2,1*%
%TO.N,+12V*%
X107188000Y-56541500D03*
%TO.P,C2,2*%
%TO.N,GND*%
X107188000Y-58266500D03*
%TD*%
D17*
%TO.P,Conn4,1*%
%TO.N,+5V*%
X81280000Y-31750000D03*
%TO.P,Conn4,2*%
%TO.N,GND*%
X83820000Y-31750000D03*
%TO.P,Conn4,3*%
X86360000Y-31750000D03*
%TO.P,Conn4,4*%
%TO.N,EOS*%
X88900000Y-31750000D03*
%TO.P,Conn4,5*%
%TO.N,TRG*%
X91440000Y-31750000D03*
%TO.P,Conn4,6*%
%TO.N,START*%
X93980000Y-31750000D03*
%TO.P,Conn4,7*%
%TO.N,CLK*%
X96520000Y-31750000D03*
%TO.P,Conn4,8*%
%TO.N,VIDEO*%
X99060000Y-31750000D03*
%TO.P,Conn4,9*%
%TO.N,WHITE_LED*%
X101600000Y-31750000D03*
%TD*%
%TO.P,Conn5,1*%
%TO.N,Net-(Q3-D)*%
X65024000Y-67310000D03*
%TO.P,Conn5,2*%
%TO.N,+5V*%
X62484000Y-67310000D03*
%TD*%
D18*
%TO.P,C3,1*%
%TO.N,+5V*%
X93980000Y-65331000D03*
%TO.P,C3,2*%
%TO.N,GND*%
X93980000Y-67056000D03*
%TD*%
D17*
%TO.P,Conn2,1*%
%TO.N,CCD_Vout*%
X88138000Y-66802000D03*
%TO.P,Conn2,2*%
%TO.N,+5V*%
X85598000Y-66802000D03*
%TO.P,Conn2,3*%
%TO.N,GND*%
X83058000Y-66802000D03*
%TO.P,Conn2,4*%
%TO.N,CCD_CLK_5V*%
X80518000Y-66802000D03*
%TO.P,Conn2,5*%
%TO.N,CCD_ROG_5V*%
X77978000Y-66802000D03*
%TD*%
D16*
%TO.P,D1,1,K*%
%TO.N,Net-(D1-K)*%
X46510000Y-62738000D03*
%TO.P,D1,2,A*%
%TO.N,+3V3*%
X48260000Y-62738000D03*
%TD*%
D19*
%TO.P,R5,1*%
%TO.N,Net-(D3-K)*%
X44243000Y-69850000D03*
%TO.P,R5,2*%
%TO.N,GND*%
X42418000Y-69850000D03*
%TD*%
%TO.P,R8,1*%
%TO.N,Green_Laser_3V3*%
X65532000Y-55880000D03*
%TO.P,R8,2*%
%TO.N,GND*%
X63707000Y-55880000D03*
%TD*%
D20*
%TO.P,R7,1*%
%TO.N,+3V3*%
X71120000Y-57770500D03*
%TO.P,R7,2*%
%TO.N,CCD_ROG_3V3*%
X71120000Y-59595500D03*
%TD*%
D21*
%TO.P,Q1,1,G*%
%TO.N,+3V3*%
X84836000Y-58551000D03*
%TO.P,Q1,2,S*%
%TO.N,CCD_CLK_3V3*%
X84836000Y-56651000D03*
%TO.P,Q1,3,D*%
%TO.N,CCD_CLK_5V*%
X82961000Y-57601000D03*
%TD*%
D22*
%TO.P,C1,1*%
%TO.N,Net-(C1-Pad1)*%
X47651500Y-54356000D03*
%TO.P,C1,2*%
%TO.N,GND*%
X49376500Y-54356000D03*
%TD*%
D23*
%TO.P,U1,0,RX1*%
%TO.N,Green_Laser_3V3*%
X71120000Y-53594000D03*
%TO.P,U1,1,TX1*%
%TO.N,unconnected-(U1-TX1-Pad1)*%
X73660000Y-53594000D03*
%TO.P,U1,2,OUT2*%
%TO.N,unconnected-(U1-OUT2-Pad2)*%
X76200000Y-53594000D03*
%TO.P,U1,3,LRCLK2*%
%TO.N,unconnected-(U1-LRCLK2-Pad3)*%
X78740000Y-53594000D03*
%TO.P,U1,3.3V_1,3.3V*%
%TO.N,+3V3*%
X104140000Y-53594000D03*
%TO.P,U1,3.3V_2,3.3V*%
X73660000Y-38354000D03*
%TO.P,U1,4,BCLK2*%
%TO.N,unconnected-(U1-BCLK2-Pad4)*%
X81280000Y-53594000D03*
%TO.P,U1,5,IN2*%
%TO.N,unconnected-(U1-IN2-Pad5)*%
X83820000Y-53594000D03*
%TO.P,U1,6,OUT1D*%
%TO.N,unconnected-(U1-OUT1D-Pad6)*%
X86360000Y-53594000D03*
%TO.P,U1,7,RX2*%
%TO.N,unconnected-(U1-RX2-Pad7)*%
X88900000Y-53594000D03*
%TO.P,U1,8,TX2*%
%TO.N,unconnected-(U1-TX2-Pad8)*%
X91440000Y-53594000D03*
%TO.P,U1,9,OUT1C*%
%TO.N,unconnected-(U1-OUT1C-Pad9)*%
X93980000Y-53594000D03*
%TO.P,U1,10,CS1*%
%TO.N,unconnected-(U1-CS1-Pad10)*%
X96520000Y-53594000D03*
%TO.P,U1,11,MOSI*%
%TO.N,unconnected-(U1-MOSI-Pad11)*%
X99060000Y-53594000D03*
%TO.P,U1,12,MISO*%
%TO.N,unconnected-(U1-MISO-Pad12)*%
X101600000Y-53594000D03*
%TO.P,U1,13,SCK*%
%TO.N,WHITE_LED*%
X101600000Y-38354000D03*
%TO.P,U1,14,A0*%
%TO.N,VIDEO*%
X99060000Y-38354000D03*
%TO.P,U1,15,A1*%
%TO.N,CLK*%
X96520000Y-38354000D03*
%TO.P,U1,16,A2*%
%TO.N,START*%
X93980000Y-38354000D03*
%TO.P,U1,17,A3*%
%TO.N,TRG*%
X91440000Y-38354000D03*
%TO.P,U1,18,A4*%
%TO.N,EOS*%
X88900000Y-38354000D03*
%TO.P,U1,19,A5*%
%TO.N,unconnected-(U1-A5-Pad19)*%
X86360000Y-38354000D03*
%TO.P,U1,20,A6*%
%TO.N,unconnected-(U1-A6-Pad20)*%
X83820000Y-38354000D03*
%TO.P,U1,21,A7*%
%TO.N,unconnected-(U1-A7-Pad21)*%
X81280000Y-38354000D03*
%TO.P,U1,22,A8*%
%TO.N,unconnected-(U1-A8-Pad22)*%
X78740000Y-38354000D03*
%TO.P,U1,23,A9*%
%TO.N,unconnected-(U1-A9-Pad23)*%
X76200000Y-38354000D03*
%TO.P,U1,24,A10*%
%TO.N,CCD_ROG_3V3*%
X106680000Y-53594000D03*
%TO.P,U1,25,A11*%
%TO.N,CCD_CLK_3V3*%
X109220000Y-53594000D03*
%TO.P,U1,26,A12*%
%TO.N,CCD_Vout*%
X111760000Y-53594000D03*
%TO.P,U1,27,A13*%
%TO.N,unconnected-(U1-A13-Pad27)*%
X114300000Y-53594000D03*
%TO.P,U1,28,RX7*%
%TO.N,unconnected-(U1-RX7-Pad28)*%
X116840000Y-53594000D03*
%TO.P,U1,29,TX7*%
%TO.N,unconnected-(U1-TX7-Pad29)*%
X119380000Y-53594000D03*
%TO.P,U1,30,CRX3*%
%TO.N,unconnected-(U1-CRX3-Pad30)*%
X121920000Y-53594000D03*
%TO.P,U1,31,CTX3*%
%TO.N,unconnected-(U1-CTX3-Pad31)*%
X124460000Y-53594000D03*
%TO.P,U1,32,OUT1B*%
%TO.N,unconnected-(U1-OUT1B-Pad32)*%
X127000000Y-53594000D03*
%TO.P,U1,33,MCLK2*%
%TO.N,unconnected-(U1-MCLK2-Pad33)*%
X127000000Y-38354000D03*
%TO.P,U1,34,RX8*%
%TO.N,unconnected-(U1-RX8-Pad34)*%
X124460000Y-38354000D03*
%TO.P,U1,35,TX8*%
%TO.N,unconnected-(U1-TX8-Pad35)*%
X121920000Y-38354000D03*
%TO.P,U1,36,CS2*%
%TO.N,unconnected-(U1-CS2-Pad36)*%
X119380000Y-38354000D03*
%TO.P,U1,37,CS3*%
%TO.N,unconnected-(U1-CS3-Pad37)*%
X116840000Y-38354000D03*
%TO.P,U1,38,A14*%
%TO.N,unconnected-(U1-A14-Pad38)*%
X114300000Y-38354000D03*
%TO.P,U1,39,A15*%
%TO.N,unconnected-(U1-A15-Pad39)*%
X111760000Y-38354000D03*
%TO.P,U1,40,A16*%
%TO.N,unconnected-(U1-A16-Pad40)*%
X109220000Y-38354000D03*
%TO.P,U1,41,A17*%
%TO.N,unconnected-(U1-A17-Pad41)*%
X106680000Y-38354000D03*
%TO.P,U1,GND1,GND*%
%TO.N,GND*%
X68580000Y-53594000D03*
%TO.P,U1,GND2,GND*%
X104140000Y-38354000D03*
%TO.P,U1,GND3,GND*%
X71120000Y-38354000D03*
D24*
%TO.P,U1,GND5,GND*%
X83550000Y-42804000D03*
%TO.P,U1,LED,LED*%
%TO.N,LED*%
X81550000Y-42804000D03*
%TO.P,U1,R+,R+*%
%TO.N,R+*%
X81550000Y-40804000D03*
%TO.P,U1,R-,R-*%
%TO.N,R-*%
X83550000Y-40804000D03*
%TO.P,U1,T+,T+*%
%TO.N,T+*%
X83550000Y-44804000D03*
%TO.P,U1,T-,T-*%
%TO.N,T-*%
X81550000Y-44804000D03*
D23*
%TO.P,U1,VIN,VIN*%
%TO.N,+5V*%
X68580000Y-38354000D03*
%TD*%
D19*
%TO.P,R3,1*%
%TO.N,Net-(D1-K)*%
X44130000Y-62738000D03*
%TO.P,R3,2*%
%TO.N,GND*%
X42305000Y-62738000D03*
%TD*%
%TO.P,R4,1*%
%TO.N,Net-(D2-K)*%
X44130000Y-66293934D03*
%TO.P,R4,2*%
%TO.N,GND*%
X42305000Y-66293934D03*
%TD*%
D16*
%TO.P,D3,1,K*%
%TO.N,Net-(D3-K)*%
X46623000Y-69850000D03*
%TO.P,D3,2,A*%
%TO.N,+12V*%
X48373000Y-69850000D03*
%TD*%
D25*
%TO.P,Q2,1,G*%
%TO.N,+3V3*%
X73817000Y-56585000D03*
%TO.P,Q2,2,S*%
%TO.N,CCD_ROG_3V3*%
X73817000Y-58485000D03*
%TO.P,Q2,3,D*%
%TO.N,CCD_ROG_5V*%
X75692000Y-57535000D03*
%TD*%
D26*
%TO.P,R2,1*%
%TO.N,+5V*%
X76049500Y-60837000D03*
%TO.P,R2,2*%
%TO.N,CCD_ROG_5V*%
X77874500Y-60837000D03*
%TD*%
D27*
%TO.P,Q3,1,G*%
%TO.N,Green_Laser_3V3*%
X65524000Y-59123500D03*
%TO.P,Q3,2,S*%
%TO.N,GND*%
X64524000Y-59123500D03*
%TO.P,Q3,3,D*%
%TO.N,Net-(Q3-D)*%
X65024000Y-60413500D03*
%TD*%
D19*
%TO.P,R1,1*%
%TO.N,+5V*%
X83105122Y-60837000D03*
%TO.P,R1,2*%
%TO.N,CCD_CLK_5V*%
X81280122Y-60837000D03*
%TD*%
D28*
%TO.N,GND*%
X91186000Y-56134000D03*
X56896000Y-46736000D03*
X78994000Y-59445000D03*
X54610000Y-47752000D03*
X80518000Y-58683000D03*
X49530000Y-49276000D03*
X78740000Y-56397000D03*
%TO.N,+5V*%
X83058000Y-62992000D03*
X62484000Y-62992000D03*
X93980000Y-62992000D03*
X56715000Y-57839000D03*
X76049500Y-62954500D03*
%TO.N,CCD_Vout*%
X90424000Y-60960000D03*
%TO.N,R+*%
X51952768Y-41284768D03*
%TO.N,R-*%
X52695232Y-42027232D03*
%TO.N,+3V3*%
X56388000Y-55880000D03*
X69850000Y-62138500D03*
X83988451Y-62052951D03*
%TD*%
D29*
%TO.N,Net-(C1-Pad1)*%
X47651500Y-54356000D02*
X47651500Y-54255500D01*
X43180000Y-49097500D02*
X44144500Y-48133000D01*
X45339000Y-51943000D02*
X43688000Y-51943000D01*
X43180000Y-51943000D02*
X41604500Y-51943000D01*
X43180000Y-49097500D02*
X43180000Y-51435000D01*
X43180000Y-51435000D02*
X43688000Y-51943000D01*
X43688000Y-51943000D02*
X43180000Y-51943000D01*
X47651500Y-54255500D02*
X45339000Y-51943000D01*
%TO.N,+12V*%
X100737500Y-71882000D02*
X107442000Y-65177500D01*
X99949000Y-56134000D02*
X98044000Y-58039000D01*
X107379800Y-56134000D02*
X99949000Y-56134000D01*
X111062800Y-59817000D02*
X107379800Y-56134000D01*
D30*
X111062800Y-61149200D02*
X111062800Y-59817000D01*
D29*
X107442000Y-65177500D02*
X111062800Y-61556700D01*
X48373000Y-69850000D02*
X50405000Y-71882000D01*
X50405000Y-71882000D02*
X100737500Y-71882000D01*
X111062800Y-61556700D02*
X111062800Y-59817000D01*
%TO.N,+5V*%
X83105122Y-62944878D02*
X83058000Y-62992000D01*
D30*
X75983500Y-62954500D02*
X76049500Y-62954500D01*
D29*
X83105122Y-60837000D02*
X83105122Y-62944878D01*
D30*
X93980000Y-65331000D02*
X93980000Y-62992000D01*
D29*
X48260000Y-66294000D02*
X56715000Y-57839000D01*
D30*
X62484000Y-67310000D02*
X62484000Y-62992000D01*
D29*
X76049500Y-60837000D02*
X76049500Y-62954500D01*
D30*
X76049500Y-62888500D02*
X75983500Y-62954500D01*
%TO.N,CCD_CLK_5V*%
X81280000Y-60836878D02*
X81280000Y-59282000D01*
X81280122Y-60837000D02*
X81280122Y-66039878D01*
D29*
X81280000Y-60837122D02*
X81280122Y-60837000D01*
D30*
X81280000Y-59282000D02*
X82961000Y-57601000D01*
X81280122Y-60837000D02*
X81280000Y-60836878D01*
X81280122Y-66039878D02*
X80518000Y-66802000D01*
D29*
%TO.N,CCD_ROG_5V*%
X77874500Y-66698500D02*
X77978000Y-66802000D01*
X77874500Y-60837000D02*
X75692000Y-58654500D01*
X77874500Y-60837000D02*
X77874500Y-66698500D01*
X75692000Y-58654500D02*
X75692000Y-57535000D01*
D30*
%TO.N,CCD_Vout*%
X88138000Y-66802000D02*
X88138000Y-63246000D01*
X88138000Y-63246000D02*
X90424000Y-60960000D01*
%TO.N,Green_Laser_3V3*%
X71120000Y-53594000D02*
X65590500Y-59123500D01*
X65590500Y-59123500D02*
X65524000Y-59123500D01*
X65524000Y-56396000D02*
X65532000Y-56388000D01*
X65524000Y-59123500D02*
X65524000Y-56396000D01*
D29*
%TO.N,LED*%
X38899000Y-48223000D02*
X44318000Y-42804000D01*
X31964500Y-47523000D02*
X32664500Y-48223000D01*
X32664500Y-48223000D02*
X38899000Y-48223000D01*
X44318000Y-42804000D02*
X81550000Y-42804000D01*
D31*
%TO.N,T+*%
X83100000Y-44354000D02*
X83550000Y-44804000D01*
X43508103Y-46863000D02*
X46017103Y-44354000D01*
X82378450Y-44354000D02*
X83100000Y-44354000D01*
X81924450Y-43900000D02*
X82378450Y-44354000D01*
X81175550Y-43900000D02*
X81924450Y-43900000D01*
X41604500Y-46863000D02*
X43508103Y-46863000D01*
X46017103Y-44354000D02*
X80721550Y-44354000D01*
X80721550Y-44354000D02*
X81175550Y-43900000D01*
%TO.N,T-*%
X72503614Y-45268386D02*
X72368000Y-45268386D01*
X81550000Y-44804000D02*
X74168000Y-44804000D01*
X71768000Y-44804000D02*
X46203500Y-44804000D01*
X71903614Y-44804000D02*
X71768000Y-44804000D01*
X73703614Y-45268386D02*
X73568000Y-45268386D01*
X73103614Y-44804000D02*
X72968000Y-44804000D01*
X46203500Y-44804000D02*
X41604500Y-49403000D01*
X72135800Y-45036193D02*
G75*
G03*
X71903614Y-44804000I-232200J-7D01*
G01*
X74168000Y-44804007D02*
G75*
G03*
X73935807Y-45036193I0J-232193D01*
G01*
X72503614Y-45268407D02*
G75*
G03*
X72735807Y-45036193I-14J232207D01*
G01*
X73335800Y-45036193D02*
G75*
G03*
X73103614Y-44804000I-232200J-7D01*
G01*
X72968000Y-44804007D02*
G75*
G03*
X72735807Y-45036193I0J-232193D01*
G01*
X73703614Y-45268407D02*
G75*
G03*
X73935807Y-45036193I-14J232207D01*
G01*
X72135814Y-45036193D02*
G75*
G03*
X72368000Y-45268386I232186J-7D01*
G01*
X73335814Y-45036193D02*
G75*
G03*
X73568000Y-45268386I232186J-7D01*
G01*
%TO.N,R+*%
X77520734Y-40565265D02*
X77520734Y-40565266D01*
X78720724Y-40565275D02*
X78720724Y-40565276D01*
X73320734Y-40565266D02*
X73320734Y-40565265D01*
X76920734Y-40565266D02*
X76920734Y-40565265D01*
X72959468Y-40804000D02*
X73082000Y-40804000D01*
X75720734Y-40565266D02*
X75720734Y-40565265D01*
X51952768Y-41284768D02*
X52377033Y-41284768D01*
X72359468Y-40326531D02*
X72482000Y-40326531D01*
X75120734Y-40565265D02*
X75120734Y-40565266D01*
X52857801Y-40804000D02*
X71882000Y-40804000D01*
X52377033Y-41284768D02*
X52857801Y-40804000D01*
X73559468Y-40326531D02*
X73682000Y-40326531D01*
X74520734Y-40565266D02*
X74520734Y-40565265D01*
X72720734Y-40565265D02*
X72720734Y-40565266D01*
X72120734Y-40565266D02*
X72120734Y-40565265D01*
X73920734Y-40565265D02*
X73920734Y-40565266D01*
X76320734Y-40565265D02*
X76320734Y-40565266D01*
X74759468Y-40326531D02*
X74882000Y-40326531D01*
X78359448Y-40326551D02*
X78482000Y-40326551D01*
X77759468Y-40804000D02*
X77882000Y-40804000D01*
X79082000Y-40804000D02*
X81550000Y-40804000D01*
X78959448Y-40804000D02*
X79082000Y-40804000D01*
X74159468Y-40804000D02*
X74282000Y-40804000D01*
X75359468Y-40804000D02*
X75482000Y-40804000D01*
X75959468Y-40326531D02*
X76082000Y-40326531D01*
X77159468Y-40326531D02*
X77282000Y-40326531D01*
X78120724Y-40565276D02*
X78120724Y-40565275D01*
X76559468Y-40804000D02*
X76682000Y-40804000D01*
X75120769Y-40565265D02*
G75*
G03*
X74882000Y-40326531I-238769J-35D01*
G01*
X72359468Y-40326534D02*
G75*
G03*
X72120734Y-40565265I32J-238766D01*
G01*
X76682000Y-40804034D02*
G75*
G03*
X76920734Y-40565266I0J238734D01*
G01*
X74282000Y-40804034D02*
G75*
G03*
X74520734Y-40565266I0J238734D01*
G01*
X72720769Y-40565265D02*
G75*
G03*
X72482000Y-40326531I-238769J-35D01*
G01*
X75482000Y-40804034D02*
G75*
G03*
X75720734Y-40565266I0J238734D01*
G01*
X73920769Y-40565265D02*
G75*
G03*
X73682000Y-40326531I-238769J-35D01*
G01*
X73920800Y-40565266D02*
G75*
G03*
X74159468Y-40804000I238700J-34D01*
G01*
X78720700Y-40565276D02*
G75*
G03*
X78959448Y-40804000I238700J-24D01*
G01*
X75120800Y-40565266D02*
G75*
G03*
X75359468Y-40804000I238700J-34D01*
G01*
X72720800Y-40565266D02*
G75*
G03*
X72959468Y-40804000I238700J-34D01*
G01*
X77159468Y-40326534D02*
G75*
G03*
X76920734Y-40565265I32J-238766D01*
G01*
X74759468Y-40326534D02*
G75*
G03*
X74520734Y-40565265I32J-238766D01*
G01*
X76320769Y-40565265D02*
G75*
G03*
X76082000Y-40326531I-238769J-35D01*
G01*
X77882000Y-40804024D02*
G75*
G03*
X78120724Y-40565276I0J238724D01*
G01*
X71882000Y-40804034D02*
G75*
G03*
X72120734Y-40565266I0J238734D01*
G01*
X77520769Y-40565265D02*
G75*
G03*
X77282000Y-40326531I-238769J-35D01*
G01*
X75959468Y-40326534D02*
G75*
G03*
X75720734Y-40565265I32J-238766D01*
G01*
X73559468Y-40326534D02*
G75*
G03*
X73320734Y-40565265I32J-238766D01*
G01*
X76320800Y-40565266D02*
G75*
G03*
X76559468Y-40804000I238700J-34D01*
G01*
X78359448Y-40326624D02*
G75*
G03*
X78120724Y-40565275I-48J-238676D01*
G01*
X78720749Y-40565275D02*
G75*
G03*
X78482000Y-40326551I-238749J-25D01*
G01*
X77520800Y-40565266D02*
G75*
G03*
X77759468Y-40804000I238700J-34D01*
G01*
X73082000Y-40804034D02*
G75*
G03*
X73320734Y-40565266I0J238734D01*
G01*
%TO.N,R-*%
X81175550Y-41708000D02*
X81924450Y-41708000D01*
X53044199Y-41254000D02*
X80721550Y-41254000D01*
X52695232Y-42027232D02*
X52695232Y-41602967D01*
X83100000Y-41254000D02*
X83550000Y-40804000D01*
X80721550Y-41254000D02*
X81175550Y-41708000D01*
X52695232Y-41602967D02*
X53044199Y-41254000D01*
X82378450Y-41254000D02*
X83100000Y-41254000D01*
X81924450Y-41708000D02*
X82378450Y-41254000D01*
D29*
%TO.N,Net-(D1-K)*%
X44130000Y-62738000D02*
X46510000Y-62738000D01*
%TO.N,CCD_CLK_3V3*%
X87122000Y-56642000D02*
X88392000Y-55372000D01*
X88392000Y-55372000D02*
X107442000Y-55372000D01*
D30*
X84836000Y-56651000D02*
X84836000Y-56642000D01*
D29*
X86115000Y-55372000D02*
X84836000Y-56651000D01*
X88392000Y-55372000D02*
X86115000Y-55372000D01*
X87122000Y-56754500D02*
X87122000Y-56642000D01*
X107442000Y-55372000D02*
X109220000Y-53594000D01*
%TO.N,CCD_ROG_3V3*%
X72706500Y-59595500D02*
X73817000Y-58485000D01*
X75692000Y-56134000D02*
X75680920Y-56134000D01*
X105410000Y-54864000D02*
X76962000Y-54864000D01*
X73817000Y-57997920D02*
X73817000Y-58485000D01*
X106680000Y-53594000D02*
X105410000Y-54864000D01*
X75680920Y-56134000D02*
X73817000Y-57997920D01*
X76962000Y-54864000D02*
X75692000Y-56134000D01*
X71120000Y-59595500D02*
X72706500Y-59595500D01*
%TO.N,EOS*%
X88900000Y-31750000D02*
X88900000Y-38354000D01*
%TO.N,TRG*%
X91440000Y-31750000D02*
X91440000Y-38354000D01*
%TO.N,START*%
X93980000Y-38354000D02*
X93980000Y-31750000D01*
%TO.N,CLK*%
X96520000Y-31750000D02*
X96520000Y-38354000D01*
%TO.N,VIDEO*%
X99060000Y-38354000D02*
X99060000Y-31750000D01*
%TO.N,WHITE_LED*%
X101600000Y-31750000D02*
X101600000Y-38354000D01*
%TO.N,+3V3*%
X72305500Y-56585000D02*
X73817000Y-56585000D01*
X49530000Y-62738000D02*
X56388000Y-55880000D01*
X69850000Y-59040500D02*
X69850000Y-60960000D01*
X48260000Y-62738000D02*
X49530000Y-62738000D01*
X84836000Y-61205402D02*
X84831701Y-61209701D01*
X71120000Y-57770500D02*
X72305500Y-56585000D01*
X84836000Y-58551000D02*
X84836000Y-61205402D01*
X87122000Y-58919402D02*
X84831701Y-61209701D01*
X84831701Y-61209701D02*
X83988451Y-62052951D01*
D30*
X74017000Y-56585000D02*
X73817000Y-56585000D01*
D29*
X87122000Y-58579500D02*
X87122000Y-58919402D01*
X71120000Y-57770500D02*
X69850000Y-59040500D01*
X69850000Y-60960000D02*
X69850000Y-62138500D01*
%TO.N,Net-(D2-K)*%
X44130066Y-66294000D02*
X44130000Y-66293934D01*
X46510000Y-66294000D02*
X44130066Y-66294000D01*
%TO.N,Net-(D3-K)*%
X44243000Y-69850000D02*
X46623000Y-69850000D01*
D30*
%TO.N,Net-(Q3-D)*%
X65024000Y-60706000D02*
X65024000Y-67310000D01*
X65024000Y-67056000D02*
X64770000Y-67310000D01*
%TD*%
%TA.AperFunction,Conductor*%
%TO.N,GND*%
G36*
X84875758Y-55511185D02*
G01*
X84921513Y-55563989D01*
X84931457Y-55633147D01*
X84902432Y-55696703D01*
X84896400Y-55703181D01*
X84785400Y-55814181D01*
X84724077Y-55847666D01*
X84697719Y-55850500D01*
X84182804Y-55850500D01*
X84145932Y-55853401D01*
X84145926Y-55853402D01*
X83988106Y-55899254D01*
X83988103Y-55899255D01*
X83846637Y-55982917D01*
X83846629Y-55982923D01*
X83730423Y-56099129D01*
X83730417Y-56099137D01*
X83646755Y-56240603D01*
X83646754Y-56240606D01*
X83600902Y-56398426D01*
X83600901Y-56398432D01*
X83598000Y-56435304D01*
X83598000Y-56676500D01*
X83578315Y-56743539D01*
X83525511Y-56789294D01*
X83474000Y-56800500D01*
X82307804Y-56800500D01*
X82270932Y-56803401D01*
X82270926Y-56803402D01*
X82113106Y-56849254D01*
X82113103Y-56849255D01*
X81971637Y-56932917D01*
X81971629Y-56932923D01*
X81855423Y-57049129D01*
X81855417Y-57049137D01*
X81771755Y-57190603D01*
X81771754Y-57190606D01*
X81725902Y-57348426D01*
X81725901Y-57348432D01*
X81723000Y-57385304D01*
X81723000Y-57816696D01*
X81725901Y-57853562D01*
X81725902Y-57853569D01*
X81727492Y-57859041D01*
X81727290Y-57928911D01*
X81696095Y-57981313D01*
X80896208Y-58781199D01*
X80883951Y-58791020D01*
X80884134Y-58791241D01*
X80878123Y-58796213D01*
X80830772Y-58846636D01*
X80809889Y-58867519D01*
X80809877Y-58867532D01*
X80805621Y-58873017D01*
X80801837Y-58877447D01*
X80769937Y-58911418D01*
X80769936Y-58911420D01*
X80760284Y-58928976D01*
X80749610Y-58945226D01*
X80737329Y-58961061D01*
X80737324Y-58961068D01*
X80718815Y-59003838D01*
X80716245Y-59009084D01*
X80693803Y-59049906D01*
X80688822Y-59069307D01*
X80682521Y-59087710D01*
X80674562Y-59106102D01*
X80674561Y-59106105D01*
X80667271Y-59152127D01*
X80666087Y-59157846D01*
X80654501Y-59202972D01*
X80654500Y-59202982D01*
X80654500Y-59223016D01*
X80652973Y-59242415D01*
X80649840Y-59262194D01*
X80649840Y-59262195D01*
X80654225Y-59308583D01*
X80654500Y-59314421D01*
X80654499Y-59894883D01*
X80634814Y-59961923D01*
X80595600Y-60000419D01*
X80569274Y-60016658D01*
X80569271Y-60016660D01*
X80447283Y-60138648D01*
X80356715Y-60285481D01*
X80356713Y-60285486D01*
X80329341Y-60368088D01*
X80302448Y-60449247D01*
X80302448Y-60449248D01*
X80302447Y-60449248D01*
X80292122Y-60550315D01*
X80292122Y-61123669D01*
X80292123Y-61123687D01*
X80302447Y-61224752D01*
X80356714Y-61388515D01*
X80356715Y-61388518D01*
X80389724Y-61442034D01*
X80420675Y-61492214D01*
X80447283Y-61535351D01*
X80569272Y-61657340D01*
X80595718Y-61673652D01*
X80642443Y-61725600D01*
X80654622Y-61779191D01*
X80654622Y-65411307D01*
X80634937Y-65478346D01*
X80582133Y-65524101D01*
X80523413Y-65534218D01*
X80523413Y-65534677D01*
X80520750Y-65534677D01*
X80519827Y-65534836D01*
X80518008Y-65534677D01*
X80517998Y-65534677D01*
X80297937Y-65553929D01*
X80297929Y-65553930D01*
X80084554Y-65611104D01*
X80084548Y-65611107D01*
X79884340Y-65704465D01*
X79884338Y-65704466D01*
X79703377Y-65831175D01*
X79547175Y-65987377D01*
X79420466Y-66168338D01*
X79420465Y-66168340D01*
X79360382Y-66297189D01*
X79314209Y-66349628D01*
X79247016Y-66368780D01*
X79180135Y-66348564D01*
X79135618Y-66297189D01*
X79096751Y-66213840D01*
X79075534Y-66168339D01*
X78995955Y-66054688D01*
X78948827Y-65987381D01*
X78906459Y-65945013D01*
X78792620Y-65831174D01*
X78792616Y-65831171D01*
X78792615Y-65831170D01*
X78611663Y-65704466D01*
X78611660Y-65704464D01*
X78573593Y-65686713D01*
X78521155Y-65640540D01*
X78502000Y-65574332D01*
X78502000Y-61777956D01*
X78521685Y-61710917D01*
X78560903Y-61672418D01*
X78585350Y-61657340D01*
X78707340Y-61535350D01*
X78797908Y-61388516D01*
X78852174Y-61224753D01*
X78862500Y-61123677D01*
X78862499Y-60550324D01*
X78862229Y-60547684D01*
X78852174Y-60449247D01*
X78845062Y-60427784D01*
X78797908Y-60285484D01*
X78707340Y-60138650D01*
X78585350Y-60016660D01*
X78438516Y-59926092D01*
X78274753Y-59871826D01*
X78274751Y-59871825D01*
X78173684Y-59861500D01*
X78173677Y-59861500D01*
X77837781Y-59861500D01*
X77770742Y-59841815D01*
X77750100Y-59825181D01*
X76433817Y-58508898D01*
X76400332Y-58447575D01*
X76405316Y-58377883D01*
X76447188Y-58321950D01*
X76486903Y-58302141D01*
X76511175Y-58295088D01*
X76539898Y-58286744D01*
X76681365Y-58203081D01*
X76797581Y-58086865D01*
X76881244Y-57945398D01*
X76927098Y-57787569D01*
X76930000Y-57750694D01*
X76930000Y-57319306D01*
X76929982Y-57319082D01*
X76927098Y-57282432D01*
X76927097Y-57282426D01*
X76881245Y-57124606D01*
X76881244Y-57124603D01*
X76881244Y-57124602D01*
X76797581Y-56983135D01*
X76797579Y-56983133D01*
X76797576Y-56983129D01*
X76681370Y-56866923D01*
X76681362Y-56866917D01*
X76552872Y-56790929D01*
X76539898Y-56783256D01*
X76539897Y-56783255D01*
X76539896Y-56783255D01*
X76539893Y-56783254D01*
X76382073Y-56737402D01*
X76382067Y-56737401D01*
X76345196Y-56734500D01*
X76345194Y-56734500D01*
X76278280Y-56734500D01*
X76211241Y-56714815D01*
X76165486Y-56662011D01*
X76155542Y-56592853D01*
X76184567Y-56529297D01*
X76190599Y-56522819D01*
X77185600Y-55527819D01*
X77246923Y-55494334D01*
X77273281Y-55491500D01*
X84808719Y-55491500D01*
X84875758Y-55511185D01*
G37*
%TD.AperFunction*%
%TA.AperFunction,Conductor*%
G36*
X124677525Y-26806496D02*
G01*
X124882732Y-26815456D01*
X124887654Y-26815870D01*
X125105755Y-26843056D01*
X125310849Y-26870058D01*
X125315420Y-26870837D01*
X125530399Y-26915913D01*
X125732714Y-26960766D01*
X125736969Y-26961869D01*
X125855715Y-26997222D01*
X125947449Y-27024533D01*
X126000220Y-27041171D01*
X126145378Y-27086939D01*
X126149180Y-27088277D01*
X126353265Y-27167912D01*
X126353908Y-27168163D01*
X126545763Y-27247632D01*
X126549234Y-27249196D01*
X126739559Y-27342241D01*
X126746733Y-27345748D01*
X126931061Y-27441704D01*
X126934169Y-27443437D01*
X127056039Y-27516054D01*
X127123108Y-27556019D01*
X127298522Y-27667771D01*
X127301212Y-27669586D01*
X127480304Y-27797456D01*
X127645405Y-27924142D01*
X127647733Y-27926019D01*
X127815748Y-28068319D01*
X127953101Y-28194180D01*
X127970324Y-28209962D01*
X128127037Y-28366675D01*
X128268676Y-28521246D01*
X128410979Y-28689265D01*
X128412856Y-28691593D01*
X128539543Y-28856695D01*
X128667412Y-29035786D01*
X128669244Y-29038501D01*
X128780986Y-29213901D01*
X128893561Y-29402829D01*
X128895294Y-29405937D01*
X128991251Y-29590266D01*
X129087786Y-29787731D01*
X129089366Y-29791235D01*
X129168836Y-29983091D01*
X129200362Y-30063886D01*
X129248708Y-30187785D01*
X129250072Y-30191657D01*
X129312466Y-30389549D01*
X129375124Y-30600014D01*
X129376232Y-30604286D01*
X129421099Y-30806663D01*
X129466157Y-31021559D01*
X129466946Y-31026191D01*
X129493952Y-31231318D01*
X129521126Y-31449322D01*
X129521543Y-31454288D01*
X129530512Y-31659701D01*
X129539500Y-31877000D01*
X129539500Y-68834000D01*
X129530512Y-69051298D01*
X129521543Y-69256710D01*
X129521126Y-69261676D01*
X129493952Y-69479681D01*
X129466946Y-69684807D01*
X129466157Y-69689439D01*
X129421099Y-69904336D01*
X129376232Y-70106712D01*
X129375124Y-70110984D01*
X129312466Y-70321450D01*
X129250072Y-70519341D01*
X129248700Y-70523236D01*
X129168836Y-70727908D01*
X129089366Y-70919763D01*
X129087786Y-70923267D01*
X128991251Y-71120733D01*
X128895294Y-71305061D01*
X128893561Y-71308169D01*
X128780986Y-71497098D01*
X128669244Y-71672497D01*
X128667412Y-71675212D01*
X128539543Y-71854304D01*
X128412856Y-72019405D01*
X128410979Y-72021733D01*
X128268676Y-72189753D01*
X128127037Y-72344324D01*
X127970324Y-72501037D01*
X127815753Y-72642676D01*
X127647733Y-72784979D01*
X127645405Y-72786856D01*
X127480304Y-72913543D01*
X127301212Y-73041412D01*
X127298497Y-73043244D01*
X127123098Y-73154986D01*
X126934169Y-73267561D01*
X126931061Y-73269294D01*
X126746733Y-73365251D01*
X126549267Y-73461786D01*
X126545763Y-73463366D01*
X126353908Y-73542836D01*
X126149236Y-73622700D01*
X126145341Y-73624072D01*
X125947450Y-73686466D01*
X125736984Y-73749124D01*
X125732712Y-73750232D01*
X125530336Y-73795099D01*
X125315439Y-73840157D01*
X125310807Y-73840946D01*
X125105681Y-73867952D01*
X124887676Y-73895126D01*
X124882710Y-73895543D01*
X124677298Y-73904512D01*
X124460000Y-73913500D01*
X28956000Y-73913500D01*
X28738701Y-73904512D01*
X28533288Y-73895543D01*
X28528322Y-73895126D01*
X28310318Y-73867952D01*
X28105191Y-73840946D01*
X28100559Y-73840157D01*
X27885663Y-73795099D01*
X27683286Y-73750232D01*
X27679014Y-73749124D01*
X27468549Y-73686466D01*
X27270657Y-73624072D01*
X27266785Y-73622708D01*
X27134255Y-73570995D01*
X27062091Y-73542836D01*
X26870235Y-73463366D01*
X26866731Y-73461786D01*
X26669266Y-73365251D01*
X26484937Y-73269294D01*
X26481829Y-73267561D01*
X26292901Y-73154986D01*
X26237867Y-73119926D01*
X26117494Y-73043239D01*
X26114786Y-73041412D01*
X25935695Y-72913543D01*
X25770593Y-72786856D01*
X25768265Y-72784979D01*
X25600246Y-72642676D01*
X25585656Y-72629307D01*
X25445675Y-72501037D01*
X25288962Y-72344324D01*
X25234748Y-72285160D01*
X25147319Y-72189748D01*
X25005019Y-72021733D01*
X25003142Y-72019405D01*
X24876456Y-71854304D01*
X24748586Y-71675212D01*
X24746771Y-71672522D01*
X24635013Y-71497098D01*
X24595054Y-71430039D01*
X24522437Y-71308169D01*
X24520704Y-71305061D01*
X24424748Y-71120733D01*
X24328196Y-70923234D01*
X24326632Y-70919763D01*
X24247163Y-70727908D01*
X24229398Y-70682381D01*
X24167277Y-70523180D01*
X24165939Y-70519378D01*
X24103533Y-70321449D01*
X24048521Y-70136669D01*
X24040869Y-70110969D01*
X24039766Y-70106712D01*
X23994913Y-69904399D01*
X23949837Y-69689420D01*
X23949058Y-69684849D01*
X23922047Y-69479681D01*
X23917249Y-69441187D01*
X24470590Y-69441187D01*
X24500230Y-69836711D01*
X24500231Y-69836724D01*
X24569108Y-70227339D01*
X24676530Y-70609137D01*
X24676534Y-70609151D01*
X24821435Y-70978353D01*
X24821440Y-70978365D01*
X25002386Y-71331314D01*
X25002391Y-71331323D01*
X25217586Y-71664509D01*
X25448362Y-71953893D01*
X25464895Y-71974625D01*
X25674726Y-72189753D01*
X25741833Y-72258554D01*
X26045676Y-72513508D01*
X26373394Y-72736942D01*
X26721730Y-72926636D01*
X27087223Y-73080704D01*
X27087232Y-73080706D01*
X27087238Y-73080709D01*
X27466235Y-73197614D01*
X27466248Y-73197617D01*
X27854999Y-73276205D01*
X27855014Y-73276208D01*
X28193300Y-73310058D01*
X28249680Y-73315700D01*
X28249681Y-73315700D01*
X28547103Y-73315700D01*
X28745130Y-73305816D01*
X28844145Y-73300875D01*
X29236353Y-73241759D01*
X29620726Y-73143886D01*
X29993445Y-73008228D01*
X30350803Y-72836133D01*
X30689251Y-72629312D01*
X31005424Y-72389820D01*
X31296181Y-72120037D01*
X31558631Y-71822645D01*
X31790166Y-71500600D01*
X31988485Y-71157101D01*
X32151617Y-70795563D01*
X32277941Y-70419578D01*
X32342513Y-70136669D01*
X43255000Y-70136669D01*
X43255001Y-70136687D01*
X43265325Y-70237752D01*
X43301609Y-70347248D01*
X43319592Y-70401516D01*
X43410160Y-70548350D01*
X43532150Y-70670340D01*
X43678984Y-70760908D01*
X43842747Y-70815174D01*
X43943823Y-70825500D01*
X44542176Y-70825499D01*
X44542184Y-70825498D01*
X44542187Y-70825498D01*
X44597530Y-70819844D01*
X44643253Y-70815174D01*
X44807016Y-70760908D01*
X44953850Y-70670340D01*
X45075840Y-70548350D01*
X45083208Y-70536403D01*
X45135154Y-70489680D01*
X45188747Y-70477500D01*
X45639753Y-70477500D01*
X45706792Y-70497185D01*
X45745290Y-70536402D01*
X45752660Y-70548350D01*
X45874650Y-70670340D01*
X46021484Y-70760908D01*
X46185247Y-70815174D01*
X46286323Y-70825500D01*
X46959676Y-70825499D01*
X46959684Y-70825498D01*
X46959687Y-70825498D01*
X47015030Y-70819844D01*
X47060753Y-70815174D01*
X47224516Y-70760908D01*
X47371350Y-70670340D01*
X47410318Y-70631371D01*
X47471642Y-70597886D01*
X47541334Y-70602870D01*
X47585681Y-70631371D01*
X47624650Y-70670340D01*
X47771484Y-70760908D01*
X47935247Y-70815174D01*
X48036323Y-70825500D01*
X48409718Y-70825499D01*
X48476757Y-70845183D01*
X48497399Y-70861818D01*
X49902624Y-72267043D01*
X49912471Y-72279333D01*
X49912689Y-72279154D01*
X49917657Y-72285160D01*
X49968257Y-72332677D01*
X49989201Y-72353620D01*
X49989207Y-72353626D01*
X49994697Y-72357883D01*
X49999148Y-72361684D01*
X50033235Y-72393695D01*
X50033237Y-72393696D01*
X50050867Y-72403387D01*
X50067135Y-72414072D01*
X50083038Y-72426408D01*
X50125945Y-72444975D01*
X50131181Y-72447539D01*
X50156089Y-72461233D01*
X50172158Y-72470068D01*
X50172160Y-72470069D01*
X50172166Y-72470072D01*
X50191240Y-72474969D01*
X50191660Y-72475077D01*
X50210064Y-72481377D01*
X50228542Y-72489374D01*
X50272038Y-72496262D01*
X50274724Y-72496688D01*
X50280429Y-72497869D01*
X50325728Y-72509500D01*
X50345858Y-72509500D01*
X50365257Y-72511027D01*
X50385133Y-72514175D01*
X50427779Y-72510143D01*
X50431679Y-72509775D01*
X50437517Y-72509500D01*
X100654533Y-72509500D01*
X100670181Y-72511227D01*
X100670208Y-72510946D01*
X100677975Y-72511680D01*
X100677976Y-72511679D01*
X100677977Y-72511680D01*
X100747360Y-72509500D01*
X100776976Y-72509500D01*
X100783878Y-72508627D01*
X100789690Y-72508169D01*
X100836443Y-72506701D01*
X100855772Y-72501084D01*
X100874828Y-72497137D01*
X100894793Y-72494616D01*
X100938270Y-72477401D01*
X100943776Y-72475516D01*
X100988691Y-72462468D01*
X101006015Y-72452221D01*
X101023483Y-72443663D01*
X101042203Y-72436253D01*
X101080042Y-72408759D01*
X101084891Y-72405574D01*
X101125156Y-72381763D01*
X101139397Y-72367520D01*
X101154178Y-72354897D01*
X101170467Y-72343063D01*
X101170469Y-72343059D01*
X101170471Y-72343059D01*
X101182345Y-72328703D01*
X101200276Y-72307028D01*
X101204189Y-72302728D01*
X107913623Y-65593296D01*
X107913623Y-65593295D01*
X110628759Y-62878158D01*
X110690080Y-62844675D01*
X110742797Y-62844675D01*
X110761468Y-62848736D01*
X110777367Y-62852195D01*
X110777368Y-62852195D01*
X110777372Y-62852196D01*
X111031020Y-62870337D01*
X111062799Y-62872610D01*
X111062800Y-62872610D01*
X111062801Y-62872610D01*
X111091395Y-62870564D01*
X111348228Y-62852196D01*
X111397641Y-62841447D01*
X111627837Y-62791371D01*
X111627837Y-62791370D01*
X111627846Y-62791369D01*
X111895961Y-62691367D01*
X112147115Y-62554226D01*
X112376195Y-62382739D01*
X112578539Y-62180395D01*
X112750026Y-61951315D01*
X112887167Y-61700161D01*
X112987169Y-61432046D01*
X113047996Y-61152428D01*
X113063300Y-60938448D01*
X113063300Y-58695552D01*
X113047996Y-58481572D01*
X113046346Y-58473989D01*
X112987171Y-58201962D01*
X112987170Y-58201960D01*
X112987169Y-58201954D01*
X112887167Y-57933839D01*
X112886779Y-57933129D01*
X112750029Y-57682690D01*
X112750024Y-57682682D01*
X112578545Y-57453612D01*
X112578529Y-57453594D01*
X112376205Y-57251270D01*
X112376187Y-57251254D01*
X112147117Y-57079775D01*
X112147109Y-57079770D01*
X111895966Y-56942635D01*
X111895967Y-56942635D01*
X111692361Y-56866694D01*
X111627846Y-56842631D01*
X111627843Y-56842630D01*
X111627837Y-56842628D01*
X111348233Y-56781804D01*
X111062801Y-56761390D01*
X111062799Y-56761390D01*
X110777366Y-56781804D01*
X110497762Y-56842628D01*
X110229633Y-56942635D01*
X109978490Y-57079770D01*
X109978482Y-57079775D01*
X109749412Y-57251254D01*
X109749394Y-57251270D01*
X109654623Y-57346042D01*
X109593300Y-57379527D01*
X109523608Y-57374543D01*
X109479261Y-57346042D01*
X108138622Y-56005403D01*
X108108598Y-55956726D01*
X108098908Y-55927484D01*
X108098904Y-55927478D01*
X108098903Y-55927475D01*
X108040786Y-55833254D01*
X108026402Y-55809934D01*
X108007962Y-55742543D01*
X108028884Y-55675879D01*
X108044255Y-55657162D01*
X108931917Y-54769500D01*
X108993238Y-54736017D01*
X109042380Y-54735295D01*
X109113020Y-54748500D01*
X109113021Y-54748500D01*
X109326978Y-54748500D01*
X109326980Y-54748500D01*
X109537297Y-54709185D01*
X109736810Y-54631893D01*
X109918722Y-54519258D01*
X110076841Y-54375114D01*
X110205781Y-54204370D01*
X110301151Y-54012840D01*
X110301151Y-54012837D01*
X110301153Y-54012835D01*
X110359703Y-53807050D01*
X110359704Y-53807047D01*
X110366529Y-53733395D01*
X110392315Y-53668457D01*
X110449116Y-53627770D01*
X110518897Y-53624250D01*
X110579503Y-53659015D01*
X110611693Y-53721028D01*
X110613471Y-53733395D01*
X110620295Y-53807047D01*
X110620296Y-53807050D01*
X110678846Y-54012835D01*
X110678849Y-54012841D01*
X110750274Y-54156281D01*
X110774219Y-54204370D01*
X110903159Y-54375114D01*
X111061278Y-54519258D01*
X111061283Y-54519261D01*
X111061286Y-54519263D01*
X111243186Y-54631891D01*
X111243187Y-54631891D01*
X111243190Y-54631893D01*
X111442703Y-54709185D01*
X111653020Y-54748500D01*
X111653022Y-54748500D01*
X111866978Y-54748500D01*
X111866980Y-54748500D01*
X112077297Y-54709185D01*
X112276810Y-54631893D01*
X112458722Y-54519258D01*
X112616841Y-54375114D01*
X112745781Y-54204370D01*
X112841151Y-54012840D01*
X112841151Y-54012837D01*
X112841153Y-54012835D01*
X112899703Y-53807050D01*
X112899704Y-53807047D01*
X112906529Y-53733395D01*
X112932315Y-53668457D01*
X112989116Y-53627770D01*
X113058897Y-53624250D01*
X113119503Y-53659015D01*
X113151693Y-53721028D01*
X113153471Y-53733395D01*
X113160295Y-53807047D01*
X113160296Y-53807050D01*
X113218846Y-54012835D01*
X113218849Y-54012841D01*
X113290274Y-54156281D01*
X113314219Y-54204370D01*
X113443159Y-54375114D01*
X113601278Y-54519258D01*
X113601283Y-54519261D01*
X113601286Y-54519263D01*
X113783186Y-54631891D01*
X113783187Y-54631891D01*
X113783190Y-54631893D01*
X113982703Y-54709185D01*
X114193020Y-54748500D01*
X114193022Y-54748500D01*
X114406978Y-54748500D01*
X114406980Y-54748500D01*
X114617297Y-54709185D01*
X114816810Y-54631893D01*
X114998722Y-54519258D01*
X115156841Y-54375114D01*
X115285781Y-54204370D01*
X115381151Y-54012840D01*
X115381151Y-54012837D01*
X115381153Y-54012835D01*
X115439703Y-53807050D01*
X115439704Y-53807047D01*
X115446529Y-53733395D01*
X115472315Y-53668457D01*
X115529116Y-53627770D01*
X115598897Y-53624250D01*
X115659503Y-53659015D01*
X115691693Y-53721028D01*
X115693471Y-53733395D01*
X115700295Y-53807047D01*
X115700296Y-53807050D01*
X115758846Y-54012835D01*
X115758849Y-54012841D01*
X115830274Y-54156281D01*
X115854219Y-54204370D01*
X115983159Y-54375114D01*
X116141278Y-54519258D01*
X116141283Y-54519261D01*
X116141286Y-54519263D01*
X116323186Y-54631891D01*
X116323187Y-54631891D01*
X116323190Y-54631893D01*
X116522703Y-54709185D01*
X116733020Y-54748500D01*
X116733022Y-54748500D01*
X116946978Y-54748500D01*
X116946980Y-54748500D01*
X117157297Y-54709185D01*
X117356810Y-54631893D01*
X117538722Y-54519258D01*
X117696841Y-54375114D01*
X117825781Y-54204370D01*
X117921151Y-54012840D01*
X117921151Y-54012837D01*
X117921153Y-54012835D01*
X117979703Y-53807050D01*
X117979704Y-53807047D01*
X117986529Y-53733395D01*
X118012315Y-53668457D01*
X118069116Y-53627770D01*
X118138897Y-53624250D01*
X118199503Y-53659015D01*
X118231693Y-53721028D01*
X118233471Y-53733395D01*
X118240295Y-53807047D01*
X118240296Y-53807050D01*
X118298846Y-54012835D01*
X118298849Y-54012841D01*
X118370274Y-54156281D01*
X118394219Y-54204370D01*
X118523159Y-54375114D01*
X118681278Y-54519258D01*
X118681283Y-54519261D01*
X118681286Y-54519263D01*
X118863186Y-54631891D01*
X118863187Y-54631891D01*
X118863190Y-54631893D01*
X119062703Y-54709185D01*
X119273020Y-54748500D01*
X119273022Y-54748500D01*
X119486978Y-54748500D01*
X119486980Y-54748500D01*
X119697297Y-54709185D01*
X119896810Y-54631893D01*
X120078722Y-54519258D01*
X120236841Y-54375114D01*
X120365781Y-54204370D01*
X120461151Y-54012840D01*
X120461151Y-54012837D01*
X120461153Y-54012835D01*
X120519703Y-53807050D01*
X120519704Y-53807047D01*
X120526529Y-53733395D01*
X120552315Y-53668457D01*
X120609116Y-53627770D01*
X120678897Y-53624250D01*
X120739503Y-53659015D01*
X120771693Y-53721028D01*
X120773471Y-53733395D01*
X120780295Y-53807047D01*
X120780296Y-53807050D01*
X120838846Y-54012835D01*
X120838849Y-54012841D01*
X120910274Y-54156281D01*
X120934219Y-54204370D01*
X121063159Y-54375114D01*
X121221278Y-54519258D01*
X121221283Y-54519261D01*
X121221286Y-54519263D01*
X121403186Y-54631891D01*
X121403187Y-54631891D01*
X121403190Y-54631893D01*
X121602703Y-54709185D01*
X121813020Y-54748500D01*
X121813022Y-54748500D01*
X122026978Y-54748500D01*
X122026980Y-54748500D01*
X122237297Y-54709185D01*
X122436810Y-54631893D01*
X122618722Y-54519258D01*
X122776841Y-54375114D01*
X122905781Y-54204370D01*
X123001151Y-54012840D01*
X123001151Y-54012837D01*
X123001153Y-54012835D01*
X123059703Y-53807050D01*
X123059704Y-53807047D01*
X123066529Y-53733395D01*
X123092315Y-53668457D01*
X123149116Y-53627770D01*
X123218897Y-53624250D01*
X123279503Y-53659015D01*
X123311693Y-53721028D01*
X123313471Y-53733395D01*
X123320295Y-53807047D01*
X123320296Y-53807050D01*
X123378846Y-54012835D01*
X123378849Y-54012841D01*
X123450274Y-54156281D01*
X123474219Y-54204370D01*
X123603159Y-54375114D01*
X123761278Y-54519258D01*
X123761283Y-54519261D01*
X123761286Y-54519263D01*
X123943186Y-54631891D01*
X123943187Y-54631891D01*
X123943190Y-54631893D01*
X124142703Y-54709185D01*
X124353020Y-54748500D01*
X124353022Y-54748500D01*
X124566978Y-54748500D01*
X124566980Y-54748500D01*
X124777297Y-54709185D01*
X124976810Y-54631893D01*
X125158722Y-54519258D01*
X125316841Y-54375114D01*
X125445781Y-54204370D01*
X125541151Y-54012840D01*
X125541151Y-54012837D01*
X125541153Y-54012835D01*
X125599703Y-53807050D01*
X125599704Y-53807047D01*
X125606529Y-53733395D01*
X125632315Y-53668457D01*
X125689116Y-53627770D01*
X125758897Y-53624250D01*
X125819503Y-53659015D01*
X125851693Y-53721028D01*
X125853471Y-53733395D01*
X125860295Y-53807047D01*
X125860296Y-53807050D01*
X125918846Y-54012835D01*
X125918849Y-54012841D01*
X125990274Y-54156281D01*
X126014219Y-54204370D01*
X126143159Y-54375114D01*
X126301278Y-54519258D01*
X126301283Y-54519261D01*
X126301286Y-54519263D01*
X126483186Y-54631891D01*
X126483187Y-54631891D01*
X126483190Y-54631893D01*
X126682703Y-54709185D01*
X126893020Y-54748500D01*
X126893022Y-54748500D01*
X127106978Y-54748500D01*
X127106980Y-54748500D01*
X127317297Y-54709185D01*
X127516810Y-54631893D01*
X127698722Y-54519258D01*
X127856841Y-54375114D01*
X127985781Y-54204370D01*
X128081151Y-54012840D01*
X128081151Y-54012837D01*
X128081153Y-54012835D01*
X128139703Y-53807050D01*
X128139704Y-53807047D01*
X128158398Y-53605315D01*
X128159446Y-53594000D01*
X128139704Y-53380952D01*
X128129242Y-53344181D01*
X128081153Y-53175164D01*
X128081150Y-53175158D01*
X127985781Y-52983630D01*
X127856841Y-52812886D01*
X127698722Y-52668742D01*
X127698716Y-52668738D01*
X127698713Y-52668736D01*
X127516813Y-52556108D01*
X127516807Y-52556106D01*
X127317297Y-52478815D01*
X127106980Y-52439500D01*
X126893020Y-52439500D01*
X126682703Y-52478815D01*
X126556533Y-52527693D01*
X126483192Y-52556106D01*
X126483186Y-52556108D01*
X126301286Y-52668736D01*
X126301283Y-52668738D01*
X126301279Y-52668740D01*
X126301278Y-52668742D01*
X126253665Y-52712147D01*
X126143158Y-52812887D01*
X126014219Y-52983629D01*
X125918849Y-53175158D01*
X125918846Y-53175164D01*
X125860296Y-53380949D01*
X125860295Y-53380952D01*
X125853471Y-53454604D01*
X125827685Y-53519542D01*
X125770884Y-53560229D01*
X125701103Y-53563749D01*
X125640497Y-53528984D01*
X125608307Y-53466971D01*
X125606529Y-53454604D01*
X125599704Y-53380952D01*
X125599703Y-53380949D01*
X125593974Y-53360815D01*
X125589242Y-53344181D01*
X125541153Y-53175164D01*
X125541150Y-53175158D01*
X125445781Y-52983630D01*
X125316841Y-52812886D01*
X125158722Y-52668742D01*
X125158716Y-52668738D01*
X125158713Y-52668736D01*
X124976813Y-52556108D01*
X124976807Y-52556106D01*
X124777297Y-52478815D01*
X124566980Y-52439500D01*
X124353020Y-52439500D01*
X124142703Y-52478815D01*
X124016533Y-52527693D01*
X123943192Y-52556106D01*
X123943186Y-52556108D01*
X123761286Y-52668736D01*
X123761283Y-52668738D01*
X123761279Y-52668740D01*
X123761278Y-52668742D01*
X123713665Y-52712147D01*
X123603158Y-52812887D01*
X123474219Y-52983629D01*
X123378849Y-53175158D01*
X123378846Y-53175164D01*
X123320296Y-53380949D01*
X123320295Y-53380952D01*
X123313471Y-53454604D01*
X123287685Y-53519542D01*
X123230884Y-53560229D01*
X123161103Y-53563749D01*
X123100497Y-53528984D01*
X123068307Y-53466971D01*
X123066529Y-53454604D01*
X123059704Y-53380952D01*
X123059703Y-53380949D01*
X123053974Y-53360815D01*
X123049242Y-53344181D01*
X123001153Y-53175164D01*
X123001150Y-53175158D01*
X122905781Y-52983630D01*
X122776841Y-52812886D01*
X122618722Y-52668742D01*
X122618716Y-52668738D01*
X122618713Y-52668736D01*
X122436813Y-52556108D01*
X122436807Y-52556106D01*
X122237297Y-52478815D01*
X122026980Y-52439500D01*
X121813020Y-52439500D01*
X121602703Y-52478815D01*
X121476533Y-52527693D01*
X121403192Y-52556106D01*
X121403186Y-52556108D01*
X121221286Y-52668736D01*
X121221283Y-52668738D01*
X121221279Y-52668740D01*
X121221278Y-52668742D01*
X121173665Y-52712147D01*
X121063158Y-52812887D01*
X120934219Y-52983629D01*
X120838849Y-53175158D01*
X120838846Y-53175164D01*
X120780296Y-53380949D01*
X120780295Y-53380952D01*
X120773471Y-53454604D01*
X120747685Y-53519542D01*
X120690884Y-53560229D01*
X120621103Y-53563749D01*
X120560497Y-53528984D01*
X120528307Y-53466971D01*
X120526529Y-53454604D01*
X120519704Y-53380952D01*
X120519703Y-53380949D01*
X120513974Y-53360815D01*
X120509242Y-53344181D01*
X120461153Y-53175164D01*
X120461150Y-53175158D01*
X120365781Y-52983630D01*
X120236841Y-52812886D01*
X120078722Y-52668742D01*
X120078716Y-52668738D01*
X120078713Y-52668736D01*
X119896813Y-52556108D01*
X119896807Y-52556106D01*
X119697297Y-52478815D01*
X119486980Y-52439500D01*
X119273020Y-52439500D01*
X119062703Y-52478815D01*
X118936533Y-52527693D01*
X118863192Y-52556106D01*
X118863186Y-52556108D01*
X118681286Y-52668736D01*
X118681283Y-52668738D01*
X118681279Y-52668740D01*
X118681278Y-52668742D01*
X118633665Y-52712147D01*
X118523158Y-52812887D01*
X118394219Y-52983629D01*
X118298849Y-53175158D01*
X118298846Y-53175164D01*
X118240296Y-53380949D01*
X118240295Y-53380952D01*
X118233471Y-53454604D01*
X118207685Y-53519542D01*
X118150884Y-53560229D01*
X118081103Y-53563749D01*
X118020497Y-53528984D01*
X117988307Y-53466971D01*
X117986529Y-53454604D01*
X117979704Y-53380952D01*
X117979703Y-53380949D01*
X117973974Y-53360815D01*
X117969242Y-53344181D01*
X117921153Y-53175164D01*
X117921150Y-53175158D01*
X117825781Y-52983630D01*
X117696841Y-52812886D01*
X117538722Y-52668742D01*
X117538716Y-52668738D01*
X117538713Y-52668736D01*
X117356813Y-52556108D01*
X117356807Y-52556106D01*
X117157297Y-52478815D01*
X116946980Y-52439500D01*
X116733020Y-52439500D01*
X116522703Y-52478815D01*
X116396533Y-52527693D01*
X116323192Y-52556106D01*
X116323186Y-52556108D01*
X116141286Y-52668736D01*
X116141283Y-52668738D01*
X116141279Y-52668740D01*
X116141278Y-52668742D01*
X116093665Y-52712147D01*
X115983158Y-52812887D01*
X115854219Y-52983629D01*
X115758849Y-53175158D01*
X115758846Y-53175164D01*
X115700296Y-53380949D01*
X115700295Y-53380952D01*
X115693471Y-53454604D01*
X115667685Y-53519542D01*
X115610884Y-53560229D01*
X115541103Y-53563749D01*
X115480497Y-53528984D01*
X115448307Y-53466971D01*
X115446529Y-53454604D01*
X115439704Y-53380952D01*
X115439703Y-53380949D01*
X115433974Y-53360815D01*
X115429242Y-53344181D01*
X115381153Y-53175164D01*
X115381150Y-53175158D01*
X115285781Y-52983630D01*
X115156841Y-52812886D01*
X114998722Y-52668742D01*
X114998716Y-52668738D01*
X114998713Y-52668736D01*
X114816813Y-52556108D01*
X114816807Y-52556106D01*
X114617297Y-52478815D01*
X114406980Y-52439500D01*
X114193020Y-52439500D01*
X113982703Y-52478815D01*
X113856533Y-52527693D01*
X113783192Y-52556106D01*
X113783186Y-52556108D01*
X113601286Y-52668736D01*
X113601283Y-52668738D01*
X113601279Y-52668740D01*
X113601278Y-52668742D01*
X113553665Y-52712147D01*
X113443158Y-52812887D01*
X113314219Y-52983629D01*
X113218849Y-53175158D01*
X113218846Y-53175164D01*
X113160296Y-53380949D01*
X113160295Y-53380952D01*
X113153471Y-53454604D01*
X113127685Y-53519542D01*
X113070884Y-53560229D01*
X113001103Y-53563749D01*
X112940497Y-53528984D01*
X112908307Y-53466971D01*
X112906529Y-53454604D01*
X112899704Y-53380952D01*
X112899703Y-53380949D01*
X112893974Y-53360815D01*
X112889242Y-53344181D01*
X112841153Y-53175164D01*
X112841150Y-53175158D01*
X112745781Y-52983630D01*
X112616841Y-52812886D01*
X112458722Y-52668742D01*
X112458716Y-52668738D01*
X112458713Y-52668736D01*
X112276813Y-52556108D01*
X112276807Y-52556106D01*
X112077297Y-52478815D01*
X111866980Y-52439500D01*
X111653020Y-52439500D01*
X111442703Y-52478815D01*
X111316533Y-52527693D01*
X111243192Y-52556106D01*
X111243186Y-52556108D01*
X111061286Y-52668736D01*
X111061283Y-52668738D01*
X111061279Y-52668740D01*
X111061278Y-52668742D01*
X111013665Y-52712147D01*
X110903158Y-52812887D01*
X110774219Y-52983629D01*
X110678849Y-53175158D01*
X110678846Y-53175164D01*
X110620296Y-53380949D01*
X110620295Y-53380952D01*
X110613471Y-53454604D01*
X110587685Y-53519542D01*
X110530884Y-53560229D01*
X110461103Y-53563749D01*
X110400497Y-53528984D01*
X110368307Y-53466971D01*
X110366529Y-53454604D01*
X110359704Y-53380952D01*
X110359703Y-53380949D01*
X110353974Y-53360815D01*
X110349242Y-53344181D01*
X110301153Y-53175164D01*
X110301150Y-53175158D01*
X110205781Y-52983630D01*
X110076841Y-52812886D01*
X109918722Y-52668742D01*
X109918716Y-52668738D01*
X109918713Y-52668736D01*
X109736813Y-52556108D01*
X109736807Y-52556106D01*
X109537297Y-52478815D01*
X109326980Y-52439500D01*
X109113020Y-52439500D01*
X108902703Y-52478815D01*
X108776533Y-52527693D01*
X108703192Y-52556106D01*
X108703186Y-52556108D01*
X108521286Y-52668736D01*
X108521283Y-52668738D01*
X108521279Y-52668740D01*
X108521278Y-52668742D01*
X108473665Y-52712147D01*
X108363158Y-52812887D01*
X108234219Y-52983629D01*
X108138849Y-53175158D01*
X108138846Y-53175164D01*
X108080296Y-53380949D01*
X108080295Y-53380952D01*
X108073471Y-53454604D01*
X108047685Y-53519542D01*
X107990884Y-53560229D01*
X107921103Y-53563749D01*
X107860497Y-53528984D01*
X107828307Y-53466971D01*
X107826529Y-53454604D01*
X107819704Y-53380952D01*
X107819703Y-53380949D01*
X107813974Y-53360815D01*
X107809242Y-53344181D01*
X107761153Y-53175164D01*
X107761150Y-53175158D01*
X107665781Y-52983630D01*
X107536841Y-52812886D01*
X107378722Y-52668742D01*
X107378716Y-52668738D01*
X107378713Y-52668736D01*
X107196813Y-52556108D01*
X107196807Y-52556106D01*
X106997297Y-52478815D01*
X106786980Y-52439500D01*
X106573020Y-52439500D01*
X106362703Y-52478815D01*
X106236533Y-52527693D01*
X106163192Y-52556106D01*
X106163186Y-52556108D01*
X105981286Y-52668736D01*
X105981283Y-52668738D01*
X105981279Y-52668740D01*
X105981278Y-52668742D01*
X105933665Y-52712147D01*
X105823158Y-52812887D01*
X105694219Y-52983629D01*
X105598849Y-53175158D01*
X105598846Y-53175164D01*
X105540296Y-53380949D01*
X105540295Y-53380952D01*
X105533471Y-53454604D01*
X105507685Y-53519542D01*
X105450884Y-53560229D01*
X105381103Y-53563749D01*
X105320497Y-53528984D01*
X105288307Y-53466971D01*
X105286529Y-53454604D01*
X105279704Y-53380952D01*
X105279703Y-53380949D01*
X105273974Y-53360815D01*
X105269242Y-53344181D01*
X105221153Y-53175164D01*
X105221150Y-53175158D01*
X105125781Y-52983630D01*
X104996841Y-52812886D01*
X104838722Y-52668742D01*
X104838716Y-52668738D01*
X104838713Y-52668736D01*
X104656813Y-52556108D01*
X104656807Y-52556106D01*
X104457297Y-52478815D01*
X104246980Y-52439500D01*
X104033020Y-52439500D01*
X103822703Y-52478815D01*
X103696533Y-52527693D01*
X103623192Y-52556106D01*
X103623186Y-52556108D01*
X103441286Y-52668736D01*
X103441283Y-52668738D01*
X103441279Y-52668740D01*
X103441278Y-52668742D01*
X103393665Y-52712147D01*
X103283158Y-52812887D01*
X103154219Y-52983629D01*
X103058849Y-53175158D01*
X103058846Y-53175164D01*
X103000296Y-53380949D01*
X103000295Y-53380952D01*
X102993471Y-53454604D01*
X102967685Y-53519542D01*
X102910884Y-53560229D01*
X102841103Y-53563749D01*
X102780497Y-53528984D01*
X102748307Y-53466971D01*
X102746529Y-53454604D01*
X102739704Y-53380952D01*
X102739703Y-53380949D01*
X102733974Y-53360815D01*
X102729242Y-53344181D01*
X102681153Y-53175164D01*
X102681150Y-53175158D01*
X102585781Y-52983630D01*
X102456841Y-52812886D01*
X102298722Y-52668742D01*
X102298716Y-52668738D01*
X102298713Y-52668736D01*
X102116813Y-52556108D01*
X102116807Y-52556106D01*
X101917297Y-52478815D01*
X101706980Y-52439500D01*
X101493020Y-52439500D01*
X101282703Y-52478815D01*
X101156533Y-52527693D01*
X101083192Y-52556106D01*
X101083186Y-52556108D01*
X100901286Y-52668736D01*
X100901283Y-52668738D01*
X100901279Y-52668740D01*
X100901278Y-52668742D01*
X100853665Y-52712147D01*
X100743158Y-52812887D01*
X100614219Y-52983629D01*
X100518849Y-53175158D01*
X100518846Y-53175164D01*
X100460296Y-53380949D01*
X100460295Y-53380952D01*
X100453471Y-53454604D01*
X100427685Y-53519542D01*
X100370884Y-53560229D01*
X100301103Y-53563749D01*
X100240497Y-53528984D01*
X100208307Y-53466971D01*
X100206529Y-53454604D01*
X100199704Y-53380952D01*
X100199703Y-53380949D01*
X100193974Y-53360815D01*
X100189242Y-53344181D01*
X100141153Y-53175164D01*
X100141150Y-53175158D01*
X100045781Y-52983630D01*
X99916841Y-52812886D01*
X99758722Y-52668742D01*
X99758716Y-52668738D01*
X99758713Y-52668736D01*
X99576813Y-52556108D01*
X99576807Y-52556106D01*
X99377297Y-52478815D01*
X99166980Y-52439500D01*
X98953020Y-52439500D01*
X98742703Y-52478815D01*
X98616533Y-52527693D01*
X98543192Y-52556106D01*
X98543186Y-52556108D01*
X98361286Y-52668736D01*
X98361283Y-52668738D01*
X98361279Y-52668740D01*
X98361278Y-52668742D01*
X98313665Y-52712147D01*
X98203158Y-52812887D01*
X98074219Y-52983629D01*
X97978849Y-53175158D01*
X97978846Y-53175164D01*
X97920296Y-53380949D01*
X97920295Y-53380952D01*
X97913471Y-53454604D01*
X97887685Y-53519542D01*
X97830884Y-53560229D01*
X97761103Y-53563749D01*
X97700497Y-53528984D01*
X97668307Y-53466971D01*
X97666529Y-53454604D01*
X97659704Y-53380952D01*
X97659703Y-53380949D01*
X97653974Y-53360815D01*
X97649242Y-53344181D01*
X97601153Y-53175164D01*
X97601150Y-53175158D01*
X97505781Y-52983630D01*
X97376841Y-52812886D01*
X97218722Y-52668742D01*
X97218716Y-52668738D01*
X97218713Y-52668736D01*
X97036813Y-52556108D01*
X97036807Y-52556106D01*
X96837297Y-52478815D01*
X96626980Y-52439500D01*
X96413020Y-52439500D01*
X96202703Y-52478815D01*
X96076533Y-52527693D01*
X96003192Y-52556106D01*
X96003186Y-52556108D01*
X95821286Y-52668736D01*
X95821283Y-52668738D01*
X95821279Y-52668740D01*
X95821278Y-52668742D01*
X95773665Y-52712147D01*
X95663158Y-52812887D01*
X95534219Y-52983629D01*
X95438849Y-53175158D01*
X95438846Y-53175164D01*
X95380296Y-53380949D01*
X95380295Y-53380952D01*
X95373471Y-53454604D01*
X95347685Y-53519542D01*
X95290884Y-53560229D01*
X95221103Y-53563749D01*
X95160497Y-53528984D01*
X95128307Y-53466971D01*
X95126529Y-53454604D01*
X95119704Y-53380952D01*
X95119703Y-53380949D01*
X95113974Y-53360815D01*
X95109242Y-53344181D01*
X95061153Y-53175164D01*
X95061150Y-53175158D01*
X94965781Y-52983630D01*
X94836841Y-52812886D01*
X94678722Y-52668742D01*
X94678716Y-52668738D01*
X94678713Y-52668736D01*
X94496813Y-52556108D01*
X94496807Y-52556106D01*
X94297297Y-52478815D01*
X94086980Y-52439500D01*
X93873020Y-52439500D01*
X93662703Y-52478815D01*
X93536533Y-52527693D01*
X93463192Y-52556106D01*
X93463186Y-52556108D01*
X93281286Y-52668736D01*
X93281283Y-52668738D01*
X93281279Y-52668740D01*
X93281278Y-52668742D01*
X93233665Y-52712147D01*
X93123158Y-52812887D01*
X92994219Y-52983629D01*
X92898849Y-53175158D01*
X92898846Y-53175164D01*
X92840296Y-53380949D01*
X92840295Y-53380952D01*
X92833471Y-53454604D01*
X92807685Y-53519542D01*
X92750884Y-53560229D01*
X92681103Y-53563749D01*
X92620497Y-53528984D01*
X92588307Y-53466971D01*
X92586529Y-53454604D01*
X92579704Y-53380952D01*
X92579703Y-53380949D01*
X92573974Y-53360815D01*
X92569242Y-53344181D01*
X92521153Y-53175164D01*
X92521150Y-53175158D01*
X92425781Y-52983630D01*
X92296841Y-52812886D01*
X92138722Y-52668742D01*
X92138716Y-52668738D01*
X92138713Y-52668736D01*
X91956813Y-52556108D01*
X91956807Y-52556106D01*
X91757297Y-52478815D01*
X91546980Y-52439500D01*
X91333020Y-52439500D01*
X91122703Y-52478815D01*
X90996533Y-52527693D01*
X90923192Y-52556106D01*
X90923186Y-52556108D01*
X90741286Y-52668736D01*
X90741283Y-52668738D01*
X90741279Y-52668740D01*
X90741278Y-52668742D01*
X90693665Y-52712147D01*
X90583158Y-52812887D01*
X90454219Y-52983629D01*
X90358849Y-53175158D01*
X90358846Y-53175164D01*
X90300296Y-53380949D01*
X90300295Y-53380952D01*
X90293471Y-53454604D01*
X90267685Y-53519542D01*
X90210884Y-53560229D01*
X90141103Y-53563749D01*
X90080497Y-53528984D01*
X90048307Y-53466971D01*
X90046529Y-53454604D01*
X90039704Y-53380952D01*
X90039703Y-53380949D01*
X90033974Y-53360815D01*
X90029242Y-53344181D01*
X89981153Y-53175164D01*
X89981150Y-53175158D01*
X89885781Y-52983630D01*
X89756841Y-52812886D01*
X89598722Y-52668742D01*
X89598716Y-52668738D01*
X89598713Y-52668736D01*
X89416813Y-52556108D01*
X89416807Y-52556106D01*
X89217297Y-52478815D01*
X89006980Y-52439500D01*
X88793020Y-52439500D01*
X88582703Y-52478815D01*
X88456533Y-52527693D01*
X88383192Y-52556106D01*
X88383186Y-52556108D01*
X88201286Y-52668736D01*
X88201283Y-52668738D01*
X88201279Y-52668740D01*
X88201278Y-52668742D01*
X88153665Y-52712147D01*
X88043158Y-52812887D01*
X87914219Y-52983629D01*
X87818849Y-53175158D01*
X87818846Y-53175164D01*
X87760296Y-53380949D01*
X87760295Y-53380952D01*
X87753471Y-53454604D01*
X87727685Y-53519542D01*
X87670884Y-53560229D01*
X87601103Y-53563749D01*
X87540497Y-53528984D01*
X87508307Y-53466971D01*
X87506529Y-53454604D01*
X87499704Y-53380952D01*
X87499703Y-53380949D01*
X87493974Y-53360815D01*
X87489242Y-53344181D01*
X87441153Y-53175164D01*
X87441150Y-53175158D01*
X87345781Y-52983630D01*
X87216841Y-52812886D01*
X87058722Y-52668742D01*
X87058716Y-52668738D01*
X87058713Y-52668736D01*
X86876813Y-52556108D01*
X86876807Y-52556106D01*
X86677297Y-52478815D01*
X86466980Y-52439500D01*
X86253020Y-52439500D01*
X86042703Y-52478815D01*
X85916533Y-52527693D01*
X85843192Y-52556106D01*
X85843186Y-52556108D01*
X85661286Y-52668736D01*
X85661283Y-52668738D01*
X85661279Y-52668740D01*
X85661278Y-52668742D01*
X85613665Y-52712147D01*
X85503158Y-52812887D01*
X85374219Y-52983629D01*
X85278849Y-53175158D01*
X85278846Y-53175164D01*
X85220296Y-53380949D01*
X85220295Y-53380952D01*
X85213471Y-53454604D01*
X85187685Y-53519542D01*
X85130884Y-53560229D01*
X85061103Y-53563749D01*
X85000497Y-53528984D01*
X84968307Y-53466971D01*
X84966529Y-53454604D01*
X84959704Y-53380952D01*
X84959703Y-53380949D01*
X84953974Y-53360815D01*
X84949242Y-53344181D01*
X84901153Y-53175164D01*
X84901150Y-53175158D01*
X84805781Y-52983630D01*
X84676841Y-52812886D01*
X84518722Y-52668742D01*
X84518716Y-52668738D01*
X84518713Y-52668736D01*
X84336813Y-52556108D01*
X84336807Y-52556106D01*
X84137297Y-52478815D01*
X83926980Y-52439500D01*
X83713020Y-52439500D01*
X83502703Y-52478815D01*
X83376533Y-52527693D01*
X83303192Y-52556106D01*
X83303186Y-52556108D01*
X83121286Y-52668736D01*
X83121283Y-52668738D01*
X83121279Y-52668740D01*
X83121278Y-52668742D01*
X83073665Y-52712147D01*
X82963158Y-52812887D01*
X82834219Y-52983629D01*
X82738849Y-53175158D01*
X82738846Y-53175164D01*
X82680296Y-53380949D01*
X82680295Y-53380952D01*
X82673471Y-53454604D01*
X82647685Y-53519542D01*
X82590884Y-53560229D01*
X82521103Y-53563749D01*
X82460497Y-53528984D01*
X82428307Y-53466971D01*
X82426529Y-53454604D01*
X82419704Y-53380952D01*
X82419703Y-53380949D01*
X82413974Y-53360815D01*
X82409242Y-53344181D01*
X82361153Y-53175164D01*
X82361150Y-53175158D01*
X82265781Y-52983630D01*
X82136841Y-52812886D01*
X81978722Y-52668742D01*
X81978716Y-52668738D01*
X81978713Y-52668736D01*
X81796813Y-52556108D01*
X81796807Y-52556106D01*
X81597297Y-52478815D01*
X81386980Y-52439500D01*
X81173020Y-52439500D01*
X80962703Y-52478815D01*
X80836533Y-52527693D01*
X80763192Y-52556106D01*
X80763186Y-52556108D01*
X80581286Y-52668736D01*
X80581283Y-52668738D01*
X80581279Y-52668740D01*
X80581278Y-52668742D01*
X80533665Y-52712147D01*
X80423158Y-52812887D01*
X80294219Y-52983629D01*
X80198849Y-53175158D01*
X80198846Y-53175164D01*
X80140296Y-53380949D01*
X80140295Y-53380952D01*
X80133471Y-53454604D01*
X80107685Y-53519542D01*
X80050884Y-53560229D01*
X79981103Y-53563749D01*
X79920497Y-53528984D01*
X79888307Y-53466971D01*
X79886529Y-53454604D01*
X79879704Y-53380952D01*
X79879703Y-53380949D01*
X79873974Y-53360815D01*
X79869242Y-53344181D01*
X79821153Y-53175164D01*
X79821150Y-53175158D01*
X79725781Y-52983630D01*
X79596841Y-52812886D01*
X79438722Y-52668742D01*
X79438716Y-52668738D01*
X79438713Y-52668736D01*
X79256813Y-52556108D01*
X79256807Y-52556106D01*
X79057297Y-52478815D01*
X78846980Y-52439500D01*
X78633020Y-52439500D01*
X78422703Y-52478815D01*
X78296533Y-52527693D01*
X78223192Y-52556106D01*
X78223186Y-52556108D01*
X78041286Y-52668736D01*
X78041283Y-52668738D01*
X78041279Y-52668740D01*
X78041278Y-52668742D01*
X77993665Y-52712147D01*
X77883158Y-52812887D01*
X77754219Y-52983629D01*
X77658849Y-53175158D01*
X77658846Y-53175164D01*
X77600296Y-53380949D01*
X77600295Y-53380952D01*
X77593471Y-53454604D01*
X77567685Y-53519542D01*
X77510884Y-53560229D01*
X77441103Y-53563749D01*
X77380497Y-53528984D01*
X77348307Y-53466971D01*
X77346529Y-53454604D01*
X77339704Y-53380952D01*
X77339703Y-53380949D01*
X77333974Y-53360815D01*
X77329242Y-53344181D01*
X77281153Y-53175164D01*
X77281150Y-53175158D01*
X77185781Y-52983630D01*
X77056841Y-52812886D01*
X76898722Y-52668742D01*
X76898716Y-52668738D01*
X76898713Y-52668736D01*
X76716813Y-52556108D01*
X76716807Y-52556106D01*
X76517297Y-52478815D01*
X76306980Y-52439500D01*
X76093020Y-52439500D01*
X75882703Y-52478815D01*
X75756533Y-52527693D01*
X75683192Y-52556106D01*
X75683186Y-52556108D01*
X75501286Y-52668736D01*
X75501283Y-52668738D01*
X75501279Y-52668740D01*
X75501278Y-52668742D01*
X75453665Y-52712147D01*
X75343158Y-52812887D01*
X75214219Y-52983629D01*
X75118849Y-53175158D01*
X75118846Y-53175164D01*
X75060296Y-53380949D01*
X75060295Y-53380952D01*
X75053471Y-53454604D01*
X75027685Y-53519542D01*
X74970884Y-53560229D01*
X74901103Y-53563749D01*
X74840497Y-53528984D01*
X74808307Y-53466971D01*
X74806529Y-53454604D01*
X74799704Y-53380952D01*
X74799703Y-53380949D01*
X74793974Y-53360815D01*
X74789242Y-53344181D01*
X74741153Y-53175164D01*
X74741150Y-53175158D01*
X74645781Y-52983630D01*
X74516841Y-52812886D01*
X74358722Y-52668742D01*
X74358716Y-52668738D01*
X74358713Y-52668736D01*
X74176813Y-52556108D01*
X74176807Y-52556106D01*
X73977297Y-52478815D01*
X73766980Y-52439500D01*
X73553020Y-52439500D01*
X73342703Y-52478815D01*
X73216533Y-52527693D01*
X73143192Y-52556106D01*
X73143186Y-52556108D01*
X72961286Y-52668736D01*
X72961283Y-52668738D01*
X72961279Y-52668740D01*
X72961278Y-52668742D01*
X72913665Y-52712147D01*
X72803158Y-52812887D01*
X72674219Y-52983629D01*
X72578849Y-53175158D01*
X72578846Y-53175164D01*
X72520296Y-53380949D01*
X72520295Y-53380952D01*
X72513471Y-53454604D01*
X72487685Y-53519542D01*
X72430884Y-53560229D01*
X72361103Y-53563749D01*
X72300497Y-53528984D01*
X72268307Y-53466971D01*
X72266529Y-53454604D01*
X72259704Y-53380952D01*
X72259703Y-53380949D01*
X72253974Y-53360815D01*
X72249242Y-53344181D01*
X72201153Y-53175164D01*
X72201150Y-53175158D01*
X72105781Y-52983630D01*
X71976841Y-52812886D01*
X71818722Y-52668742D01*
X71818716Y-52668738D01*
X71818713Y-52668736D01*
X71636813Y-52556108D01*
X71636807Y-52556106D01*
X71437297Y-52478815D01*
X71226980Y-52439500D01*
X71013020Y-52439500D01*
X70802703Y-52478815D01*
X70676533Y-52527693D01*
X70603192Y-52556106D01*
X70603186Y-52556108D01*
X70421286Y-52668736D01*
X70421283Y-52668738D01*
X70421279Y-52668740D01*
X70421278Y-52668742D01*
X70373665Y-52712147D01*
X70263158Y-52812887D01*
X70134219Y-52983629D01*
X70038849Y-53175158D01*
X70038846Y-53175164D01*
X69980296Y-53380949D01*
X69980295Y-53380952D01*
X69960554Y-53593999D01*
X69960554Y-53594000D01*
X69978492Y-53787584D01*
X69965077Y-53856154D01*
X69942702Y-53886706D01*
X66361181Y-57468228D01*
X66299858Y-57501713D01*
X66230166Y-57496729D01*
X66174233Y-57454857D01*
X66149816Y-57389393D01*
X66149500Y-57380547D01*
X66149500Y-56827124D01*
X66169185Y-56760085D01*
X66208400Y-56721588D01*
X66242850Y-56700340D01*
X66364840Y-56578350D01*
X66455408Y-56431516D01*
X66509674Y-56267753D01*
X66520000Y-56166677D01*
X66519999Y-55593324D01*
X66517002Y-55563989D01*
X66509674Y-55492247D01*
X66466077Y-55360682D01*
X66455408Y-55328484D01*
X66364840Y-55181650D01*
X66242850Y-55059660D01*
X66096016Y-54969092D01*
X65932253Y-54914826D01*
X65932251Y-54914825D01*
X65831178Y-54904500D01*
X65232830Y-54904500D01*
X65232812Y-54904501D01*
X65131747Y-54914825D01*
X64967984Y-54969092D01*
X64967981Y-54969093D01*
X64821148Y-55059661D01*
X64699161Y-55181648D01*
X64608593Y-55328481D01*
X64608591Y-55328486D01*
X64581219Y-55411088D01*
X64554326Y-55492247D01*
X64554326Y-55492248D01*
X64554325Y-55492248D01*
X64544000Y-55593315D01*
X64544000Y-56166669D01*
X64544001Y-56166687D01*
X64554325Y-56267752D01*
X64573207Y-56324732D01*
X64598122Y-56399921D01*
X64608592Y-56431515D01*
X64608593Y-56431518D01*
X64623276Y-56455323D01*
X64683988Y-56553753D01*
X64699161Y-56578351D01*
X64821150Y-56700340D01*
X64839594Y-56711716D01*
X64886320Y-56763664D01*
X64898499Y-56817256D01*
X64898500Y-58561013D01*
X64883333Y-58620439D01*
X64880203Y-58626170D01*
X64832048Y-58755281D01*
X64829909Y-58761017D01*
X64823500Y-58820627D01*
X64823500Y-58820634D01*
X64823500Y-58820635D01*
X64823500Y-59426370D01*
X64823501Y-59426376D01*
X64829908Y-59485982D01*
X64833739Y-59496253D01*
X64838720Y-59565945D01*
X64805233Y-59627267D01*
X64743908Y-59660749D01*
X64730812Y-59662871D01*
X64716519Y-59664407D01*
X64581671Y-59714702D01*
X64581664Y-59714706D01*
X64466455Y-59800952D01*
X64466452Y-59800955D01*
X64380206Y-59916164D01*
X64380202Y-59916171D01*
X64329910Y-60051013D01*
X64329909Y-60051017D01*
X64323500Y-60110627D01*
X64323500Y-60110634D01*
X64323500Y-60110635D01*
X64323500Y-60716370D01*
X64323501Y-60716376D01*
X64329908Y-60775983D01*
X64368976Y-60880728D01*
X64380204Y-60910831D01*
X64380206Y-60910834D01*
X64383332Y-60916559D01*
X64398499Y-60975985D01*
X64398499Y-66142201D01*
X64378814Y-66209240D01*
X64345622Y-66243776D01*
X64209378Y-66339174D01*
X64053175Y-66495377D01*
X63926466Y-66676338D01*
X63926465Y-66676340D01*
X63866382Y-66805189D01*
X63820209Y-66857628D01*
X63753016Y-66876780D01*
X63686135Y-66856564D01*
X63641618Y-66805189D01*
X63596938Y-66709374D01*
X63581534Y-66676339D01*
X63454826Y-66495380D01*
X63298620Y-66339174D01*
X63162376Y-66243775D01*
X63118752Y-66189198D01*
X63109500Y-66142200D01*
X63109500Y-63690687D01*
X63129185Y-63623648D01*
X63141350Y-63607715D01*
X63159891Y-63587122D01*
X63216533Y-63524216D01*
X63311179Y-63360284D01*
X63369674Y-63180256D01*
X63389460Y-62992000D01*
X63369674Y-62803744D01*
X63311179Y-62623716D01*
X63216533Y-62459784D01*
X63089871Y-62319112D01*
X63033306Y-62278015D01*
X62936734Y-62207851D01*
X62936729Y-62207848D01*
X62763807Y-62130857D01*
X62763802Y-62130855D01*
X62610732Y-62098320D01*
X62578646Y-62091500D01*
X62389354Y-62091500D01*
X62357268Y-62098320D01*
X62204197Y-62130855D01*
X62204192Y-62130857D01*
X62031270Y-62207848D01*
X62031265Y-62207851D01*
X61878129Y-62319111D01*
X61751466Y-62459785D01*
X61656821Y-62623715D01*
X61656818Y-62623722D01*
X61602347Y-62791369D01*
X61598326Y-62803744D01*
X61578540Y-62992000D01*
X61598326Y-63180256D01*
X61598327Y-63180259D01*
X61656818Y-63360277D01*
X61656821Y-63360284D01*
X61751467Y-63524216D01*
X61780493Y-63556452D01*
X61826650Y-63607715D01*
X61856880Y-63670706D01*
X61858500Y-63690687D01*
X61858500Y-66142201D01*
X61838815Y-66209240D01*
X61805623Y-66243776D01*
X61669377Y-66339175D01*
X61513175Y-66495377D01*
X61386466Y-66676338D01*
X61386465Y-66676340D01*
X61293107Y-66876548D01*
X61293104Y-66876554D01*
X61235930Y-67089929D01*
X61235929Y-67089937D01*
X61216677Y-67309997D01*
X61216677Y-67310002D01*
X61235929Y-67530062D01*
X61235930Y-67530070D01*
X61293104Y-67743445D01*
X61293105Y-67743447D01*
X61293106Y-67743450D01*
X61365889Y-67899534D01*
X61386466Y-67943662D01*
X61386468Y-67943666D01*
X61513170Y-68124615D01*
X61513175Y-68124621D01*
X61669378Y-68280824D01*
X61669384Y-68280829D01*
X61850333Y-68407531D01*
X61850335Y-68407532D01*
X61850338Y-68407534D01*
X62050550Y-68500894D01*
X62263932Y-68558070D01*
X62421123Y-68571822D01*
X62483998Y-68577323D01*
X62484000Y-68577323D01*
X62484002Y-68577323D01*
X62539017Y-68572509D01*
X62704068Y-68558070D01*
X62917450Y-68500894D01*
X63117662Y-68407534D01*
X63298620Y-68280826D01*
X63454826Y-68124620D01*
X63581534Y-67943662D01*
X63641617Y-67814811D01*
X63687790Y-67762371D01*
X63754983Y-67743219D01*
X63821865Y-67763435D01*
X63866382Y-67814811D01*
X63926464Y-67943658D01*
X63926468Y-67943666D01*
X64053170Y-68124615D01*
X64053175Y-68124621D01*
X64209378Y-68280824D01*
X64209384Y-68280829D01*
X64390333Y-68407531D01*
X64390335Y-68407532D01*
X64390338Y-68407534D01*
X64590550Y-68500894D01*
X64803932Y-68558070D01*
X64961123Y-68571822D01*
X65023998Y-68577323D01*
X65024000Y-68577323D01*
X65024002Y-68577323D01*
X65079017Y-68572509D01*
X65244068Y-68558070D01*
X65457450Y-68500894D01*
X65657662Y-68407534D01*
X65838620Y-68280826D01*
X65994826Y-68124620D01*
X66121534Y-67943662D01*
X66214894Y-67743450D01*
X66272070Y-67530068D01*
X66291323Y-67310000D01*
X66286876Y-67259174D01*
X66280247Y-67183400D01*
X66272070Y-67089932D01*
X66214894Y-66876550D01*
X66121534Y-66676339D01*
X65994826Y-66495380D01*
X65838620Y-66339174D01*
X65702376Y-66243775D01*
X65658752Y-66189198D01*
X65649500Y-66142200D01*
X65649500Y-60975986D01*
X65664671Y-60916554D01*
X65667793Y-60910833D01*
X65667796Y-60910831D01*
X65718091Y-60775983D01*
X65724500Y-60716373D01*
X65724499Y-60110628D01*
X65718091Y-60051017D01*
X65717083Y-60048316D01*
X65714262Y-60040749D01*
X65709278Y-59971058D01*
X65742764Y-59909735D01*
X65804087Y-59876251D01*
X65817190Y-59874127D01*
X65831483Y-59872591D01*
X65966331Y-59822296D01*
X66081546Y-59736046D01*
X66167796Y-59620831D01*
X66218091Y-59485983D01*
X66222833Y-59441879D01*
X66224499Y-59426387D01*
X66224499Y-59426382D01*
X66224500Y-59426373D01*
X66224499Y-59425476D01*
X66224558Y-59425276D01*
X66224677Y-59423066D01*
X66224855Y-59423075D01*
X66224856Y-59423069D01*
X66224977Y-59423082D01*
X66225199Y-59423093D01*
X66244168Y-59358436D01*
X66260813Y-59337775D01*
X70829533Y-54769055D01*
X70890854Y-54735572D01*
X70939995Y-54734849D01*
X71013020Y-54748500D01*
X71013022Y-54748500D01*
X71226978Y-54748500D01*
X71226980Y-54748500D01*
X71437297Y-54709185D01*
X71636810Y-54631893D01*
X71818722Y-54519258D01*
X71976841Y-54375114D01*
X72105781Y-54204370D01*
X72201151Y-54012840D01*
X72201151Y-54012837D01*
X72201153Y-54012835D01*
X72259703Y-53807050D01*
X72259704Y-53807047D01*
X72266529Y-53733395D01*
X72292315Y-53668457D01*
X72349116Y-53627770D01*
X72418897Y-53624250D01*
X72479503Y-53659015D01*
X72511693Y-53721028D01*
X72513471Y-53733395D01*
X72520295Y-53807047D01*
X72520296Y-53807050D01*
X72578846Y-54012835D01*
X72578849Y-54012841D01*
X72650274Y-54156281D01*
X72674219Y-54204370D01*
X72803159Y-54375114D01*
X72961278Y-54519258D01*
X72961283Y-54519261D01*
X72961286Y-54519263D01*
X73143186Y-54631891D01*
X73143187Y-54631891D01*
X73143190Y-54631893D01*
X73342703Y-54709185D01*
X73553020Y-54748500D01*
X73553022Y-54748500D01*
X73766978Y-54748500D01*
X73766980Y-54748500D01*
X73977297Y-54709185D01*
X74176810Y-54631893D01*
X74358722Y-54519258D01*
X74516841Y-54375114D01*
X74645781Y-54204370D01*
X74741151Y-54012840D01*
X74741151Y-54012837D01*
X74741153Y-54012835D01*
X74799703Y-53807050D01*
X74799704Y-53807047D01*
X74806529Y-53733395D01*
X74832315Y-53668457D01*
X74889116Y-53627770D01*
X74958897Y-53624250D01*
X75019503Y-53659015D01*
X75051693Y-53721028D01*
X75053471Y-53733395D01*
X75060295Y-53807047D01*
X75060296Y-53807050D01*
X75118846Y-54012835D01*
X75118849Y-54012841D01*
X75190274Y-54156281D01*
X75214219Y-54204370D01*
X75343159Y-54375114D01*
X75501278Y-54519258D01*
X75501283Y-54519261D01*
X75501286Y-54519263D01*
X75683186Y-54631891D01*
X75683187Y-54631891D01*
X75683190Y-54631893D01*
X75882703Y-54709185D01*
X75943557Y-54720560D01*
X76005835Y-54752226D01*
X76041109Y-54812539D01*
X76038176Y-54882347D01*
X76008451Y-54930129D01*
X75331456Y-55607123D01*
X75306901Y-55626171D01*
X75293261Y-55634238D01*
X75279027Y-55648472D01*
X75264238Y-55661104D01*
X75247952Y-55672937D01*
X75218147Y-55708963D01*
X75214215Y-55713285D01*
X74996154Y-55931345D01*
X74934831Y-55964830D01*
X74865139Y-55959846D01*
X74820792Y-55931345D01*
X74806370Y-55916923D01*
X74806362Y-55916917D01*
X74664896Y-55833255D01*
X74664893Y-55833254D01*
X74507073Y-55787402D01*
X74507067Y-55787401D01*
X74470196Y-55784500D01*
X74470194Y-55784500D01*
X73163806Y-55784500D01*
X73163804Y-55784500D01*
X73126932Y-55787401D01*
X73126926Y-55787402D01*
X72969106Y-55833254D01*
X72969103Y-55833255D01*
X72827637Y-55916917D01*
X72827629Y-55916923D01*
X72823372Y-55921181D01*
X72762049Y-55954666D01*
X72735691Y-55957500D01*
X72388467Y-55957500D01*
X72372819Y-55955772D01*
X72372793Y-55956054D01*
X72365025Y-55955319D01*
X72295654Y-55957500D01*
X72266021Y-55957500D01*
X72259107Y-55958373D01*
X72253290Y-55958830D01*
X72206558Y-55960299D01*
X72206554Y-55960300D01*
X72187222Y-55965916D01*
X72168182Y-55969859D01*
X72148212Y-55972382D01*
X72148208Y-55972383D01*
X72104737Y-55989594D01*
X72099210Y-55991486D01*
X72054312Y-56004530D01*
X72054305Y-56004533D01*
X72036980Y-56014779D01*
X72019510Y-56023337D01*
X72000798Y-56030745D01*
X71962963Y-56058233D01*
X71958080Y-56061440D01*
X71917846Y-56085234D01*
X71903606Y-56099474D01*
X71888820Y-56112102D01*
X71872533Y-56123936D01*
X71872532Y-56123936D01*
X71842727Y-56159963D01*
X71838795Y-56164285D01*
X71256898Y-56746181D01*
X71195575Y-56779666D01*
X71169217Y-56782500D01*
X70833331Y-56782500D01*
X70833312Y-56782501D01*
X70732247Y-56792825D01*
X70568484Y-56847092D01*
X70568481Y-56847093D01*
X70421648Y-56937661D01*
X70299661Y-57059648D01*
X70209093Y-57206481D01*
X70209091Y-57206486D01*
X70183925Y-57282432D01*
X70154826Y-57370247D01*
X70154826Y-57370248D01*
X70154825Y-57370248D01*
X70144500Y-57471315D01*
X70144500Y-57807217D01*
X70124815Y-57874256D01*
X70108181Y-57894898D01*
X69464953Y-58538126D01*
X69452669Y-58547969D01*
X69452849Y-58548187D01*
X69446838Y-58553159D01*
X69399322Y-58603758D01*
X69378375Y-58624705D01*
X69374106Y-58630209D01*
X69370315Y-58634647D01*
X69338308Y-58668730D01*
X69338305Y-58668734D01*
X69328606Y-58686377D01*
X69317928Y-58702633D01*
X69305594Y-58718534D01*
X69305589Y-58718542D01*
X69287025Y-58761443D01*
X69284454Y-58766691D01*
X69261927Y-58807667D01*
X69256920Y-58827168D01*
X69250621Y-58845564D01*
X69245250Y-58857979D01*
X69242625Y-58864044D01*
X69242624Y-58864046D01*
X69235312Y-58910216D01*
X69234127Y-58915938D01*
X69222500Y-58961223D01*
X69222500Y-58981358D01*
X69220973Y-59000757D01*
X69219537Y-59009826D01*
X69217825Y-59020633D01*
X69221205Y-59056388D01*
X69222225Y-59067177D01*
X69222500Y-59073015D01*
X69222500Y-61442034D01*
X69202815Y-61509073D01*
X69190650Y-61525006D01*
X69117466Y-61606285D01*
X69022821Y-61770215D01*
X69022818Y-61770222D01*
X68964327Y-61950240D01*
X68964326Y-61950244D01*
X68944540Y-62138500D01*
X68964326Y-62326756D01*
X68964327Y-62326759D01*
X69022818Y-62506777D01*
X69022821Y-62506784D01*
X69117467Y-62670716D01*
X69203481Y-62766244D01*
X69244129Y-62811388D01*
X69397265Y-62922648D01*
X69397270Y-62922651D01*
X69570192Y-62999642D01*
X69570197Y-62999644D01*
X69755354Y-63039000D01*
X69755355Y-63039000D01*
X69944644Y-63039000D01*
X69944646Y-63039000D01*
X70129803Y-62999644D01*
X70302730Y-62922651D01*
X70455871Y-62811388D01*
X70582533Y-62670716D01*
X70677179Y-62506784D01*
X70735674Y-62326756D01*
X70755460Y-62138500D01*
X70735674Y-61950244D01*
X70677179Y-61770216D01*
X70582533Y-61606284D01*
X70509350Y-61525006D01*
X70479120Y-61462015D01*
X70477500Y-61442034D01*
X70477500Y-60660478D01*
X70497185Y-60593439D01*
X70549989Y-60547684D01*
X70619147Y-60537740D01*
X70640488Y-60542768D01*
X70732247Y-60573174D01*
X70833323Y-60583500D01*
X71406676Y-60583499D01*
X71406684Y-60583498D01*
X71406687Y-60583498D01*
X71462030Y-60577844D01*
X71507753Y-60573174D01*
X71671516Y-60518908D01*
X71818350Y-60428340D01*
X71940340Y-60306350D01*
X71955417Y-60281905D01*
X72007365Y-60235179D01*
X72060957Y-60223000D01*
X72623533Y-60223000D01*
X72639181Y-60224727D01*
X72639208Y-60224446D01*
X72646975Y-60225180D01*
X72646976Y-60225179D01*
X72646977Y-60225180D01*
X72716360Y-60223000D01*
X72745976Y-60223000D01*
X72752878Y-60222127D01*
X72758690Y-60221669D01*
X72805443Y-60220201D01*
X72824772Y-60214584D01*
X72843828Y-60210637D01*
X72863793Y-60208116D01*
X72907270Y-60190901D01*
X72912776Y-60189016D01*
X72957691Y-60175968D01*
X72975015Y-60165721D01*
X72992483Y-60157163D01*
X73011203Y-60149753D01*
X73049042Y-60122259D01*
X73053891Y-60119074D01*
X73094156Y-60095263D01*
X73108397Y-60081020D01*
X73123178Y-60068397D01*
X73139467Y-60056563D01*
X73139469Y-60056559D01*
X73139471Y-60056559D01*
X73152549Y-60040749D01*
X73169276Y-60020528D01*
X73173189Y-60016228D01*
X73867599Y-59321819D01*
X73928923Y-59288334D01*
X73955281Y-59285500D01*
X74470196Y-59285500D01*
X74488631Y-59284049D01*
X74507069Y-59282598D01*
X74507071Y-59282597D01*
X74507073Y-59282597D01*
X74577299Y-59262194D01*
X74664898Y-59236744D01*
X74806365Y-59153081D01*
X74922581Y-59036865D01*
X74948358Y-58993277D01*
X74999425Y-58945594D01*
X75068167Y-58933089D01*
X75132757Y-58959734D01*
X75155406Y-58983509D01*
X75165227Y-58997026D01*
X75168437Y-59001913D01*
X75192234Y-59042152D01*
X75192240Y-59042160D01*
X75206469Y-59056388D01*
X75219109Y-59071187D01*
X75230934Y-59087464D01*
X75230936Y-59087465D01*
X75230937Y-59087467D01*
X75253467Y-59106105D01*
X75266957Y-59117265D01*
X75271268Y-59121187D01*
X75555899Y-59405818D01*
X75802847Y-59652766D01*
X75836332Y-59714089D01*
X75831348Y-59783781D01*
X75789476Y-59839714D01*
X75727767Y-59863805D01*
X75649247Y-59871825D01*
X75485484Y-59926092D01*
X75485481Y-59926093D01*
X75338648Y-60016661D01*
X75216661Y-60138648D01*
X75126093Y-60285481D01*
X75126091Y-60285486D01*
X75098719Y-60368088D01*
X75071826Y-60449247D01*
X75071826Y-60449248D01*
X75071825Y-60449248D01*
X75061500Y-60550315D01*
X75061500Y-61123669D01*
X75061501Y-61123687D01*
X75071825Y-61224752D01*
X75126092Y-61388515D01*
X75126093Y-61388518D01*
X75159102Y-61442034D01*
X75216660Y-61535350D01*
X75338650Y-61657340D01*
X75363095Y-61672418D01*
X75409820Y-61724363D01*
X75422000Y-61777956D01*
X75422000Y-62258034D01*
X75402315Y-62325073D01*
X75390150Y-62341006D01*
X75316966Y-62422285D01*
X75222321Y-62586215D01*
X75222318Y-62586222D01*
X75165785Y-62760214D01*
X75163826Y-62766244D01*
X75144040Y-62954500D01*
X75163826Y-63142756D01*
X75163827Y-63142759D01*
X75222318Y-63322777D01*
X75222321Y-63322784D01*
X75316967Y-63486716D01*
X75443628Y-63627387D01*
X75443629Y-63627388D01*
X75596765Y-63738648D01*
X75596770Y-63738651D01*
X75769692Y-63815642D01*
X75769697Y-63815644D01*
X75954854Y-63855000D01*
X75954855Y-63855000D01*
X76144144Y-63855000D01*
X76144146Y-63855000D01*
X76329303Y-63815644D01*
X76502230Y-63738651D01*
X76655371Y-63627388D01*
X76782033Y-63486716D01*
X76876679Y-63322784D01*
X76935174Y-63142756D01*
X76954960Y-62954500D01*
X76935174Y-62766244D01*
X76876679Y-62586216D01*
X76782033Y-62422284D01*
X76708850Y-62341006D01*
X76678620Y-62278015D01*
X76677000Y-62258034D01*
X76677000Y-61777956D01*
X76696685Y-61710917D01*
X76735903Y-61672418D01*
X76760350Y-61657340D01*
X76874318Y-61543371D01*
X76935642Y-61509886D01*
X77005334Y-61514870D01*
X77049681Y-61543370D01*
X77163650Y-61657340D01*
X77188095Y-61672418D01*
X77234820Y-61724363D01*
X77247000Y-61777956D01*
X77247000Y-65708072D01*
X77227315Y-65775111D01*
X77194124Y-65809647D01*
X77163375Y-65831177D01*
X77007175Y-65987377D01*
X76880466Y-66168338D01*
X76880465Y-66168340D01*
X76787107Y-66368548D01*
X76787104Y-66368554D01*
X76729930Y-66581929D01*
X76729929Y-66581937D01*
X76710677Y-66801997D01*
X76710677Y-66802002D01*
X76729929Y-67022062D01*
X76729930Y-67022070D01*
X76787104Y-67235445D01*
X76787105Y-67235447D01*
X76787106Y-67235450D01*
X76880464Y-67435658D01*
X76880466Y-67435662D01*
X76880468Y-67435666D01*
X77007170Y-67616615D01*
X77007175Y-67616621D01*
X77163378Y-67772824D01*
X77163384Y-67772829D01*
X77344333Y-67899531D01*
X77344335Y-67899532D01*
X77344338Y-67899534D01*
X77544550Y-67992894D01*
X77757932Y-68050070D01*
X77915123Y-68063822D01*
X77977998Y-68069323D01*
X77978000Y-68069323D01*
X77978002Y-68069323D01*
X78033016Y-68064509D01*
X78198068Y-68050070D01*
X78411450Y-67992894D01*
X78611662Y-67899534D01*
X78792620Y-67772826D01*
X78948826Y-67616620D01*
X79075534Y-67435662D01*
X79135617Y-67306811D01*
X79181790Y-67254371D01*
X79248983Y-67235219D01*
X79315865Y-67255435D01*
X79360382Y-67306811D01*
X79420464Y-67435658D01*
X79420468Y-67435666D01*
X79547170Y-67616615D01*
X79547175Y-67616621D01*
X79703378Y-67772824D01*
X79703384Y-67772829D01*
X79884333Y-67899531D01*
X79884335Y-67899532D01*
X79884338Y-67899534D01*
X80084550Y-67992894D01*
X80297932Y-68050070D01*
X80455123Y-68063822D01*
X80517998Y-68069323D01*
X80518000Y-68069323D01*
X80518002Y-68069323D01*
X80573017Y-68064509D01*
X80738068Y-68050070D01*
X80951450Y-67992894D01*
X81151662Y-67899534D01*
X81332620Y-67772826D01*
X81488826Y-67616620D01*
X81615534Y-67435662D01*
X81708894Y-67235450D01*
X81766070Y-67022068D01*
X81785323Y-66802002D01*
X84330677Y-66802002D01*
X84349929Y-67022062D01*
X84349930Y-67022070D01*
X84407104Y-67235445D01*
X84407105Y-67235447D01*
X84407106Y-67235450D01*
X84500464Y-67435658D01*
X84500466Y-67435662D01*
X84500468Y-67435666D01*
X84627170Y-67616615D01*
X84627175Y-67616621D01*
X84783378Y-67772824D01*
X84783384Y-67772829D01*
X84964333Y-67899531D01*
X84964335Y-67899532D01*
X84964338Y-67899534D01*
X85164550Y-67992894D01*
X85377932Y-68050070D01*
X85535123Y-68063822D01*
X85597998Y-68069323D01*
X85598000Y-68069323D01*
X85598002Y-68069323D01*
X85653016Y-68064509D01*
X85818068Y-68050070D01*
X86031450Y-67992894D01*
X86231662Y-67899534D01*
X86412620Y-67772826D01*
X86568826Y-67616620D01*
X86695534Y-67435662D01*
X86755617Y-67306811D01*
X86801790Y-67254371D01*
X86868983Y-67235219D01*
X86935865Y-67255435D01*
X86980382Y-67306811D01*
X87040464Y-67435658D01*
X87040468Y-67435666D01*
X87167170Y-67616615D01*
X87167175Y-67616621D01*
X87323378Y-67772824D01*
X87323384Y-67772829D01*
X87504333Y-67899531D01*
X87504335Y-67899532D01*
X87504338Y-67899534D01*
X87704550Y-67992894D01*
X87917932Y-68050070D01*
X88075123Y-68063822D01*
X88137998Y-68069323D01*
X88138000Y-68069323D01*
X88138002Y-68069323D01*
X88193016Y-68064509D01*
X88358068Y-68050070D01*
X88571450Y-67992894D01*
X88771662Y-67899534D01*
X88952620Y-67772826D01*
X89108826Y-67616620D01*
X89235534Y-67435662D01*
X89328894Y-67235450D01*
X89386070Y-67022068D01*
X89405323Y-66802000D01*
X89386070Y-66581932D01*
X89328894Y-66368550D01*
X89235534Y-66168339D01*
X89155955Y-66054688D01*
X89108827Y-65987381D01*
X89066459Y-65945013D01*
X88952620Y-65831174D01*
X88816376Y-65735775D01*
X88772752Y-65681198D01*
X88772549Y-65680169D01*
X93004500Y-65680169D01*
X93004501Y-65680187D01*
X93014825Y-65781252D01*
X93069092Y-65945015D01*
X93069093Y-65945018D01*
X93095220Y-65987377D01*
X93159660Y-66091850D01*
X93281650Y-66213840D01*
X93428484Y-66304408D01*
X93592247Y-66358674D01*
X93693323Y-66369000D01*
X94266676Y-66368999D01*
X94266684Y-66368998D01*
X94266687Y-66368998D01*
X94322030Y-66363344D01*
X94367753Y-66358674D01*
X94531516Y-66304408D01*
X94678350Y-66213840D01*
X94800340Y-66091850D01*
X94890908Y-65945016D01*
X94945174Y-65781253D01*
X94955500Y-65680177D01*
X94955499Y-64981824D01*
X94945174Y-64880747D01*
X94890908Y-64716984D01*
X94800340Y-64570150D01*
X94678350Y-64448160D01*
X94678349Y-64448159D01*
X94664401Y-64439556D01*
X94617677Y-64387608D01*
X94605500Y-64334022D01*
X94605500Y-63690686D01*
X94625185Y-63623647D01*
X94637350Y-63607715D01*
X94655891Y-63587122D01*
X94712533Y-63524216D01*
X94807179Y-63360284D01*
X94865674Y-63180256D01*
X94885460Y-62992000D01*
X94865674Y-62803744D01*
X94807179Y-62623716D01*
X94712533Y-62459784D01*
X94585871Y-62319112D01*
X94529306Y-62278015D01*
X94432734Y-62207851D01*
X94432729Y-62207848D01*
X94259807Y-62130857D01*
X94259802Y-62130855D01*
X94106732Y-62098320D01*
X94074646Y-62091500D01*
X93885354Y-62091500D01*
X93853268Y-62098320D01*
X93700197Y-62130855D01*
X93700192Y-62130857D01*
X93527270Y-62207848D01*
X93527265Y-62207851D01*
X93374129Y-62319111D01*
X93247466Y-62459785D01*
X93152821Y-62623715D01*
X93152818Y-62623722D01*
X93098347Y-62791369D01*
X93094326Y-62803744D01*
X93074540Y-62992000D01*
X93094326Y-63180256D01*
X93094327Y-63180259D01*
X93152818Y-63360277D01*
X93152821Y-63360284D01*
X93247467Y-63524216D01*
X93276493Y-63556452D01*
X93322650Y-63607715D01*
X93352880Y-63670706D01*
X93354500Y-63690687D01*
X93354500Y-64334018D01*
X93334815Y-64401057D01*
X93295600Y-64439555D01*
X93281650Y-64448160D01*
X93281649Y-64448160D01*
X93159661Y-64570148D01*
X93069093Y-64716981D01*
X93069091Y-64716984D01*
X93069092Y-64716984D01*
X93014826Y-64880747D01*
X93014826Y-64880748D01*
X93014825Y-64880748D01*
X93004500Y-64981815D01*
X93004500Y-65680169D01*
X88772549Y-65680169D01*
X88763500Y-65634200D01*
X88763500Y-63556452D01*
X88783185Y-63489413D01*
X88799819Y-63468771D01*
X90371772Y-61896819D01*
X90433095Y-61863334D01*
X90459453Y-61860500D01*
X90518644Y-61860500D01*
X90518646Y-61860500D01*
X90703803Y-61821144D01*
X90876730Y-61744151D01*
X91029871Y-61632888D01*
X91156533Y-61492216D01*
X91251179Y-61328284D01*
X91309674Y-61148256D01*
X91329460Y-60960000D01*
X91309674Y-60771744D01*
X91251179Y-60591716D01*
X91156533Y-60427784D01*
X91029871Y-60287112D01*
X91027633Y-60285486D01*
X90876734Y-60175851D01*
X90876729Y-60175848D01*
X90703807Y-60098857D01*
X90703802Y-60098855D01*
X90558000Y-60067865D01*
X90518646Y-60059500D01*
X90329354Y-60059500D01*
X90296897Y-60066398D01*
X90144197Y-60098855D01*
X90144192Y-60098857D01*
X89971270Y-60175848D01*
X89971265Y-60175851D01*
X89818129Y-60287111D01*
X89691466Y-60427785D01*
X89596821Y-60591715D01*
X89596818Y-60591722D01*
X89556317Y-60716373D01*
X89538326Y-60771744D01*
X89526872Y-60880728D01*
X89520679Y-60939649D01*
X89494094Y-61004263D01*
X89485039Y-61014368D01*
X87754208Y-62745199D01*
X87741951Y-62755020D01*
X87742134Y-62755241D01*
X87736123Y-62760213D01*
X87688772Y-62810636D01*
X87667889Y-62831519D01*
X87667877Y-62831532D01*
X87663621Y-62837017D01*
X87659837Y-62841447D01*
X87627937Y-62875418D01*
X87627936Y-62875420D01*
X87618284Y-62892976D01*
X87607610Y-62909226D01*
X87595329Y-62925061D01*
X87595324Y-62925068D01*
X87576815Y-62967838D01*
X87574245Y-62973084D01*
X87551803Y-63013906D01*
X87546822Y-63033307D01*
X87540521Y-63051710D01*
X87532562Y-63070102D01*
X87532561Y-63070105D01*
X87525271Y-63116127D01*
X87524087Y-63121846D01*
X87512501Y-63166972D01*
X87512500Y-63166982D01*
X87512500Y-63187016D01*
X87510973Y-63206415D01*
X87508262Y-63223534D01*
X87507840Y-63226196D01*
X87511183Y-63261559D01*
X87512225Y-63272583D01*
X87512500Y-63278421D01*
X87512500Y-65634201D01*
X87492815Y-65701240D01*
X87459623Y-65735776D01*
X87323377Y-65831175D01*
X87167175Y-65987377D01*
X87040466Y-66168338D01*
X87040465Y-66168340D01*
X86980382Y-66297189D01*
X86934209Y-66349628D01*
X86867016Y-66368780D01*
X86800135Y-66348564D01*
X86755618Y-66297189D01*
X86716751Y-66213840D01*
X86695534Y-66168339D01*
X86615955Y-66054688D01*
X86568827Y-65987381D01*
X86526459Y-65945013D01*
X86412620Y-65831174D01*
X86412616Y-65831171D01*
X86412615Y-65831170D01*
X86231666Y-65704468D01*
X86231662Y-65704466D01*
X86179574Y-65680177D01*
X86031450Y-65611106D01*
X86031447Y-65611105D01*
X86031445Y-65611104D01*
X85818070Y-65553930D01*
X85818062Y-65553929D01*
X85598002Y-65534677D01*
X85597998Y-65534677D01*
X85377937Y-65553929D01*
X85377929Y-65553930D01*
X85164554Y-65611104D01*
X85164548Y-65611107D01*
X84964340Y-65704465D01*
X84964338Y-65704466D01*
X84783377Y-65831175D01*
X84627175Y-65987377D01*
X84500466Y-66168338D01*
X84500465Y-66168340D01*
X84407107Y-66368548D01*
X84407104Y-66368554D01*
X84349930Y-66581929D01*
X84349929Y-66581937D01*
X84330677Y-66801997D01*
X84330677Y-66802002D01*
X81785323Y-66802002D01*
X81785323Y-66802000D01*
X81766070Y-66581932D01*
X81753540Y-66535170D01*
X81755201Y-66465321D01*
X81782926Y-66418187D01*
X81790184Y-66410460D01*
X81799835Y-66392902D01*
X81810518Y-66376639D01*
X81822795Y-66360814D01*
X81841307Y-66318031D01*
X81843860Y-66312819D01*
X81866319Y-66271970D01*
X81871302Y-66252558D01*
X81877603Y-66234158D01*
X81885559Y-66215774D01*
X81892851Y-66169730D01*
X81894028Y-66164049D01*
X81905622Y-66118897D01*
X81905622Y-66098860D01*
X81907149Y-66079460D01*
X81910282Y-66059682D01*
X81905897Y-66013293D01*
X81905622Y-66007455D01*
X81905622Y-63008792D01*
X81908458Y-62999130D01*
X81907645Y-62997514D01*
X81905622Y-62975207D01*
X81905622Y-61779191D01*
X81925307Y-61712152D01*
X81964526Y-61673652D01*
X81967221Y-61671989D01*
X81990972Y-61657340D01*
X82104941Y-61543371D01*
X82166264Y-61509886D01*
X82235956Y-61514870D01*
X82280302Y-61543371D01*
X82394272Y-61657340D01*
X82418717Y-61672418D01*
X82465442Y-61724363D01*
X82477622Y-61777956D01*
X82477622Y-62243199D01*
X82457937Y-62310238D01*
X82445772Y-62326171D01*
X82325466Y-62459785D01*
X82230821Y-62623715D01*
X82230818Y-62623722D01*
X82176347Y-62791369D01*
X82172326Y-62803744D01*
X82154528Y-62973084D01*
X82152943Y-62988169D01*
X82151919Y-62990655D01*
X82152942Y-62995827D01*
X82172326Y-63180256D01*
X82172327Y-63180259D01*
X82230818Y-63360277D01*
X82230821Y-63360284D01*
X82325467Y-63524216D01*
X82414996Y-63623648D01*
X82452129Y-63664888D01*
X82605265Y-63776148D01*
X82605270Y-63776151D01*
X82778192Y-63853142D01*
X82778197Y-63853144D01*
X82963354Y-63892500D01*
X82963355Y-63892500D01*
X83152644Y-63892500D01*
X83152646Y-63892500D01*
X83337803Y-63853144D01*
X83510730Y-63776151D01*
X83663871Y-63664888D01*
X83790533Y-63524216D01*
X83885179Y-63360284D01*
X83943674Y-63180256D01*
X83955841Y-63064488D01*
X83982426Y-62999875D01*
X84039723Y-62959890D01*
X84079162Y-62953451D01*
X84083095Y-62953451D01*
X84083097Y-62953451D01*
X84268254Y-62914095D01*
X84441181Y-62837102D01*
X84594322Y-62725839D01*
X84720984Y-62585167D01*
X84815630Y-62421235D01*
X84874125Y-62241207D01*
X84891440Y-62076456D01*
X84918023Y-62011845D01*
X84927070Y-62001749D01*
X85221043Y-61707776D01*
X85233325Y-61697939D01*
X85233144Y-61697720D01*
X85239156Y-61692745D01*
X85239162Y-61692742D01*
X85262173Y-61668237D01*
X85286678Y-61642143D01*
X85361865Y-61566958D01*
X85361898Y-61566921D01*
X87325049Y-59603770D01*
X87386370Y-59570287D01*
X87406432Y-59567613D01*
X87408662Y-59567499D01*
X87408676Y-59567499D01*
X87509753Y-59557174D01*
X87673516Y-59502908D01*
X87820350Y-59412340D01*
X87942340Y-59290350D01*
X88032908Y-59143516D01*
X88087174Y-58979753D01*
X88097500Y-58878677D01*
X88097499Y-58280324D01*
X88096373Y-58269304D01*
X88087174Y-58179247D01*
X88074368Y-58140602D01*
X88032908Y-58015484D01*
X87942340Y-57868650D01*
X87828370Y-57754680D01*
X87794886Y-57693357D01*
X87799870Y-57623665D01*
X87828367Y-57579322D01*
X87942340Y-57465350D01*
X88032908Y-57318516D01*
X88087174Y-57154753D01*
X88097500Y-57053677D01*
X88097499Y-56605279D01*
X88117183Y-56538241D01*
X88133813Y-56517604D01*
X88615599Y-56035819D01*
X88676923Y-56002334D01*
X88703281Y-55999500D01*
X98896719Y-55999500D01*
X98963758Y-56019185D01*
X99009513Y-56071989D01*
X99019457Y-56141147D01*
X98990432Y-56204703D01*
X98984400Y-56211181D01*
X98425564Y-56770015D01*
X98364241Y-56803500D01*
X98305791Y-56802109D01*
X98264073Y-56790931D01*
X98264070Y-56790930D01*
X98264068Y-56790930D01*
X98135317Y-56779666D01*
X98044002Y-56771677D01*
X98043998Y-56771677D01*
X97823937Y-56790929D01*
X97823929Y-56790930D01*
X97610554Y-56848104D01*
X97610548Y-56848107D01*
X97410340Y-56941465D01*
X97410338Y-56941466D01*
X97229377Y-57068175D01*
X97073175Y-57224377D01*
X96946466Y-57405338D01*
X96946465Y-57405340D01*
X96853107Y-57605548D01*
X96853104Y-57605554D01*
X96795930Y-57818929D01*
X96795929Y-57818937D01*
X96776677Y-58038997D01*
X96776677Y-58039002D01*
X96795929Y-58259062D01*
X96795930Y-58259070D01*
X96853104Y-58472445D01*
X96853105Y-58472447D01*
X96853106Y-58472450D01*
X96924786Y-58626169D01*
X96946466Y-58672662D01*
X96946468Y-58672666D01*
X97073170Y-58853615D01*
X97073175Y-58853621D01*
X97229378Y-59009824D01*
X97229384Y-59009829D01*
X97410333Y-59136531D01*
X97410335Y-59136532D01*
X97410338Y-59136534D01*
X97610550Y-59229894D01*
X97823932Y-59287070D01*
X97981123Y-59300822D01*
X98043998Y-59306323D01*
X98044000Y-59306323D01*
X98044002Y-59306323D01*
X98099016Y-59301509D01*
X98264068Y-59287070D01*
X98477450Y-59229894D01*
X98677662Y-59136534D01*
X98858620Y-59009826D01*
X99014826Y-58853620D01*
X99141534Y-58672662D01*
X99234894Y-58472450D01*
X99292070Y-58259068D01*
X99311323Y-58039000D01*
X99311270Y-58038397D01*
X99298716Y-57894898D01*
X99292070Y-57818932D01*
X99280889Y-57777207D01*
X99282553Y-57707357D01*
X99312982Y-57657435D01*
X100172599Y-56797819D01*
X100233923Y-56764334D01*
X100260281Y-56761500D01*
X102354079Y-56761500D01*
X102421118Y-56781185D01*
X102466873Y-56833989D01*
X102476817Y-56903147D01*
X102447792Y-56966703D01*
X102425202Y-56987075D01*
X102309377Y-57068175D01*
X102153175Y-57224377D01*
X102026466Y-57405338D01*
X102026465Y-57405340D01*
X101933107Y-57605548D01*
X101933104Y-57605554D01*
X101875930Y-57818929D01*
X101875929Y-57818937D01*
X101856677Y-58038997D01*
X101856677Y-58039002D01*
X101875929Y-58259062D01*
X101875930Y-58259070D01*
X101933104Y-58472445D01*
X101933105Y-58472447D01*
X101933106Y-58472450D01*
X102004786Y-58626169D01*
X102026466Y-58672662D01*
X102026468Y-58672666D01*
X102153170Y-58853615D01*
X102153175Y-58853621D01*
X102309378Y-59009824D01*
X102309384Y-59009829D01*
X102490333Y-59136531D01*
X102490335Y-59136532D01*
X102490338Y-59136534D01*
X102690550Y-59229894D01*
X102903932Y-59287070D01*
X103061123Y-59300822D01*
X103123998Y-59306323D01*
X103124000Y-59306323D01*
X103124002Y-59306323D01*
X103179017Y-59301509D01*
X103344068Y-59287070D01*
X103557450Y-59229894D01*
X103757662Y-59136534D01*
X103938620Y-59009826D01*
X104094826Y-58853620D01*
X104221534Y-58672662D01*
X104314894Y-58472450D01*
X104372070Y-58259068D01*
X104391323Y-58039000D01*
X104391270Y-58038397D01*
X104378716Y-57894898D01*
X104372070Y-57818932D01*
X104314894Y-57605550D01*
X104221534Y-57405339D01*
X104135474Y-57282432D01*
X104094827Y-57224381D01*
X104023790Y-57153344D01*
X103938620Y-57068174D01*
X103938616Y-57068171D01*
X103938615Y-57068170D01*
X103822799Y-56987075D01*
X103779174Y-56932498D01*
X103771980Y-56863000D01*
X103803503Y-56800645D01*
X103863733Y-56765231D01*
X103893922Y-56761500D01*
X106088501Y-56761500D01*
X106155540Y-56781185D01*
X106201295Y-56833989D01*
X106212501Y-56885500D01*
X106212501Y-56890686D01*
X106222825Y-56991752D01*
X106248150Y-57068175D01*
X106276372Y-57153344D01*
X106277092Y-57155515D01*
X106277093Y-57155518D01*
X106306297Y-57202865D01*
X106367660Y-57302350D01*
X106489650Y-57424340D01*
X106636484Y-57514908D01*
X106800247Y-57569174D01*
X106901323Y-57579500D01*
X107474676Y-57579499D01*
X107474684Y-57579498D01*
X107474687Y-57579498D01*
X107530030Y-57573844D01*
X107575753Y-57569174D01*
X107739516Y-57514908D01*
X107739522Y-57514903D01*
X107746061Y-57511856D01*
X107746683Y-57513191D01*
X107806191Y-57496905D01*
X107872856Y-57517824D01*
X107891584Y-57533203D01*
X109025981Y-58667600D01*
X109059466Y-58728923D01*
X109062300Y-58755281D01*
X109062300Y-60938448D01*
X109077604Y-61152433D01*
X109138428Y-61432037D01*
X109138430Y-61432043D01*
X109138431Y-61432046D01*
X109235666Y-61692742D01*
X109238435Y-61700166D01*
X109375570Y-61951309D01*
X109375575Y-61951317D01*
X109484650Y-62097024D01*
X109509067Y-62162488D01*
X109494215Y-62230761D01*
X109473064Y-62259015D01*
X107036903Y-64695177D01*
X107036902Y-64695178D01*
X100513900Y-71218181D01*
X100452577Y-71251666D01*
X100426219Y-71254500D01*
X50716281Y-71254500D01*
X50649242Y-71234815D01*
X50628600Y-71218181D01*
X49434818Y-70024399D01*
X49401333Y-69963076D01*
X49398499Y-69936718D01*
X49398499Y-69563330D01*
X49398498Y-69563313D01*
X49388174Y-69462247D01*
X49381191Y-69441173D01*
X49333908Y-69298484D01*
X49243340Y-69151650D01*
X49121350Y-69029660D01*
X48974516Y-68939092D01*
X48810753Y-68884826D01*
X48810751Y-68884825D01*
X48709678Y-68874500D01*
X48036330Y-68874500D01*
X48036312Y-68874501D01*
X47935247Y-68884825D01*
X47771484Y-68939092D01*
X47771481Y-68939093D01*
X47624648Y-69029661D01*
X47585681Y-69068629D01*
X47524358Y-69102114D01*
X47454666Y-69097130D01*
X47410319Y-69068629D01*
X47371351Y-69029661D01*
X47371350Y-69029661D01*
X47371350Y-69029660D01*
X47224516Y-68939092D01*
X47060753Y-68884826D01*
X47060751Y-68884825D01*
X46959678Y-68874500D01*
X46286330Y-68874500D01*
X46286312Y-68874501D01*
X46185247Y-68884825D01*
X46021484Y-68939092D01*
X46021481Y-68939093D01*
X45874648Y-69029661D01*
X45752661Y-69151648D01*
X45752659Y-69151650D01*
X45752660Y-69151650D01*
X45745291Y-69163596D01*
X45693346Y-69210320D01*
X45639753Y-69222500D01*
X45188747Y-69222500D01*
X45121708Y-69202815D01*
X45083209Y-69163597D01*
X45075840Y-69151650D01*
X44953850Y-69029660D01*
X44807016Y-68939092D01*
X44643253Y-68884826D01*
X44643251Y-68884825D01*
X44542178Y-68874500D01*
X43943830Y-68874500D01*
X43943812Y-68874501D01*
X43842747Y-68884825D01*
X43678984Y-68939092D01*
X43678981Y-68939093D01*
X43532148Y-69029661D01*
X43410161Y-69151648D01*
X43319593Y-69298481D01*
X43319591Y-69298484D01*
X43319592Y-69298484D01*
X43265326Y-69462247D01*
X43265326Y-69462248D01*
X43265325Y-69462248D01*
X43255000Y-69563315D01*
X43255000Y-70136669D01*
X32342513Y-70136669D01*
X32366201Y-70032885D01*
X32415521Y-69639325D01*
X32425062Y-69256732D01*
X32425409Y-69242826D01*
X32425409Y-69242810D01*
X32418578Y-69151650D01*
X32395769Y-68847280D01*
X32326893Y-68456668D01*
X32277419Y-68280829D01*
X32233469Y-68124620D01*
X32219467Y-68074854D01*
X32217296Y-68069323D01*
X32074564Y-67705646D01*
X32074559Y-67705634D01*
X31893613Y-67352685D01*
X31893609Y-67352677D01*
X31678414Y-67019491D01*
X31431114Y-66709386D01*
X31431111Y-66709383D01*
X31431104Y-66709374D01*
X31305504Y-66580603D01*
X43142000Y-66580603D01*
X43142001Y-66580621D01*
X43152325Y-66681686D01*
X43206592Y-66845449D01*
X43206593Y-66845452D01*
X43240895Y-66901063D01*
X43297160Y-66992284D01*
X43419150Y-67114274D01*
X43565984Y-67204842D01*
X43729747Y-67259108D01*
X43830823Y-67269434D01*
X44429176Y-67269433D01*
X44429184Y-67269432D01*
X44429187Y-67269432D01*
X44484530Y-67263778D01*
X44530253Y-67259108D01*
X44694016Y-67204842D01*
X44840850Y-67114274D01*
X44962840Y-66992284D01*
X44970168Y-66980402D01*
X45022117Y-66933678D01*
X45075707Y-66921500D01*
X45526753Y-66921500D01*
X45593792Y-66941185D01*
X45632290Y-66980402D01*
X45639660Y-66992350D01*
X45761650Y-67114340D01*
X45908484Y-67204908D01*
X46072247Y-67259174D01*
X46173323Y-67269500D01*
X46846676Y-67269499D01*
X46846684Y-67269498D01*
X46846687Y-67269498D01*
X46902030Y-67263844D01*
X46947753Y-67259174D01*
X47111516Y-67204908D01*
X47258350Y-67114340D01*
X47297320Y-67075369D01*
X47358638Y-67041885D01*
X47428330Y-67046868D01*
X47472680Y-67075370D01*
X47511650Y-67114340D01*
X47658484Y-67204908D01*
X47822247Y-67259174D01*
X47923323Y-67269500D01*
X48596676Y-67269499D01*
X48596684Y-67269498D01*
X48596687Y-67269498D01*
X48652030Y-67263844D01*
X48697753Y-67259174D01*
X48861516Y-67204908D01*
X49008350Y-67114340D01*
X49130340Y-66992350D01*
X49220908Y-66845516D01*
X49275174Y-66681753D01*
X49285500Y-66580677D01*
X49285499Y-66207279D01*
X49305183Y-66140241D01*
X49321813Y-66119604D01*
X56665599Y-58775819D01*
X56726923Y-58742334D01*
X56753281Y-58739500D01*
X56809644Y-58739500D01*
X56809646Y-58739500D01*
X56994803Y-58700144D01*
X57167730Y-58623151D01*
X57320871Y-58511888D01*
X57447533Y-58371216D01*
X57542179Y-58207284D01*
X57600674Y-58027256D01*
X57620460Y-57839000D01*
X57600674Y-57650744D01*
X57542179Y-57470716D01*
X57447533Y-57306784D01*
X57320871Y-57166112D01*
X57306287Y-57155516D01*
X57167734Y-57054851D01*
X57167729Y-57054848D01*
X56994807Y-56977857D01*
X56994802Y-56977855D01*
X56849001Y-56946865D01*
X56809646Y-56938500D01*
X56807907Y-56938500D01*
X56806937Y-56938215D01*
X56803178Y-56937820D01*
X56803250Y-56937132D01*
X56740868Y-56918815D01*
X56695113Y-56866011D01*
X56685169Y-56796853D01*
X56714194Y-56733297D01*
X56757471Y-56701221D01*
X56812994Y-56676500D01*
X56840730Y-56664151D01*
X56993871Y-56552888D01*
X57120533Y-56412216D01*
X57215179Y-56248284D01*
X57273674Y-56068256D01*
X57293460Y-55880000D01*
X57273674Y-55691744D01*
X57215179Y-55511716D01*
X57120533Y-55347784D01*
X56993871Y-55207112D01*
X56993870Y-55207111D01*
X56840734Y-55095851D01*
X56840729Y-55095848D01*
X56667807Y-55018857D01*
X56667802Y-55018855D01*
X56522001Y-54987865D01*
X56482646Y-54979500D01*
X56293354Y-54979500D01*
X56260897Y-54986398D01*
X56108197Y-55018855D01*
X56108192Y-55018857D01*
X55935270Y-55095848D01*
X55935265Y-55095851D01*
X55782129Y-55207111D01*
X55655466Y-55347785D01*
X55560821Y-55511715D01*
X55560818Y-55511722D01*
X55507481Y-55675879D01*
X55502326Y-55691744D01*
X55492272Y-55787402D01*
X55485011Y-55856489D01*
X55458426Y-55921103D01*
X55449371Y-55931208D01*
X49321570Y-62059010D01*
X49260247Y-62092495D01*
X49190555Y-62087511D01*
X49134622Y-62045639D01*
X49131817Y-62041518D01*
X49130339Y-62039649D01*
X49008351Y-61917661D01*
X49008351Y-61917660D01*
X49008350Y-61917660D01*
X48861516Y-61827092D01*
X48697753Y-61772826D01*
X48697751Y-61772825D01*
X48596678Y-61762500D01*
X47923330Y-61762500D01*
X47923312Y-61762501D01*
X47822247Y-61772825D01*
X47658484Y-61827092D01*
X47658481Y-61827093D01*
X47511648Y-61917661D01*
X47472681Y-61956629D01*
X47411358Y-61990114D01*
X47341666Y-61985130D01*
X47297319Y-61956629D01*
X47258351Y-61917661D01*
X47258350Y-61917660D01*
X47111516Y-61827092D01*
X46947753Y-61772826D01*
X46947751Y-61772825D01*
X46846678Y-61762500D01*
X46173330Y-61762500D01*
X46173312Y-61762501D01*
X46072247Y-61772825D01*
X45908484Y-61827092D01*
X45908481Y-61827093D01*
X45761648Y-61917661D01*
X45639661Y-62039648D01*
X45639659Y-62039650D01*
X45639660Y-62039650D01*
X45632291Y-62051596D01*
X45580346Y-62098320D01*
X45526753Y-62110500D01*
X45075747Y-62110500D01*
X45008708Y-62090815D01*
X44970209Y-62051597D01*
X44962840Y-62039650D01*
X44840850Y-61917660D01*
X44694016Y-61827092D01*
X44530253Y-61772826D01*
X44530251Y-61772825D01*
X44429178Y-61762500D01*
X43830830Y-61762500D01*
X43830812Y-61762501D01*
X43729747Y-61772825D01*
X43565984Y-61827092D01*
X43565981Y-61827093D01*
X43419148Y-61917661D01*
X43297161Y-62039648D01*
X43206593Y-62186481D01*
X43206591Y-62186486D01*
X43182557Y-62259015D01*
X43152326Y-62350247D01*
X43152326Y-62350248D01*
X43152325Y-62350248D01*
X43142000Y-62451315D01*
X43142000Y-63024669D01*
X43142001Y-63024687D01*
X43152325Y-63125752D01*
X43179055Y-63206415D01*
X43202915Y-63278421D01*
X43206592Y-63289515D01*
X43206593Y-63289518D01*
X43227112Y-63322784D01*
X43297160Y-63436350D01*
X43419150Y-63558340D01*
X43565984Y-63648908D01*
X43729747Y-63703174D01*
X43830823Y-63713500D01*
X44429176Y-63713499D01*
X44429184Y-63713498D01*
X44429187Y-63713498D01*
X44484530Y-63707844D01*
X44530253Y-63703174D01*
X44694016Y-63648908D01*
X44840850Y-63558340D01*
X44962840Y-63436350D01*
X44970208Y-63424403D01*
X45022154Y-63377680D01*
X45075747Y-63365500D01*
X45526753Y-63365500D01*
X45593792Y-63385185D01*
X45632290Y-63424402D01*
X45639660Y-63436350D01*
X45761650Y-63558340D01*
X45908484Y-63648908D01*
X46072247Y-63703174D01*
X46173323Y-63713500D01*
X46846676Y-63713499D01*
X46846684Y-63713498D01*
X46846687Y-63713498D01*
X46902030Y-63707844D01*
X46947753Y-63703174D01*
X47111516Y-63648908D01*
X47258350Y-63558340D01*
X47297319Y-63519370D01*
X47358642Y-63485886D01*
X47428334Y-63490870D01*
X47472681Y-63519370D01*
X47511650Y-63558340D01*
X47658484Y-63648908D01*
X47822247Y-63703174D01*
X47923323Y-63713500D01*
X48596676Y-63713499D01*
X48596684Y-63713498D01*
X48596687Y-63713498D01*
X48652030Y-63707844D01*
X48697753Y-63703174D01*
X48861516Y-63648908D01*
X49008350Y-63558340D01*
X49130340Y-63436350D01*
X49137708Y-63424403D01*
X49189654Y-63377680D01*
X49243247Y-63365500D01*
X49447033Y-63365500D01*
X49462681Y-63367227D01*
X49462708Y-63366946D01*
X49470475Y-63367680D01*
X49470476Y-63367679D01*
X49470477Y-63367680D01*
X49539860Y-63365500D01*
X49569476Y-63365500D01*
X49576378Y-63364627D01*
X49582190Y-63364169D01*
X49628943Y-63362701D01*
X49648272Y-63357084D01*
X49667328Y-63353137D01*
X49687293Y-63350616D01*
X49730770Y-63333401D01*
X49736276Y-63331516D01*
X49781191Y-63318468D01*
X49798515Y-63308221D01*
X49815983Y-63299663D01*
X49834703Y-63292253D01*
X49872542Y-63264759D01*
X49877391Y-63261574D01*
X49917656Y-63237763D01*
X49931897Y-63223520D01*
X49946678Y-63210897D01*
X49962967Y-63199063D01*
X49962969Y-63199059D01*
X49962971Y-63199059D01*
X49974845Y-63184703D01*
X49992776Y-63163028D01*
X49996689Y-63158728D01*
X55620954Y-57534463D01*
X55682276Y-57500980D01*
X55751968Y-57505964D01*
X55807901Y-57547836D01*
X55832318Y-57613300D01*
X55829927Y-57647914D01*
X55829327Y-57650734D01*
X55812011Y-57815488D01*
X55785426Y-57880102D01*
X55776371Y-57890207D01*
X48384398Y-65282181D01*
X48323075Y-65315666D01*
X48296717Y-65318500D01*
X47923330Y-65318500D01*
X47923312Y-65318501D01*
X47822247Y-65328825D01*
X47658484Y-65383092D01*
X47658481Y-65383093D01*
X47511648Y-65473661D01*
X47472681Y-65512629D01*
X47411358Y-65546114D01*
X47341666Y-65541130D01*
X47297319Y-65512629D01*
X47258351Y-65473661D01*
X47258350Y-65473660D01*
X47151561Y-65407792D01*
X47111518Y-65383093D01*
X47111513Y-65383091D01*
X47110069Y-65382612D01*
X46947753Y-65328826D01*
X46947751Y-65328825D01*
X46846678Y-65318500D01*
X46173330Y-65318500D01*
X46173312Y-65318501D01*
X46072247Y-65328825D01*
X45908484Y-65383092D01*
X45908481Y-65383093D01*
X45761648Y-65473661D01*
X45639661Y-65595648D01*
X45639659Y-65595650D01*
X45639660Y-65595650D01*
X45632291Y-65607596D01*
X45580346Y-65654320D01*
X45526753Y-65666500D01*
X45075788Y-65666500D01*
X45008749Y-65646815D01*
X44970249Y-65607596D01*
X44962840Y-65595584D01*
X44840851Y-65473595D01*
X44840850Y-65473594D01*
X44734168Y-65407792D01*
X44694018Y-65383027D01*
X44694013Y-65383025D01*
X44649576Y-65368300D01*
X44530253Y-65328760D01*
X44530251Y-65328759D01*
X44429178Y-65318434D01*
X43830830Y-65318434D01*
X43830812Y-65318435D01*
X43729747Y-65328759D01*
X43565984Y-65383026D01*
X43565981Y-65383027D01*
X43419148Y-65473595D01*
X43297161Y-65595582D01*
X43206593Y-65742415D01*
X43206591Y-65742420D01*
X43193723Y-65781253D01*
X43152326Y-65906181D01*
X43152326Y-65906182D01*
X43152325Y-65906182D01*
X43142000Y-66007249D01*
X43142000Y-66580603D01*
X31305504Y-66580603D01*
X31154176Y-66425455D01*
X31154173Y-66425452D01*
X31154172Y-66425451D01*
X31154167Y-66425446D01*
X30850324Y-66170492D01*
X30774644Y-66118894D01*
X30522605Y-65947057D01*
X30406493Y-65883826D01*
X30174270Y-65757364D01*
X30174262Y-65757360D01*
X30174259Y-65757359D01*
X29808777Y-65603296D01*
X29808761Y-65603290D01*
X29429764Y-65486385D01*
X29429751Y-65486382D01*
X29041000Y-65407794D01*
X29040979Y-65407791D01*
X28646320Y-65368300D01*
X28646319Y-65368300D01*
X28348899Y-65368300D01*
X28348897Y-65368300D01*
X28051855Y-65383124D01*
X27659647Y-65442241D01*
X27275272Y-65540114D01*
X26902549Y-65675774D01*
X26545191Y-65847869D01*
X26206753Y-66054684D01*
X26206742Y-66054692D01*
X25890575Y-66294180D01*
X25890572Y-66294182D01*
X25599813Y-66563968D01*
X25337365Y-66861359D01*
X25105839Y-67183393D01*
X25105826Y-67183413D01*
X24907516Y-67526896D01*
X24744382Y-67888437D01*
X24618059Y-68264419D01*
X24529799Y-68651111D01*
X24480478Y-69044681D01*
X24470590Y-69441173D01*
X24470590Y-69441187D01*
X23917249Y-69441187D01*
X23894870Y-69261654D01*
X23894456Y-69256732D01*
X23885487Y-69051298D01*
X23876500Y-68834000D01*
X23876500Y-68833500D01*
X23876500Y-57633000D01*
X30758857Y-57633000D01*
X30779384Y-57854535D01*
X30779385Y-57854537D01*
X30840269Y-58068523D01*
X30840275Y-58068538D01*
X30939438Y-58267683D01*
X30939443Y-58267691D01*
X31073520Y-58445238D01*
X31237937Y-58595123D01*
X31237939Y-58595125D01*
X31427095Y-58712245D01*
X31427096Y-58712245D01*
X31427099Y-58712247D01*
X31634560Y-58792618D01*
X31853257Y-58833500D01*
X31853259Y-58833500D01*
X32075741Y-58833500D01*
X32075743Y-58833500D01*
X32294440Y-58792618D01*
X32501901Y-58712247D01*
X32691062Y-58595124D01*
X32855481Y-58445236D01*
X32932464Y-58343293D01*
X32988571Y-58301658D01*
X33058283Y-58296966D01*
X33119465Y-58330708D01*
X33136114Y-58351578D01*
X33227555Y-58495667D01*
X33428106Y-58738090D01*
X33428108Y-58738092D01*
X33428110Y-58738094D01*
X33649075Y-58945594D01*
X33657468Y-58953476D01*
X33657478Y-58953484D01*
X33912004Y-59138408D01*
X33912009Y-59138410D01*
X33912016Y-59138416D01*
X34187734Y-59289994D01*
X34187739Y-59289996D01*
X34187741Y-59289997D01*
X34187742Y-59289998D01*
X34480271Y-59405818D01*
X34480274Y-59405819D01*
X34620719Y-59441879D01*
X34785027Y-59484066D01*
X34850510Y-59492338D01*
X35097170Y-59523499D01*
X35097179Y-59523499D01*
X35097182Y-59523500D01*
X35097184Y-59523500D01*
X35411816Y-59523500D01*
X35411818Y-59523500D01*
X35411821Y-59523499D01*
X35411829Y-59523499D01*
X35627502Y-59496253D01*
X35723973Y-59484066D01*
X36028725Y-59405819D01*
X36028728Y-59405818D01*
X36321257Y-59289998D01*
X36321258Y-59289997D01*
X36321256Y-59289997D01*
X36321266Y-59289994D01*
X36596984Y-59138416D01*
X36851530Y-58953478D01*
X37080890Y-58738094D01*
X37281447Y-58495663D01*
X37450037Y-58230007D01*
X37584003Y-57945315D01*
X37681231Y-57646079D01*
X37740188Y-57337015D01*
X37741302Y-57319306D01*
X37759944Y-57023005D01*
X37759944Y-57022994D01*
X37740189Y-56708995D01*
X37740188Y-56708988D01*
X37740188Y-56708985D01*
X37681231Y-56399921D01*
X37584003Y-56100685D01*
X37576732Y-56085234D01*
X37516625Y-55957500D01*
X37450037Y-55815993D01*
X37378445Y-55703181D01*
X37281448Y-55550338D01*
X37281445Y-55550334D01*
X37080893Y-55307909D01*
X37080891Y-55307907D01*
X37037230Y-55266906D01*
X36851530Y-55092522D01*
X36851527Y-55092520D01*
X36851521Y-55092515D01*
X36596995Y-54907591D01*
X36596988Y-54907586D01*
X36596984Y-54907584D01*
X36321266Y-54756006D01*
X36321263Y-54756004D01*
X36321258Y-54756002D01*
X36321257Y-54756001D01*
X36028728Y-54640181D01*
X36028725Y-54640180D01*
X35723976Y-54561934D01*
X35723963Y-54561932D01*
X35411829Y-54522500D01*
X35411818Y-54522500D01*
X35097182Y-54522500D01*
X35097170Y-54522500D01*
X34785036Y-54561932D01*
X34785023Y-54561934D01*
X34480274Y-54640180D01*
X34480271Y-54640181D01*
X34187742Y-54756001D01*
X34187741Y-54756002D01*
X33912016Y-54907584D01*
X33912004Y-54907591D01*
X33657478Y-55092515D01*
X33657468Y-55092523D01*
X33428108Y-55307907D01*
X33428106Y-55307909D01*
X33227554Y-55550334D01*
X33227551Y-55550338D01*
X33058964Y-55815990D01*
X33058961Y-55815996D01*
X32924999Y-56100678D01*
X32924997Y-56100683D01*
X32877041Y-56248277D01*
X32827769Y-56399921D01*
X32800886Y-56540849D01*
X32768987Y-56603012D01*
X32708545Y-56638062D01*
X32638748Y-56634870D01*
X32613805Y-56623040D01*
X32501904Y-56553754D01*
X32501898Y-56553752D01*
X32499668Y-56552888D01*
X32294440Y-56473382D01*
X32075743Y-56432500D01*
X31853257Y-56432500D01*
X31634560Y-56473382D01*
X31520423Y-56517599D01*
X31427101Y-56553752D01*
X31427095Y-56553754D01*
X31237939Y-56670874D01*
X31237937Y-56670876D01*
X31073520Y-56820761D01*
X30939443Y-56998308D01*
X30939438Y-56998316D01*
X30840275Y-57197461D01*
X30840269Y-57197476D01*
X30779385Y-57411462D01*
X30779384Y-57411464D01*
X30758857Y-57632999D01*
X30758857Y-57633000D01*
X23876500Y-57633000D01*
X23876500Y-55093000D01*
X28968857Y-55093000D01*
X28989384Y-55314535D01*
X28989385Y-55314537D01*
X29050269Y-55528523D01*
X29050275Y-55528538D01*
X29149438Y-55727683D01*
X29149443Y-55727691D01*
X29283520Y-55905238D01*
X29447937Y-56055123D01*
X29447939Y-56055125D01*
X29637095Y-56172245D01*
X29637096Y-56172245D01*
X29637099Y-56172247D01*
X29844560Y-56252618D01*
X30063257Y-56293500D01*
X30063259Y-56293500D01*
X30285741Y-56293500D01*
X30285743Y-56293500D01*
X30504440Y-56252618D01*
X30711901Y-56172247D01*
X30901062Y-56055124D01*
X31065481Y-55905236D01*
X31199558Y-55727689D01*
X31208883Y-55708963D01*
X31298724Y-55528538D01*
X31298723Y-55528538D01*
X31298729Y-55528528D01*
X31359615Y-55314536D01*
X31380143Y-55093000D01*
X31359615Y-54871464D01*
X31298729Y-54657472D01*
X31291367Y-54642687D01*
X31211852Y-54483000D01*
X40548917Y-54483000D01*
X40569199Y-54688932D01*
X40589546Y-54756006D01*
X40629268Y-54886954D01*
X40726815Y-55069450D01*
X40746141Y-55092999D01*
X40858089Y-55229410D01*
X40953738Y-55307906D01*
X41018050Y-55360685D01*
X41200546Y-55458232D01*
X41398566Y-55518300D01*
X41398565Y-55518300D01*
X41417029Y-55520118D01*
X41604500Y-55538583D01*
X41810434Y-55518300D01*
X42008454Y-55458232D01*
X42190950Y-55360685D01*
X42350910Y-55229410D01*
X42482185Y-55069450D01*
X42579732Y-54886954D01*
X42639800Y-54688934D01*
X42660083Y-54483000D01*
X42639800Y-54277066D01*
X42579732Y-54079046D01*
X42482185Y-53896550D01*
X42406629Y-53804484D01*
X42350910Y-53736589D01*
X42218312Y-53627770D01*
X42190950Y-53605315D01*
X42008454Y-53507768D01*
X41810434Y-53447700D01*
X41810432Y-53447699D01*
X41810434Y-53447699D01*
X41622963Y-53429235D01*
X41604500Y-53427417D01*
X41604499Y-53427417D01*
X41398567Y-53447699D01*
X41200543Y-53507769D01*
X41148364Y-53535660D01*
X41018050Y-53605315D01*
X41018048Y-53605316D01*
X41018047Y-53605317D01*
X40858089Y-53736589D01*
X40726817Y-53896547D01*
X40629269Y-54079043D01*
X40569199Y-54277067D01*
X40548917Y-54483000D01*
X31211852Y-54483000D01*
X31199561Y-54458316D01*
X31199556Y-54458308D01*
X31065479Y-54280761D01*
X30901062Y-54130876D01*
X30901060Y-54130874D01*
X30711904Y-54013754D01*
X30711898Y-54013752D01*
X30504440Y-53933382D01*
X30285743Y-53892500D01*
X30063257Y-53892500D01*
X29844560Y-53933382D01*
X29713364Y-53984207D01*
X29637101Y-54013752D01*
X29637095Y-54013754D01*
X29447939Y-54130874D01*
X29447937Y-54130876D01*
X29283520Y-54280761D01*
X29149443Y-54458308D01*
X29149438Y-54458316D01*
X29050275Y-54657461D01*
X29050269Y-54657476D01*
X28989385Y-54871462D01*
X28989384Y-54871464D01*
X28968857Y-55092999D01*
X28968857Y-55093000D01*
X23876500Y-55093000D01*
X23876500Y-47523000D01*
X30758857Y-47523000D01*
X30779384Y-47744535D01*
X30779385Y-47744537D01*
X30840269Y-47958523D01*
X30840275Y-47958538D01*
X30939438Y-48157683D01*
X30939443Y-48157691D01*
X31073520Y-48335238D01*
X31237937Y-48485123D01*
X31237939Y-48485125D01*
X31427095Y-48602245D01*
X31427096Y-48602245D01*
X31427099Y-48602247D01*
X31634560Y-48682618D01*
X31853257Y-48723500D01*
X31853259Y-48723500D01*
X32075742Y-48723500D01*
X32075743Y-48723500D01*
X32184947Y-48703085D01*
X32254459Y-48710114D01*
X32286177Y-48730454D01*
X32286427Y-48730111D01*
X32292330Y-48734400D01*
X32292618Y-48734585D01*
X32292733Y-48734693D01*
X32292734Y-48734694D01*
X32292737Y-48734696D01*
X32310367Y-48744387D01*
X32326635Y-48755072D01*
X32342538Y-48767408D01*
X32342540Y-48767409D01*
X32342542Y-48767410D01*
X32363880Y-48776643D01*
X32385443Y-48785974D01*
X32390690Y-48788545D01*
X32399203Y-48793225D01*
X32431666Y-48811072D01*
X32451167Y-48816079D01*
X32469565Y-48822378D01*
X32488041Y-48830373D01*
X32534240Y-48837690D01*
X32539914Y-48838865D01*
X32585228Y-48850500D01*
X32605364Y-48850500D01*
X32624763Y-48852027D01*
X32644633Y-48855174D01*
X32691170Y-48850774D01*
X32697007Y-48850500D01*
X38816033Y-48850500D01*
X38831681Y-48852227D01*
X38831708Y-48851946D01*
X38839475Y-48852680D01*
X38839476Y-48852679D01*
X38839477Y-48852680D01*
X38908860Y-48850500D01*
X38938476Y-48850500D01*
X38945378Y-48849627D01*
X38951190Y-48849169D01*
X38997943Y-48847701D01*
X39017272Y-48842084D01*
X39036328Y-48838137D01*
X39056293Y-48835616D01*
X39099770Y-48818401D01*
X39105276Y-48816516D01*
X39150191Y-48803468D01*
X39167515Y-48793221D01*
X39184983Y-48784663D01*
X39203703Y-48777253D01*
X39241542Y-48749759D01*
X39246391Y-48746574D01*
X39286656Y-48722763D01*
X39300897Y-48708520D01*
X39315678Y-48695897D01*
X39331967Y-48684063D01*
X39331969Y-48684059D01*
X39331971Y-48684059D01*
X39343845Y-48669703D01*
X39361776Y-48648028D01*
X39365689Y-48643728D01*
X40554868Y-47454549D01*
X40616189Y-47421066D01*
X40685881Y-47426050D01*
X40738401Y-47463568D01*
X40858089Y-47609410D01*
X40954709Y-47688702D01*
X41018050Y-47740685D01*
X41200546Y-47838232D01*
X41398566Y-47898300D01*
X41398565Y-47898300D01*
X41418847Y-47900297D01*
X41604500Y-47918583D01*
X41810434Y-47898300D01*
X41981989Y-47846259D01*
X42051851Y-47845637D01*
X42110964Y-47882885D01*
X42140555Y-47946179D01*
X42131230Y-48015424D01*
X42105661Y-48052602D01*
X41833816Y-48324447D01*
X41772493Y-48357932D01*
X41733982Y-48360169D01*
X41604501Y-48347417D01*
X41604500Y-48347417D01*
X41584218Y-48349414D01*
X41398567Y-48367699D01*
X41200543Y-48427769D01*
X41093243Y-48485123D01*
X41018050Y-48525315D01*
X41018048Y-48525316D01*
X41018047Y-48525317D01*
X40858089Y-48656589D01*
X40727203Y-48816077D01*
X40726815Y-48816550D01*
X40706170Y-48855174D01*
X40629269Y-48999043D01*
X40569199Y-49197067D01*
X40548917Y-49402999D01*
X40569199Y-49608932D01*
X40577926Y-49637700D01*
X40629268Y-49806954D01*
X40726815Y-49989450D01*
X40726817Y-49989452D01*
X40858089Y-50149410D01*
X40897706Y-50181922D01*
X41018050Y-50280685D01*
X41200546Y-50378232D01*
X41398566Y-50438300D01*
X41398565Y-50438300D01*
X41417029Y-50440118D01*
X41604500Y-50458583D01*
X41810434Y-50438300D01*
X42008454Y-50378232D01*
X42190950Y-50280685D01*
X42349835Y-50150291D01*
X42414145Y-50122979D01*
X42483013Y-50134770D01*
X42534573Y-50181922D01*
X42552500Y-50246145D01*
X42552500Y-51099854D01*
X42532815Y-51166893D01*
X42480011Y-51212648D01*
X42410853Y-51222592D01*
X42349836Y-51195708D01*
X42233036Y-51099854D01*
X42190950Y-51065315D01*
X42008454Y-50967768D01*
X41810434Y-50907700D01*
X41810432Y-50907699D01*
X41810434Y-50907699D01*
X41604500Y-50887417D01*
X41398567Y-50907699D01*
X41200543Y-50967769D01*
X41090397Y-51026643D01*
X41018050Y-51065315D01*
X41018048Y-51065316D01*
X41018047Y-51065317D01*
X40858089Y-51196589D01*
X40728146Y-51354928D01*
X40726815Y-51356550D01*
X40697752Y-51410922D01*
X40629269Y-51539043D01*
X40569199Y-51737067D01*
X40548917Y-51942999D01*
X40569199Y-52148932D01*
X40569200Y-52148934D01*
X40629268Y-52346954D01*
X40726815Y-52529450D01*
X40726817Y-52529452D01*
X40858089Y-52689410D01*
X40885795Y-52712147D01*
X41018050Y-52820685D01*
X41200546Y-52918232D01*
X41398566Y-52978300D01*
X41398565Y-52978300D01*
X41418847Y-52980297D01*
X41604500Y-52998583D01*
X41810434Y-52978300D01*
X42008454Y-52918232D01*
X42190950Y-52820685D01*
X42350910Y-52689410D01*
X42411290Y-52615835D01*
X42469036Y-52576501D01*
X42507144Y-52570500D01*
X43089892Y-52570500D01*
X43156931Y-52590185D01*
X43202686Y-52642989D01*
X43212630Y-52712147D01*
X43199250Y-52752954D01*
X43169269Y-52809043D01*
X43109199Y-53007067D01*
X43088917Y-53213000D01*
X43109199Y-53418932D01*
X43136147Y-53507768D01*
X43169268Y-53616954D01*
X43266815Y-53799450D01*
X43273052Y-53807050D01*
X43398089Y-53959410D01*
X43494709Y-54038702D01*
X43558050Y-54090685D01*
X43740546Y-54188232D01*
X43938566Y-54248300D01*
X43938565Y-54248300D01*
X43958847Y-54250297D01*
X44144500Y-54268583D01*
X44350434Y-54248300D01*
X44548454Y-54188232D01*
X44730950Y-54090685D01*
X44890910Y-53959410D01*
X45022185Y-53799450D01*
X45119732Y-53616954D01*
X45179800Y-53418934D01*
X45200083Y-53213000D01*
X45179800Y-53007066D01*
X45177261Y-52998699D01*
X45176637Y-52928834D01*
X45213884Y-52869721D01*
X45277177Y-52840128D01*
X45346422Y-52849452D01*
X45383603Y-52875022D01*
X46577181Y-54068600D01*
X46610666Y-54129923D01*
X46613500Y-54156281D01*
X46613500Y-54642669D01*
X46613501Y-54642687D01*
X46623825Y-54743752D01*
X46660109Y-54853249D01*
X46678092Y-54907516D01*
X46768660Y-55054350D01*
X46890650Y-55176340D01*
X47037484Y-55266908D01*
X47201247Y-55321174D01*
X47302323Y-55331500D01*
X48000676Y-55331499D01*
X48000684Y-55331498D01*
X48000687Y-55331498D01*
X48056030Y-55325844D01*
X48101753Y-55321174D01*
X48265516Y-55266908D01*
X48412350Y-55176340D01*
X48534340Y-55054350D01*
X48624908Y-54907516D01*
X48679174Y-54743753D01*
X48689500Y-54642677D01*
X48689499Y-54069324D01*
X48688263Y-54057228D01*
X48679174Y-53968247D01*
X48667621Y-53933382D01*
X48624908Y-53804484D01*
X48534340Y-53657650D01*
X48412350Y-53535660D01*
X48321129Y-53479394D01*
X48265518Y-53445093D01*
X48265513Y-53445091D01*
X48264069Y-53444612D01*
X48101753Y-53390826D01*
X48101751Y-53390825D01*
X48000684Y-53380500D01*
X48000677Y-53380500D01*
X47715281Y-53380500D01*
X47648242Y-53360815D01*
X47627600Y-53344181D01*
X45841376Y-51557957D01*
X45831531Y-51545668D01*
X45831313Y-51545849D01*
X45826340Y-51539838D01*
X45825493Y-51539043D01*
X45775741Y-51492322D01*
X45765268Y-51481849D01*
X45754797Y-51471377D01*
X45749296Y-51467111D01*
X45744848Y-51463312D01*
X45710768Y-51431308D01*
X45710763Y-51431304D01*
X45693122Y-51421606D01*
X45676857Y-51410922D01*
X45660963Y-51398593D01*
X45660962Y-51398592D01*
X45645804Y-51392032D01*
X45618054Y-51380023D01*
X45612807Y-51377453D01*
X45571837Y-51354929D01*
X45571828Y-51354926D01*
X45552334Y-51349920D01*
X45533933Y-51343620D01*
X45515459Y-51335626D01*
X45515452Y-51335624D01*
X45469287Y-51328313D01*
X45463563Y-51327128D01*
X45418279Y-51315500D01*
X45418272Y-51315500D01*
X45398142Y-51315500D01*
X45378743Y-51313973D01*
X45358868Y-51310825D01*
X45358867Y-51310825D01*
X45312321Y-51315225D01*
X45306483Y-51315500D01*
X45199108Y-51315500D01*
X45132069Y-51295815D01*
X45086314Y-51243011D01*
X45076370Y-51173853D01*
X45089750Y-51133046D01*
X45091612Y-51129562D01*
X45119732Y-51076954D01*
X45179800Y-50878934D01*
X45200083Y-50673000D01*
X45179800Y-50467066D01*
X45119732Y-50269046D01*
X45022185Y-50086550D01*
X44942498Y-49989450D01*
X44890910Y-49926589D01*
X44773177Y-49829969D01*
X44730950Y-49795315D01*
X44548454Y-49697768D01*
X44350434Y-49637700D01*
X44350432Y-49637699D01*
X44350434Y-49637699D01*
X44162963Y-49619235D01*
X44144500Y-49617417D01*
X44144499Y-49617417D01*
X43943654Y-49637198D01*
X43875008Y-49624179D01*
X43824298Y-49576114D01*
X43807500Y-49513795D01*
X43807500Y-49408780D01*
X43827185Y-49341741D01*
X43843810Y-49321108D01*
X43949945Y-49214972D01*
X44011264Y-49181490D01*
X44049774Y-49179253D01*
X44144500Y-49188583D01*
X44350434Y-49168300D01*
X44548454Y-49108232D01*
X44730950Y-49010685D01*
X44890910Y-48879410D01*
X45022185Y-48719450D01*
X45119732Y-48536954D01*
X45179800Y-48338934D01*
X45200083Y-48133000D01*
X45179800Y-47927066D01*
X45119732Y-47729046D01*
X45022185Y-47546550D01*
X44890910Y-47386590D01*
X44884230Y-47381108D01*
X44765563Y-47283720D01*
X44726229Y-47225975D01*
X44724358Y-47156130D01*
X44756545Y-47100188D01*
X46415915Y-45440819D01*
X46477239Y-45407334D01*
X46503597Y-45404500D01*
X71546349Y-45404500D01*
X71613388Y-45424185D01*
X71649452Y-45459611D01*
X71721199Y-45566991D01*
X71721202Y-45566995D01*
X71837185Y-45682982D01*
X71837188Y-45682984D01*
X71837189Y-45682985D01*
X71904711Y-45728103D01*
X71973568Y-45774113D01*
X72125110Y-45836885D01*
X72125114Y-45836885D01*
X72125115Y-45836886D01*
X72285983Y-45868886D01*
X72285986Y-45868886D01*
X72328639Y-45868886D01*
X72426844Y-45868886D01*
X72426905Y-45868889D01*
X72430731Y-45868888D01*
X72430736Y-45868890D01*
X72452264Y-45868888D01*
X72452336Y-45868909D01*
X72503650Y-45868906D01*
X72503650Y-45868907D01*
X72585663Y-45868902D01*
X72746535Y-45836893D01*
X72898072Y-45774115D01*
X72898080Y-45774109D01*
X72898085Y-45774107D01*
X72966923Y-45728106D01*
X73033599Y-45707224D01*
X73100980Y-45725705D01*
X73104693Y-45728090D01*
X73173568Y-45774113D01*
X73325110Y-45836885D01*
X73325114Y-45836885D01*
X73325115Y-45836886D01*
X73485983Y-45868886D01*
X73485986Y-45868886D01*
X73528639Y-45868886D01*
X73626844Y-45868886D01*
X73626905Y-45868889D01*
X73630731Y-45868888D01*
X73630736Y-45868890D01*
X73652264Y-45868888D01*
X73652336Y-45868909D01*
X73703650Y-45868906D01*
X73703650Y-45868907D01*
X73785663Y-45868902D01*
X73946535Y-45836893D01*
X74098072Y-45774115D01*
X74234450Y-45682981D01*
X74350429Y-45566992D01*
X74422169Y-45459614D01*
X74475780Y-45414806D01*
X74525275Y-45404500D01*
X80557676Y-45404500D01*
X80624715Y-45424185D01*
X80656630Y-45453773D01*
X80730269Y-45551287D01*
X80881537Y-45689185D01*
X80881539Y-45689187D01*
X81055569Y-45796942D01*
X81055575Y-45796945D01*
X81096010Y-45812609D01*
X81246444Y-45870888D01*
X81447653Y-45908500D01*
X81447656Y-45908500D01*
X81652344Y-45908500D01*
X81652347Y-45908500D01*
X81853556Y-45870888D01*
X82044427Y-45796944D01*
X82218462Y-45689186D01*
X82369732Y-45551285D01*
X82451045Y-45443608D01*
X82507154Y-45401971D01*
X82576866Y-45397279D01*
X82638048Y-45431022D01*
X82648954Y-45443608D01*
X82730266Y-45551283D01*
X82730268Y-45551286D01*
X82881537Y-45689185D01*
X82881539Y-45689187D01*
X83055569Y-45796942D01*
X83055575Y-45796945D01*
X83096010Y-45812609D01*
X83246444Y-45870888D01*
X83447653Y-45908500D01*
X83447656Y-45908500D01*
X83652344Y-45908500D01*
X83652347Y-45908500D01*
X83853556Y-45870888D01*
X84044427Y-45796944D01*
X84218462Y-45689186D01*
X84352503Y-45566991D01*
X84369730Y-45551287D01*
X84369732Y-45551285D01*
X84493088Y-45387935D01*
X84584328Y-45204701D01*
X84640345Y-45007821D01*
X84659232Y-44804000D01*
X84640345Y-44600179D01*
X84584328Y-44403299D01*
X84493088Y-44220065D01*
X84369732Y-44056715D01*
X84369730Y-44056712D01*
X84218462Y-43918814D01*
X84218460Y-43918812D01*
X84044430Y-43811057D01*
X84044424Y-43811054D01*
X83882482Y-43748318D01*
X83853556Y-43737112D01*
X83652347Y-43699500D01*
X83447653Y-43699500D01*
X83353067Y-43717181D01*
X83246442Y-43737112D01*
X83246434Y-43737115D01*
X83217262Y-43748416D01*
X83156285Y-43755728D01*
X83139361Y-43753500D01*
X83100000Y-43748318D01*
X83064670Y-43752969D01*
X83056572Y-43753500D01*
X82678547Y-43753500D01*
X82611508Y-43733815D01*
X82590866Y-43717181D01*
X82469797Y-43596112D01*
X82436312Y-43534789D01*
X82441296Y-43465097D01*
X82458525Y-43433703D01*
X82460189Y-43431500D01*
X82493088Y-43387935D01*
X82584328Y-43204701D01*
X82640345Y-43007821D01*
X82659232Y-42804000D01*
X82640345Y-42600179D01*
X82584328Y-42403299D01*
X82493088Y-42220065D01*
X82458523Y-42174294D01*
X82433832Y-42108934D01*
X82448397Y-42040599D01*
X82469793Y-42011891D01*
X82590867Y-41890816D01*
X82652189Y-41857334D01*
X82678547Y-41854500D01*
X83056572Y-41854500D01*
X83064670Y-41855030D01*
X83100000Y-41859682D01*
X83156287Y-41852271D01*
X83217265Y-41859583D01*
X83246444Y-41870888D01*
X83447653Y-41908500D01*
X83447656Y-41908500D01*
X83652344Y-41908500D01*
X83652347Y-41908500D01*
X83853556Y-41870888D01*
X84044427Y-41796944D01*
X84218462Y-41689186D01*
X84369732Y-41551285D01*
X84493088Y-41387935D01*
X84584328Y-41204701D01*
X84640345Y-41007821D01*
X84659232Y-40804000D01*
X84640345Y-40600179D01*
X84584328Y-40403299D01*
X84493088Y-40220065D01*
X84369732Y-40056715D01*
X84369730Y-40056712D01*
X84218462Y-39918814D01*
X84218460Y-39918812D01*
X84044430Y-39811057D01*
X84044424Y-39811054D01*
X83881989Y-39748127D01*
X83826587Y-39705554D01*
X83802997Y-39639787D01*
X83818708Y-39571707D01*
X83868732Y-39522928D01*
X83921347Y-39509851D01*
X83921271Y-39509029D01*
X83926666Y-39508529D01*
X83926783Y-39508500D01*
X83926978Y-39508500D01*
X83926980Y-39508500D01*
X84137297Y-39469185D01*
X84336810Y-39391893D01*
X84518722Y-39279258D01*
X84676841Y-39135114D01*
X84805781Y-38964370D01*
X84901151Y-38772840D01*
X84901151Y-38772837D01*
X84901153Y-38772835D01*
X84959703Y-38567050D01*
X84959704Y-38567047D01*
X84966529Y-38493395D01*
X84992315Y-38428457D01*
X85049116Y-38387770D01*
X85118897Y-38384250D01*
X85179503Y-38419015D01*
X85211693Y-38481028D01*
X85213471Y-38493395D01*
X85220295Y-38567047D01*
X85220296Y-38567050D01*
X85278846Y-38772835D01*
X85278849Y-38772840D01*
X85374219Y-38964370D01*
X85503159Y-39135114D01*
X85661278Y-39279258D01*
X85661283Y-39279261D01*
X85661286Y-39279263D01*
X85843186Y-39391891D01*
X85843187Y-39391891D01*
X85843190Y-39391893D01*
X86042703Y-39469185D01*
X86253020Y-39508500D01*
X86253022Y-39508500D01*
X86466978Y-39508500D01*
X86466980Y-39508500D01*
X86677297Y-39469185D01*
X86876810Y-39391893D01*
X87058722Y-39279258D01*
X87216841Y-39135114D01*
X87345781Y-38964370D01*
X87441151Y-38772840D01*
X87441151Y-38772837D01*
X87441153Y-38772835D01*
X87499703Y-38567050D01*
X87499704Y-38567047D01*
X87506529Y-38493395D01*
X87532315Y-38428457D01*
X87589116Y-38387770D01*
X87658897Y-38384250D01*
X87719503Y-38419015D01*
X87751693Y-38481028D01*
X87753471Y-38493395D01*
X87760295Y-38567047D01*
X87760296Y-38567050D01*
X87818846Y-38772835D01*
X87818849Y-38772840D01*
X87914219Y-38964370D01*
X88043159Y-39135114D01*
X88201278Y-39279258D01*
X88201283Y-39279261D01*
X88201286Y-39279263D01*
X88383186Y-39391891D01*
X88383187Y-39391891D01*
X88383190Y-39391893D01*
X88582703Y-39469185D01*
X88793020Y-39508500D01*
X88793022Y-39508500D01*
X89006978Y-39508500D01*
X89006980Y-39508500D01*
X89217297Y-39469185D01*
X89416810Y-39391893D01*
X89598722Y-39279258D01*
X89756841Y-39135114D01*
X89885781Y-38964370D01*
X89981151Y-38772840D01*
X89981151Y-38772837D01*
X89981153Y-38772835D01*
X90039703Y-38567050D01*
X90039704Y-38567047D01*
X90046529Y-38493395D01*
X90072315Y-38428457D01*
X90129116Y-38387770D01*
X90198897Y-38384250D01*
X90259503Y-38419015D01*
X90291693Y-38481028D01*
X90293471Y-38493395D01*
X90300295Y-38567047D01*
X90300296Y-38567050D01*
X90358846Y-38772835D01*
X90358849Y-38772840D01*
X90454219Y-38964370D01*
X90583159Y-39135114D01*
X90741278Y-39279258D01*
X90741283Y-39279261D01*
X90741286Y-39279263D01*
X90923186Y-39391891D01*
X90923187Y-39391891D01*
X90923190Y-39391893D01*
X91122703Y-39469185D01*
X91333020Y-39508500D01*
X91333022Y-39508500D01*
X91546978Y-39508500D01*
X91546980Y-39508500D01*
X91757297Y-39469185D01*
X91956810Y-39391893D01*
X92138722Y-39279258D01*
X92296841Y-39135114D01*
X92425781Y-38964370D01*
X92521151Y-38772840D01*
X92521151Y-38772837D01*
X92521153Y-38772835D01*
X92579703Y-38567050D01*
X92579704Y-38567047D01*
X92586529Y-38493395D01*
X92612315Y-38428457D01*
X92669116Y-38387770D01*
X92738897Y-38384250D01*
X92799503Y-38419015D01*
X92831693Y-38481028D01*
X92833471Y-38493395D01*
X92840295Y-38567047D01*
X92840296Y-38567050D01*
X92898846Y-38772835D01*
X92898849Y-38772840D01*
X92994219Y-38964370D01*
X93123159Y-39135114D01*
X93281278Y-39279258D01*
X93281283Y-39279261D01*
X93281286Y-39279263D01*
X93463186Y-39391891D01*
X93463187Y-39391891D01*
X93463190Y-39391893D01*
X93662703Y-39469185D01*
X93873020Y-39508500D01*
X93873022Y-39508500D01*
X94086978Y-39508500D01*
X94086980Y-39508500D01*
X94297297Y-39469185D01*
X94496810Y-39391893D01*
X94678722Y-39279258D01*
X94836841Y-39135114D01*
X94965781Y-38964370D01*
X95061151Y-38772840D01*
X95061151Y-38772837D01*
X95061153Y-38772835D01*
X95119703Y-38567050D01*
X95119704Y-38567047D01*
X95126529Y-38493395D01*
X95152315Y-38428457D01*
X95209116Y-38387770D01*
X95278897Y-38384250D01*
X95339503Y-38419015D01*
X95371693Y-38481028D01*
X95373471Y-38493395D01*
X95380295Y-38567047D01*
X95380296Y-38567050D01*
X95438846Y-38772835D01*
X95438849Y-38772840D01*
X95534219Y-38964370D01*
X95663159Y-39135114D01*
X95821278Y-39279258D01*
X95821283Y-39279261D01*
X95821286Y-39279263D01*
X96003186Y-39391891D01*
X96003187Y-39391891D01*
X96003190Y-39391893D01*
X96202703Y-39469185D01*
X96413020Y-39508500D01*
X96413022Y-39508500D01*
X96626978Y-39508500D01*
X96626980Y-39508500D01*
X96837297Y-39469185D01*
X97036810Y-39391893D01*
X97218722Y-39279258D01*
X97376841Y-39135114D01*
X97505781Y-38964370D01*
X97601151Y-38772840D01*
X97601151Y-38772837D01*
X97601153Y-38772835D01*
X97659703Y-38567050D01*
X97659704Y-38567047D01*
X97666529Y-38493395D01*
X97692315Y-38428457D01*
X97749116Y-38387770D01*
X97818897Y-38384250D01*
X97879503Y-38419015D01*
X97911693Y-38481028D01*
X97913471Y-38493395D01*
X97920295Y-38567047D01*
X97920296Y-38567050D01*
X97978846Y-38772835D01*
X97978849Y-38772840D01*
X98074219Y-38964370D01*
X98203159Y-39135114D01*
X98361278Y-39279258D01*
X98361283Y-39279261D01*
X98361286Y-39279263D01*
X98543186Y-39391891D01*
X98543187Y-39391891D01*
X98543190Y-39391893D01*
X98742703Y-39469185D01*
X98953020Y-39508500D01*
X98953022Y-39508500D01*
X99166978Y-39508500D01*
X99166980Y-39508500D01*
X99377297Y-39469185D01*
X99576810Y-39391893D01*
X99758722Y-39279258D01*
X99916841Y-39135114D01*
X100045781Y-38964370D01*
X100141151Y-38772840D01*
X100141151Y-38772837D01*
X100141153Y-38772835D01*
X100199703Y-38567050D01*
X100199704Y-38567047D01*
X100206529Y-38493395D01*
X100232315Y-38428457D01*
X100289116Y-38387770D01*
X100358897Y-38384250D01*
X100419503Y-38419015D01*
X100451693Y-38481028D01*
X100453471Y-38493395D01*
X100460295Y-38567047D01*
X100460296Y-38567050D01*
X100518846Y-38772835D01*
X100518849Y-38772840D01*
X100614219Y-38964370D01*
X100743159Y-39135114D01*
X100901278Y-39279258D01*
X100901283Y-39279261D01*
X100901286Y-39279263D01*
X101083186Y-39391891D01*
X101083187Y-39391891D01*
X101083190Y-39391893D01*
X101282703Y-39469185D01*
X101493020Y-39508500D01*
X101493022Y-39508500D01*
X101706978Y-39508500D01*
X101706980Y-39508500D01*
X101917297Y-39469185D01*
X102116810Y-39391893D01*
X102298722Y-39279258D01*
X102456841Y-39135114D01*
X102585781Y-38964370D01*
X102681151Y-38772840D01*
X102681151Y-38772837D01*
X102681153Y-38772835D01*
X102739703Y-38567050D01*
X102739704Y-38567047D01*
X102759446Y-38354000D01*
X105520554Y-38354000D01*
X105540295Y-38567047D01*
X105540296Y-38567050D01*
X105598846Y-38772835D01*
X105598849Y-38772840D01*
X105694219Y-38964370D01*
X105823159Y-39135114D01*
X105981278Y-39279258D01*
X105981283Y-39279261D01*
X105981286Y-39279263D01*
X106163186Y-39391891D01*
X106163187Y-39391891D01*
X106163190Y-39391893D01*
X106362703Y-39469185D01*
X106573020Y-39508500D01*
X106573022Y-39508500D01*
X106786978Y-39508500D01*
X106786980Y-39508500D01*
X106997297Y-39469185D01*
X107196810Y-39391893D01*
X107378722Y-39279258D01*
X107536841Y-39135114D01*
X107665781Y-38964370D01*
X107761151Y-38772840D01*
X107761151Y-38772837D01*
X107761153Y-38772835D01*
X107819703Y-38567050D01*
X107819704Y-38567047D01*
X107826529Y-38493395D01*
X107852315Y-38428457D01*
X107909116Y-38387770D01*
X107978897Y-38384250D01*
X108039503Y-38419015D01*
X108071693Y-38481028D01*
X108073471Y-38493395D01*
X108080295Y-38567047D01*
X108080296Y-38567050D01*
X108138846Y-38772835D01*
X108138849Y-38772840D01*
X108234219Y-38964370D01*
X108363159Y-39135114D01*
X108521278Y-39279258D01*
X108521283Y-39279261D01*
X108521286Y-39279263D01*
X108703186Y-39391891D01*
X108703187Y-39391891D01*
X108703190Y-39391893D01*
X108902703Y-39469185D01*
X109113020Y-39508500D01*
X109113022Y-39508500D01*
X109326978Y-39508500D01*
X109326980Y-39508500D01*
X109537297Y-39469185D01*
X109736810Y-39391893D01*
X109918722Y-39279258D01*
X110076841Y-39135114D01*
X110205781Y-38964370D01*
X110301151Y-38772840D01*
X110301151Y-38772837D01*
X110301153Y-38772835D01*
X110359703Y-38567050D01*
X110359704Y-38567047D01*
X110366529Y-38493395D01*
X110392315Y-38428457D01*
X110449116Y-38387770D01*
X110518897Y-38384250D01*
X110579503Y-38419015D01*
X110611693Y-38481028D01*
X110613471Y-38493395D01*
X110620295Y-38567047D01*
X110620296Y-38567050D01*
X110678846Y-38772835D01*
X110678849Y-38772840D01*
X110774219Y-38964370D01*
X110903159Y-39135114D01*
X111061278Y-39279258D01*
X111061283Y-39279261D01*
X111061286Y-39279263D01*
X111243186Y-39391891D01*
X111243187Y-39391891D01*
X111243190Y-39391893D01*
X111442703Y-39469185D01*
X111653020Y-39508500D01*
X111653022Y-39508500D01*
X111866978Y-39508500D01*
X111866980Y-39508500D01*
X112077297Y-39469185D01*
X112276810Y-39391893D01*
X112458722Y-39279258D01*
X112616841Y-39135114D01*
X112745781Y-38964370D01*
X112841151Y-38772840D01*
X112841151Y-38772837D01*
X112841153Y-38772835D01*
X112899703Y-38567050D01*
X112899704Y-38567047D01*
X112906529Y-38493395D01*
X112932315Y-38428457D01*
X112989116Y-38387770D01*
X113058897Y-38384250D01*
X113119503Y-38419015D01*
X113151693Y-38481028D01*
X113153471Y-38493395D01*
X113160295Y-38567047D01*
X113160296Y-38567050D01*
X113218846Y-38772835D01*
X113218849Y-38772840D01*
X113314219Y-38964370D01*
X113443159Y-39135114D01*
X113601278Y-39279258D01*
X113601283Y-39279261D01*
X113601286Y-39279263D01*
X113783186Y-39391891D01*
X113783187Y-39391891D01*
X113783190Y-39391893D01*
X113982703Y-39469185D01*
X114193020Y-39508500D01*
X114193022Y-39508500D01*
X114406978Y-39508500D01*
X114406980Y-39508500D01*
X114617297Y-39469185D01*
X114816810Y-39391893D01*
X114998722Y-39279258D01*
X115156841Y-39135114D01*
X115285781Y-38964370D01*
X115381151Y-38772840D01*
X115381151Y-38772837D01*
X115381153Y-38772835D01*
X115439703Y-38567050D01*
X115439704Y-38567047D01*
X115446529Y-38493395D01*
X115472315Y-38428457D01*
X115529116Y-38387770D01*
X115598897Y-38384250D01*
X115659503Y-38419015D01*
X115691693Y-38481028D01*
X115693471Y-38493395D01*
X115700295Y-38567047D01*
X115700296Y-38567050D01*
X115758846Y-38772835D01*
X115758849Y-38772840D01*
X115854219Y-38964370D01*
X115983159Y-39135114D01*
X116141278Y-39279258D01*
X116141283Y-39279261D01*
X116141286Y-39279263D01*
X116323186Y-39391891D01*
X116323187Y-39391891D01*
X116323190Y-39391893D01*
X116522703Y-39469185D01*
X116733020Y-39508500D01*
X116733022Y-39508500D01*
X116946978Y-39508500D01*
X116946980Y-39508500D01*
X117157297Y-39469185D01*
X117356810Y-39391893D01*
X117538722Y-39279258D01*
X117696841Y-39135114D01*
X117825781Y-38964370D01*
X117921151Y-38772840D01*
X117921151Y-38772837D01*
X117921153Y-38772835D01*
X117979703Y-38567050D01*
X117979704Y-38567047D01*
X117986529Y-38493395D01*
X118012315Y-38428457D01*
X118069116Y-38387770D01*
X118138897Y-38384250D01*
X118199503Y-38419015D01*
X118231693Y-38481028D01*
X118233471Y-38493395D01*
X118240295Y-38567047D01*
X118240296Y-38567050D01*
X118298846Y-38772835D01*
X118298849Y-38772840D01*
X118394219Y-38964370D01*
X118523159Y-39135114D01*
X118681278Y-39279258D01*
X118681283Y-39279261D01*
X118681286Y-39279263D01*
X118863186Y-39391891D01*
X118863187Y-39391891D01*
X118863190Y-39391893D01*
X119062703Y-39469185D01*
X119273020Y-39508500D01*
X119273022Y-39508500D01*
X119486978Y-39508500D01*
X119486980Y-39508500D01*
X119697297Y-39469185D01*
X119896810Y-39391893D01*
X120078722Y-39279258D01*
X120236841Y-39135114D01*
X120365781Y-38964370D01*
X120461151Y-38772840D01*
X120461151Y-38772837D01*
X120461153Y-38772835D01*
X120519703Y-38567050D01*
X120519704Y-38567047D01*
X120526529Y-38493395D01*
X120552315Y-38428457D01*
X120609116Y-38387770D01*
X120678897Y-38384250D01*
X120739503Y-38419015D01*
X120771693Y-38481028D01*
X120773471Y-38493395D01*
X120780295Y-38567047D01*
X120780296Y-38567050D01*
X120838846Y-38772835D01*
X120838849Y-38772840D01*
X120934219Y-38964370D01*
X121063159Y-39135114D01*
X121221278Y-39279258D01*
X121221283Y-39279261D01*
X121221286Y-39279263D01*
X121403186Y-39391891D01*
X121403187Y-39391891D01*
X121403190Y-39391893D01*
X121602703Y-39469185D01*
X121813020Y-39508500D01*
X121813022Y-39508500D01*
X122026978Y-39508500D01*
X122026980Y-39508500D01*
X122237297Y-39469185D01*
X122436810Y-39391893D01*
X122618722Y-39279258D01*
X122776841Y-39135114D01*
X122905781Y-38964370D01*
X123001151Y-38772840D01*
X123001151Y-38772837D01*
X123001153Y-38772835D01*
X123059703Y-38567050D01*
X123059704Y-38567047D01*
X123066529Y-38493395D01*
X123092315Y-38428457D01*
X123149116Y-38387770D01*
X123218897Y-38384250D01*
X123279503Y-38419015D01*
X123311693Y-38481028D01*
X123313471Y-38493395D01*
X123320295Y-38567047D01*
X123320296Y-38567050D01*
X123378846Y-38772835D01*
X123378849Y-38772840D01*
X123474219Y-38964370D01*
X123603159Y-39135114D01*
X123761278Y-39279258D01*
X123761283Y-39279261D01*
X123761286Y-39279263D01*
X123943186Y-39391891D01*
X123943187Y-39391891D01*
X123943190Y-39391893D01*
X124142703Y-39469185D01*
X124353020Y-39508500D01*
X124353022Y-39508500D01*
X124566978Y-39508500D01*
X124566980Y-39508500D01*
X124777297Y-39469185D01*
X124976810Y-39391893D01*
X125158722Y-39279258D01*
X125316841Y-39135114D01*
X125445781Y-38964370D01*
X125541151Y-38772840D01*
X125541151Y-38772837D01*
X125541153Y-38772835D01*
X125599703Y-38567050D01*
X125599704Y-38567047D01*
X125606529Y-38493395D01*
X125632315Y-38428457D01*
X125689116Y-38387770D01*
X125758897Y-38384250D01*
X125819503Y-38419015D01*
X125851693Y-38481028D01*
X125853471Y-38493395D01*
X125860295Y-38567047D01*
X125860296Y-38567050D01*
X125918846Y-38772835D01*
X125918849Y-38772840D01*
X126014219Y-38964370D01*
X126143159Y-39135114D01*
X126301278Y-39279258D01*
X126301283Y-39279261D01*
X126301286Y-39279263D01*
X126483186Y-39391891D01*
X126483187Y-39391891D01*
X126483190Y-39391893D01*
X126682703Y-39469185D01*
X126893020Y-39508500D01*
X126893022Y-39508500D01*
X127106978Y-39508500D01*
X127106980Y-39508500D01*
X127317297Y-39469185D01*
X127516810Y-39391893D01*
X127698722Y-39279258D01*
X127856841Y-39135114D01*
X127985781Y-38964370D01*
X128081151Y-38772840D01*
X128081151Y-38772837D01*
X128081153Y-38772835D01*
X128139703Y-38567050D01*
X128139704Y-38567047D01*
X128159446Y-38354000D01*
X128159446Y-38353999D01*
X128139704Y-38140952D01*
X128139703Y-38140949D01*
X128081153Y-37935164D01*
X128081150Y-37935158D01*
X127985781Y-37743630D01*
X127856841Y-37572886D01*
X127698722Y-37428742D01*
X127698716Y-37428738D01*
X127698713Y-37428736D01*
X127516813Y-37316108D01*
X127516807Y-37316106D01*
X127317297Y-37238815D01*
X127106980Y-37199500D01*
X126893020Y-37199500D01*
X126682703Y-37238815D01*
X126556533Y-37287693D01*
X126483192Y-37316106D01*
X126483186Y-37316108D01*
X126301286Y-37428736D01*
X126301283Y-37428738D01*
X126301279Y-37428740D01*
X126301278Y-37428742D01*
X126143161Y-37572884D01*
X126143158Y-37572887D01*
X126014219Y-37743629D01*
X125918849Y-37935158D01*
X125918846Y-37935164D01*
X125860296Y-38140949D01*
X125860295Y-38140952D01*
X125853471Y-38214604D01*
X125827685Y-38279542D01*
X125770884Y-38320229D01*
X125701103Y-38323749D01*
X125640497Y-38288984D01*
X125608307Y-38226971D01*
X125606529Y-38214604D01*
X125599704Y-38140952D01*
X125599703Y-38140949D01*
X125541153Y-37935164D01*
X125541150Y-37935158D01*
X125445781Y-37743630D01*
X125316841Y-37572886D01*
X125158722Y-37428742D01*
X125158716Y-37428738D01*
X125158713Y-37428736D01*
X124976813Y-37316108D01*
X124976807Y-37316106D01*
X124777297Y-37238815D01*
X124566980Y-37199500D01*
X124353020Y-37199500D01*
X124142703Y-37238815D01*
X124016533Y-37287693D01*
X123943192Y-37316106D01*
X123943186Y-37316108D01*
X123761286Y-37428736D01*
X123761283Y-37428738D01*
X123761279Y-37428740D01*
X123761278Y-37428742D01*
X123603161Y-37572884D01*
X123603158Y-37572887D01*
X123474219Y-37743629D01*
X123378849Y-37935158D01*
X123378846Y-37935164D01*
X123320296Y-38140949D01*
X123320295Y-38140952D01*
X123313471Y-38214604D01*
X123287685Y-38279542D01*
X123230884Y-38320229D01*
X123161103Y-38323749D01*
X123100497Y-38288984D01*
X123068307Y-38226971D01*
X123066529Y-38214604D01*
X123059704Y-38140952D01*
X123059703Y-38140949D01*
X123001153Y-37935164D01*
X123001150Y-37935158D01*
X122905781Y-37743630D01*
X122776841Y-37572886D01*
X122618722Y-37428742D01*
X122618716Y-37428738D01*
X122618713Y-37428736D01*
X122436813Y-37316108D01*
X122436807Y-37316106D01*
X122237297Y-37238815D01*
X122026980Y-37199500D01*
X121813020Y-37199500D01*
X121602703Y-37238815D01*
X121476533Y-37287693D01*
X121403192Y-37316106D01*
X121403186Y-37316108D01*
X121221286Y-37428736D01*
X121221283Y-37428738D01*
X121221279Y-37428740D01*
X121221278Y-37428742D01*
X121063161Y-37572884D01*
X121063158Y-37572887D01*
X120934219Y-37743629D01*
X120838849Y-37935158D01*
X120838846Y-37935164D01*
X120780296Y-38140949D01*
X120780295Y-38140952D01*
X120773471Y-38214604D01*
X120747685Y-38279542D01*
X120690884Y-38320229D01*
X120621103Y-38323749D01*
X120560497Y-38288984D01*
X120528307Y-38226971D01*
X120526529Y-38214604D01*
X120519704Y-38140952D01*
X120519703Y-38140949D01*
X120461153Y-37935164D01*
X120461150Y-37935158D01*
X120365781Y-37743630D01*
X120236841Y-37572886D01*
X120078722Y-37428742D01*
X120078716Y-37428738D01*
X120078713Y-37428736D01*
X119896813Y-37316108D01*
X119896807Y-37316106D01*
X119697297Y-37238815D01*
X119486980Y-37199500D01*
X119273020Y-37199500D01*
X119062703Y-37238815D01*
X118936533Y-37287693D01*
X118863192Y-37316106D01*
X118863186Y-37316108D01*
X118681286Y-37428736D01*
X118681283Y-37428738D01*
X118681279Y-37428740D01*
X118681278Y-37428742D01*
X118523161Y-37572884D01*
X118523158Y-37572887D01*
X118394219Y-37743629D01*
X118298849Y-37935158D01*
X118298846Y-37935164D01*
X118240296Y-38140949D01*
X118240295Y-38140952D01*
X118233471Y-38214604D01*
X118207685Y-38279542D01*
X118150884Y-38320229D01*
X118081103Y-38323749D01*
X118020497Y-38288984D01*
X117988307Y-38226971D01*
X117986529Y-38214604D01*
X117979704Y-38140952D01*
X117979703Y-38140949D01*
X117921153Y-37935164D01*
X117921150Y-37935158D01*
X117825781Y-37743630D01*
X117696841Y-37572886D01*
X117538722Y-37428742D01*
X117538716Y-37428738D01*
X117538713Y-37428736D01*
X117356813Y-37316108D01*
X117356807Y-37316106D01*
X117157297Y-37238815D01*
X116946980Y-37199500D01*
X116733020Y-37199500D01*
X116522703Y-37238815D01*
X116396533Y-37287693D01*
X116323192Y-37316106D01*
X116323186Y-37316108D01*
X116141286Y-37428736D01*
X116141283Y-37428738D01*
X116141279Y-37428740D01*
X116141278Y-37428742D01*
X115983161Y-37572884D01*
X115983158Y-37572887D01*
X115854219Y-37743629D01*
X115758849Y-37935158D01*
X115758846Y-37935164D01*
X115700296Y-38140949D01*
X115700295Y-38140952D01*
X115693471Y-38214604D01*
X115667685Y-38279542D01*
X115610884Y-38320229D01*
X115541103Y-38323749D01*
X115480497Y-38288984D01*
X115448307Y-38226971D01*
X115446529Y-38214604D01*
X115439704Y-38140952D01*
X115439703Y-38140949D01*
X115381153Y-37935164D01*
X115381150Y-37935158D01*
X115285781Y-37743630D01*
X115156841Y-37572886D01*
X114998722Y-37428742D01*
X114998716Y-37428738D01*
X114998713Y-37428736D01*
X114816813Y-37316108D01*
X114816807Y-37316106D01*
X114617297Y-37238815D01*
X114406980Y-37199500D01*
X114193020Y-37199500D01*
X113982703Y-37238815D01*
X113856533Y-37287693D01*
X113783192Y-37316106D01*
X113783186Y-37316108D01*
X113601286Y-37428736D01*
X113601283Y-37428738D01*
X113601279Y-37428740D01*
X113601278Y-37428742D01*
X113443161Y-37572884D01*
X113443158Y-37572887D01*
X113314219Y-37743629D01*
X113218849Y-37935158D01*
X113218846Y-37935164D01*
X113160296Y-38140949D01*
X113160295Y-38140952D01*
X113153471Y-38214604D01*
X113127685Y-38279542D01*
X113070884Y-38320229D01*
X113001103Y-38323749D01*
X112940497Y-38288984D01*
X112908307Y-38226971D01*
X112906529Y-38214604D01*
X112899704Y-38140952D01*
X112899703Y-38140949D01*
X112841153Y-37935164D01*
X112841150Y-37935158D01*
X112745781Y-37743630D01*
X112616841Y-37572886D01*
X112458722Y-37428742D01*
X112458716Y-37428738D01*
X112458713Y-37428736D01*
X112276813Y-37316108D01*
X112276807Y-37316106D01*
X112077297Y-37238815D01*
X111866980Y-37199500D01*
X111653020Y-37199500D01*
X111442703Y-37238815D01*
X111316533Y-37287693D01*
X111243192Y-37316106D01*
X111243186Y-37316108D01*
X111061286Y-37428736D01*
X111061283Y-37428738D01*
X111061279Y-37428740D01*
X111061278Y-37428742D01*
X110903161Y-37572884D01*
X110903158Y-37572887D01*
X110774219Y-37743629D01*
X110678849Y-37935158D01*
X110678846Y-37935164D01*
X110620296Y-38140949D01*
X110620295Y-38140952D01*
X110613471Y-38214604D01*
X110587685Y-38279542D01*
X110530884Y-38320229D01*
X110461103Y-38323749D01*
X110400497Y-38288984D01*
X110368307Y-38226971D01*
X110366529Y-38214604D01*
X110359704Y-38140952D01*
X110359703Y-38140949D01*
X110301153Y-37935164D01*
X110301150Y-37935158D01*
X110205781Y-37743630D01*
X110076841Y-37572886D01*
X109918722Y-37428742D01*
X109918716Y-37428738D01*
X109918713Y-37428736D01*
X109736813Y-37316108D01*
X109736807Y-37316106D01*
X109537297Y-37238815D01*
X109326980Y-37199500D01*
X109113020Y-37199500D01*
X108902703Y-37238815D01*
X108776533Y-37287693D01*
X108703192Y-37316106D01*
X108703186Y-37316108D01*
X108521286Y-37428736D01*
X108521283Y-37428738D01*
X108521279Y-37428740D01*
X108521278Y-37428742D01*
X108363161Y-37572884D01*
X108363158Y-37572887D01*
X108234219Y-37743629D01*
X108138849Y-37935158D01*
X108138846Y-37935164D01*
X108080296Y-38140949D01*
X108080295Y-38140952D01*
X108073471Y-38214604D01*
X108047685Y-38279542D01*
X107990884Y-38320229D01*
X107921103Y-38323749D01*
X107860497Y-38288984D01*
X107828307Y-38226971D01*
X107826529Y-38214604D01*
X107819704Y-38140952D01*
X107819703Y-38140949D01*
X107761153Y-37935164D01*
X107761150Y-37935158D01*
X107665781Y-37743630D01*
X107536841Y-37572886D01*
X107378722Y-37428742D01*
X107378716Y-37428738D01*
X107378713Y-37428736D01*
X107196813Y-37316108D01*
X107196807Y-37316106D01*
X106997297Y-37238815D01*
X106786980Y-37199500D01*
X106573020Y-37199500D01*
X106362703Y-37238815D01*
X106236533Y-37287693D01*
X106163192Y-37316106D01*
X106163186Y-37316108D01*
X105981286Y-37428736D01*
X105981283Y-37428738D01*
X105981279Y-37428740D01*
X105981278Y-37428742D01*
X105823161Y-37572884D01*
X105823158Y-37572887D01*
X105694219Y-37743629D01*
X105598849Y-37935158D01*
X105598846Y-37935164D01*
X105540296Y-38140949D01*
X105540295Y-38140952D01*
X105520554Y-38353999D01*
X105520554Y-38354000D01*
X102759446Y-38354000D01*
X102759446Y-38353999D01*
X102739704Y-38140952D01*
X102739703Y-38140949D01*
X102681153Y-37935164D01*
X102681150Y-37935158D01*
X102585781Y-37743630D01*
X102456841Y-37572886D01*
X102456839Y-37572884D01*
X102298724Y-37428743D01*
X102286220Y-37421001D01*
X102239586Y-37368972D01*
X102227500Y-37315575D01*
X102227500Y-32916398D01*
X102247185Y-32849359D01*
X102280374Y-32814825D01*
X102414620Y-32720826D01*
X102570826Y-32564620D01*
X102697534Y-32383662D01*
X102790894Y-32183450D01*
X102848070Y-31970068D01*
X102867323Y-31750000D01*
X102866160Y-31736711D01*
X102859423Y-31659701D01*
X102848070Y-31529932D01*
X102797496Y-31341187D01*
X120990590Y-31341187D01*
X121020230Y-31736711D01*
X121020231Y-31736724D01*
X121089108Y-32127339D01*
X121196530Y-32509137D01*
X121196534Y-32509151D01*
X121341435Y-32878353D01*
X121341440Y-32878365D01*
X121522386Y-33231314D01*
X121522391Y-33231323D01*
X121737586Y-33564509D01*
X121863691Y-33722640D01*
X121984895Y-33874625D01*
X122261823Y-34158544D01*
X122261833Y-34158554D01*
X122565676Y-34413508D01*
X122893394Y-34636942D01*
X123241730Y-34826636D01*
X123607223Y-34980704D01*
X123607232Y-34980706D01*
X123607238Y-34980709D01*
X123986235Y-35097614D01*
X123986248Y-35097617D01*
X124374999Y-35176205D01*
X124375014Y-35176208D01*
X124713299Y-35210058D01*
X124769680Y-35215700D01*
X124769681Y-35215700D01*
X125067103Y-35215700D01*
X125265130Y-35205816D01*
X125364145Y-35200875D01*
X125756353Y-35141759D01*
X126140726Y-35043886D01*
X126513445Y-34908228D01*
X126870803Y-34736133D01*
X127209251Y-34529312D01*
X127525424Y-34289820D01*
X127816181Y-34020037D01*
X128078631Y-33722645D01*
X128310166Y-33400600D01*
X128508485Y-33057101D01*
X128671617Y-32695563D01*
X128797941Y-32319578D01*
X128886201Y-31932885D01*
X128935521Y-31539325D01*
X128941076Y-31316554D01*
X128945409Y-31142826D01*
X128945409Y-31142810D01*
X128936323Y-31021559D01*
X128915769Y-30747280D01*
X128846893Y-30356668D01*
X128739467Y-29974854D01*
X128667394Y-29791216D01*
X128594564Y-29605646D01*
X128594559Y-29605634D01*
X128413613Y-29252685D01*
X128413609Y-29252677D01*
X128198414Y-28919491D01*
X127951114Y-28609386D01*
X127951111Y-28609383D01*
X127951104Y-28609374D01*
X127674176Y-28325455D01*
X127674173Y-28325452D01*
X127674172Y-28325451D01*
X127674167Y-28325446D01*
X127370324Y-28070492D01*
X127262292Y-27996837D01*
X127042605Y-27847057D01*
X126926494Y-27783826D01*
X126694270Y-27657364D01*
X126694262Y-27657360D01*
X126694259Y-27657359D01*
X126328777Y-27503296D01*
X126328761Y-27503290D01*
X125949764Y-27386385D01*
X125949751Y-27386382D01*
X125561000Y-27307794D01*
X125560979Y-27307791D01*
X125166320Y-27268300D01*
X125166319Y-27268300D01*
X124868899Y-27268300D01*
X124868897Y-27268300D01*
X124571855Y-27283124D01*
X124179647Y-27342241D01*
X123795272Y-27440114D01*
X123422549Y-27575774D01*
X123065191Y-27747869D01*
X122726753Y-27954684D01*
X122726742Y-27954692D01*
X122410575Y-28194180D01*
X122410572Y-28194182D01*
X122119813Y-28463968D01*
X121857365Y-28761359D01*
X121625839Y-29083393D01*
X121625826Y-29083413D01*
X121427516Y-29426896D01*
X121264382Y-29788437D01*
X121138059Y-30164419D01*
X121049799Y-30551111D01*
X121000478Y-30944681D01*
X120990590Y-31341173D01*
X120990590Y-31341187D01*
X102797496Y-31341187D01*
X102790894Y-31316550D01*
X102697534Y-31116339D01*
X102577339Y-30944681D01*
X102570827Y-30935381D01*
X102570823Y-30935377D01*
X102414620Y-30779174D01*
X102414616Y-30779171D01*
X102414615Y-30779170D01*
X102233666Y-30652468D01*
X102233662Y-30652466D01*
X102130339Y-30604286D01*
X102033450Y-30559106D01*
X102033447Y-30559105D01*
X102033445Y-30559104D01*
X101820070Y-30501930D01*
X101820062Y-30501929D01*
X101600002Y-30482677D01*
X101599998Y-30482677D01*
X101379937Y-30501929D01*
X101379929Y-30501930D01*
X101166554Y-30559104D01*
X101166548Y-30559107D01*
X100966340Y-30652465D01*
X100966338Y-30652466D01*
X100785377Y-30779175D01*
X100629175Y-30935377D01*
X100502466Y-31116338D01*
X100502465Y-31116340D01*
X100442382Y-31245189D01*
X100396209Y-31297628D01*
X100329016Y-31316780D01*
X100262135Y-31296564D01*
X100217618Y-31245189D01*
X100169885Y-31142826D01*
X100157534Y-31116339D01*
X100037339Y-30944681D01*
X100030827Y-30935381D01*
X100030823Y-30935377D01*
X99874620Y-30779174D01*
X99874616Y-30779171D01*
X99874615Y-30779170D01*
X99693666Y-30652468D01*
X99693662Y-30652466D01*
X99590339Y-30604286D01*
X99493450Y-30559106D01*
X99493447Y-30559105D01*
X99493445Y-30559104D01*
X99280070Y-30501930D01*
X99280062Y-30501929D01*
X99060002Y-30482677D01*
X99059998Y-30482677D01*
X98839937Y-30501929D01*
X98839929Y-30501930D01*
X98626554Y-30559104D01*
X98626548Y-30559107D01*
X98426340Y-30652465D01*
X98426338Y-30652466D01*
X98245377Y-30779175D01*
X98089175Y-30935377D01*
X97962466Y-31116338D01*
X97962465Y-31116340D01*
X97902382Y-31245189D01*
X97856209Y-31297628D01*
X97789016Y-31316780D01*
X97722135Y-31296564D01*
X97677618Y-31245189D01*
X97629885Y-31142826D01*
X97617534Y-31116339D01*
X97497339Y-30944681D01*
X97490827Y-30935381D01*
X97490823Y-30935377D01*
X97334620Y-30779174D01*
X97334616Y-30779171D01*
X97334615Y-30779170D01*
X97153666Y-30652468D01*
X97153662Y-30652466D01*
X97050339Y-30604286D01*
X96953450Y-30559106D01*
X96953447Y-30559105D01*
X96953445Y-30559104D01*
X96740070Y-30501930D01*
X96740062Y-30501929D01*
X96520002Y-30482677D01*
X96519998Y-30482677D01*
X96299937Y-30501929D01*
X96299929Y-30501930D01*
X96086554Y-30559104D01*
X96086548Y-30559107D01*
X95886340Y-30652465D01*
X95886338Y-30652466D01*
X95705377Y-30779175D01*
X95549175Y-30935377D01*
X95422466Y-31116338D01*
X95422465Y-31116340D01*
X95362382Y-31245189D01*
X95316209Y-31297628D01*
X95249016Y-31316780D01*
X95182135Y-31296564D01*
X95137618Y-31245189D01*
X95089885Y-31142826D01*
X95077534Y-31116339D01*
X94957339Y-30944681D01*
X94950827Y-30935381D01*
X94950823Y-30935377D01*
X94794620Y-30779174D01*
X94794616Y-30779171D01*
X94794615Y-30779170D01*
X94613666Y-30652468D01*
X94613662Y-30652466D01*
X94510339Y-30604286D01*
X94413450Y-30559106D01*
X94413447Y-30559105D01*
X94413445Y-30559104D01*
X94200070Y-30501930D01*
X94200062Y-30501929D01*
X93980002Y-30482677D01*
X93979998Y-30482677D01*
X93759937Y-30501929D01*
X93759929Y-30501930D01*
X93546554Y-30559104D01*
X93546548Y-30559107D01*
X93346340Y-30652465D01*
X93346338Y-30652466D01*
X93165377Y-30779175D01*
X93009175Y-30935377D01*
X92882466Y-31116338D01*
X92882465Y-31116340D01*
X92822382Y-31245189D01*
X92776209Y-31297628D01*
X92709016Y-31316780D01*
X92642135Y-31296564D01*
X92597618Y-31245189D01*
X92549885Y-31142826D01*
X92537534Y-31116339D01*
X92417339Y-30944681D01*
X92410827Y-30935381D01*
X92410823Y-30935377D01*
X92254620Y-30779174D01*
X92254616Y-30779171D01*
X92254615Y-30779170D01*
X92073666Y-30652468D01*
X92073662Y-30652466D01*
X91970339Y-30604286D01*
X91873450Y-30559106D01*
X91873447Y-30559105D01*
X91873445Y-30559104D01*
X91660070Y-30501930D01*
X91660062Y-30501929D01*
X91440002Y-30482677D01*
X91439998Y-30482677D01*
X91219937Y-30501929D01*
X91219929Y-30501930D01*
X91006554Y-30559104D01*
X91006548Y-30559107D01*
X90806340Y-30652465D01*
X90806338Y-30652466D01*
X90625377Y-30779175D01*
X90469175Y-30935377D01*
X90342466Y-31116338D01*
X90342465Y-31116340D01*
X90282382Y-31245189D01*
X90236209Y-31297628D01*
X90169016Y-31316780D01*
X90102135Y-31296564D01*
X90057618Y-31245189D01*
X90009885Y-31142826D01*
X89997534Y-31116339D01*
X89877339Y-30944681D01*
X89870827Y-30935381D01*
X89870823Y-30935377D01*
X89714620Y-30779174D01*
X89714616Y-30779171D01*
X89714615Y-30779170D01*
X89533666Y-30652468D01*
X89533662Y-30652466D01*
X89430339Y-30604286D01*
X89333450Y-30559106D01*
X89333447Y-30559105D01*
X89333445Y-30559104D01*
X89120070Y-30501930D01*
X89120062Y-30501929D01*
X88900002Y-30482677D01*
X88899998Y-30482677D01*
X88679937Y-30501929D01*
X88679929Y-30501930D01*
X88466554Y-30559104D01*
X88466548Y-30559107D01*
X88266340Y-30652465D01*
X88266338Y-30652466D01*
X88085377Y-30779175D01*
X87929175Y-30935377D01*
X87802466Y-31116338D01*
X87802465Y-31116340D01*
X87709107Y-31316548D01*
X87709104Y-31316554D01*
X87651930Y-31529929D01*
X87651929Y-31529937D01*
X87632677Y-31749997D01*
X87632677Y-31750002D01*
X87651929Y-31970062D01*
X87651930Y-31970070D01*
X87709104Y-32183445D01*
X87709105Y-32183447D01*
X87709106Y-32183450D01*
X87742382Y-32254811D01*
X87802466Y-32383662D01*
X87802468Y-32383666D01*
X87890334Y-32509151D01*
X87929174Y-32564620D01*
X88085380Y-32720826D01*
X88219624Y-32814824D01*
X88263248Y-32869399D01*
X88272500Y-32916398D01*
X88272500Y-37315575D01*
X88252815Y-37382614D01*
X88213780Y-37421001D01*
X88201275Y-37428743D01*
X88043160Y-37572884D01*
X87914219Y-37743629D01*
X87818849Y-37935158D01*
X87818846Y-37935164D01*
X87760296Y-38140949D01*
X87760295Y-38140952D01*
X87753471Y-38214604D01*
X87727685Y-38279542D01*
X87670884Y-38320229D01*
X87601103Y-38323749D01*
X87540497Y-38288984D01*
X87508307Y-38226971D01*
X87506529Y-38214604D01*
X87499704Y-38140952D01*
X87499703Y-38140949D01*
X87441153Y-37935164D01*
X87441150Y-37935158D01*
X87345781Y-37743630D01*
X87216841Y-37572886D01*
X87058722Y-37428742D01*
X87058716Y-37428738D01*
X87058713Y-37428736D01*
X86876813Y-37316108D01*
X86876807Y-37316106D01*
X86677297Y-37238815D01*
X86466980Y-37199500D01*
X86253020Y-37199500D01*
X86042703Y-37238815D01*
X85916533Y-37287693D01*
X85843192Y-37316106D01*
X85843186Y-37316108D01*
X85661286Y-37428736D01*
X85661283Y-37428738D01*
X85661279Y-37428740D01*
X85661278Y-37428742D01*
X85503161Y-37572884D01*
X85503158Y-37572887D01*
X85374219Y-37743629D01*
X85278849Y-37935158D01*
X85278846Y-37935164D01*
X85220296Y-38140949D01*
X85220295Y-38140952D01*
X85213471Y-38214604D01*
X85187685Y-38279542D01*
X85130884Y-38320229D01*
X85061103Y-38323749D01*
X85000497Y-38288984D01*
X84968307Y-38226971D01*
X84966529Y-38214604D01*
X84959704Y-38140952D01*
X84959703Y-38140949D01*
X84901153Y-37935164D01*
X84901150Y-37935158D01*
X84805781Y-37743630D01*
X84676841Y-37572886D01*
X84518722Y-37428742D01*
X84518716Y-37428738D01*
X84518713Y-37428736D01*
X84336813Y-37316108D01*
X84336807Y-37316106D01*
X84137297Y-37238815D01*
X83926980Y-37199500D01*
X83713020Y-37199500D01*
X83502703Y-37238815D01*
X83376533Y-37287693D01*
X83303192Y-37316106D01*
X83303186Y-37316108D01*
X83121286Y-37428736D01*
X83121283Y-37428738D01*
X83121279Y-37428740D01*
X83121278Y-37428742D01*
X82963161Y-37572884D01*
X82963158Y-37572887D01*
X82834219Y-37743629D01*
X82738849Y-37935158D01*
X82738846Y-37935164D01*
X82680296Y-38140949D01*
X82680295Y-38140952D01*
X82673471Y-38214604D01*
X82647685Y-38279542D01*
X82590884Y-38320229D01*
X82521103Y-38323749D01*
X82460497Y-38288984D01*
X82428307Y-38226971D01*
X82426529Y-38214604D01*
X82419704Y-38140952D01*
X82419703Y-38140949D01*
X82361153Y-37935164D01*
X82361150Y-37935158D01*
X82265781Y-37743630D01*
X82136841Y-37572886D01*
X81978722Y-37428742D01*
X81978716Y-37428738D01*
X81978713Y-37428736D01*
X81796813Y-37316108D01*
X81796807Y-37316106D01*
X81597297Y-37238815D01*
X81386980Y-37199500D01*
X81173020Y-37199500D01*
X80962703Y-37238815D01*
X80836533Y-37287693D01*
X80763192Y-37316106D01*
X80763186Y-37316108D01*
X80581286Y-37428736D01*
X80581283Y-37428738D01*
X80581279Y-37428740D01*
X80581278Y-37428742D01*
X80423161Y-37572884D01*
X80423158Y-37572887D01*
X80294219Y-37743629D01*
X80198849Y-37935158D01*
X80198846Y-37935164D01*
X80140296Y-38140949D01*
X80140295Y-38140952D01*
X80133471Y-38214604D01*
X80107685Y-38279542D01*
X80050884Y-38320229D01*
X79981103Y-38323749D01*
X79920497Y-38288984D01*
X79888307Y-38226971D01*
X79886529Y-38214604D01*
X79879704Y-38140952D01*
X79879703Y-38140949D01*
X79821153Y-37935164D01*
X79821150Y-37935158D01*
X79725781Y-37743630D01*
X79596841Y-37572886D01*
X79438722Y-37428742D01*
X79438716Y-37428738D01*
X79438713Y-37428736D01*
X79256813Y-37316108D01*
X79256807Y-37316106D01*
X79057297Y-37238815D01*
X78846980Y-37199500D01*
X78633020Y-37199500D01*
X78422703Y-37238815D01*
X78296533Y-37287693D01*
X78223192Y-37316106D01*
X78223186Y-37316108D01*
X78041286Y-37428736D01*
X78041283Y-37428738D01*
X78041279Y-37428740D01*
X78041278Y-37428742D01*
X77883161Y-37572884D01*
X77883158Y-37572887D01*
X77754219Y-37743629D01*
X77658849Y-37935158D01*
X77658846Y-37935164D01*
X77600296Y-38140949D01*
X77600295Y-38140952D01*
X77593471Y-38214604D01*
X77567685Y-38279542D01*
X77510884Y-38320229D01*
X77441103Y-38323749D01*
X77380497Y-38288984D01*
X77348307Y-38226971D01*
X77346529Y-38214604D01*
X77339704Y-38140952D01*
X77339703Y-38140949D01*
X77281153Y-37935164D01*
X77281150Y-37935158D01*
X77185781Y-37743630D01*
X77056841Y-37572886D01*
X76898722Y-37428742D01*
X76898716Y-37428738D01*
X76898713Y-37428736D01*
X76716813Y-37316108D01*
X76716807Y-37316106D01*
X76517297Y-37238815D01*
X76306980Y-37199500D01*
X76093020Y-37199500D01*
X75882703Y-37238815D01*
X75756533Y-37287693D01*
X75683192Y-37316106D01*
X75683186Y-37316108D01*
X75501286Y-37428736D01*
X75501283Y-37428738D01*
X75501279Y-37428740D01*
X75501278Y-37428742D01*
X75343161Y-37572884D01*
X75343158Y-37572887D01*
X75214219Y-37743629D01*
X75118849Y-37935158D01*
X75118846Y-37935164D01*
X75060296Y-38140949D01*
X75060295Y-38140952D01*
X75053471Y-38214604D01*
X75027685Y-38279542D01*
X74970884Y-38320229D01*
X74901103Y-38323749D01*
X74840497Y-38288984D01*
X74808307Y-38226971D01*
X74806529Y-38214604D01*
X74799704Y-38140952D01*
X74799703Y-38140949D01*
X74741153Y-37935164D01*
X74741150Y-37935158D01*
X74645781Y-37743630D01*
X74516841Y-37572886D01*
X74358722Y-37428742D01*
X74358716Y-37428738D01*
X74358713Y-37428736D01*
X74176813Y-37316108D01*
X74176807Y-37316106D01*
X73977297Y-37238815D01*
X73766980Y-37199500D01*
X73553020Y-37199500D01*
X73342703Y-37238815D01*
X73216533Y-37287693D01*
X73143192Y-37316106D01*
X73143186Y-37316108D01*
X72961286Y-37428736D01*
X72961283Y-37428738D01*
X72961279Y-37428740D01*
X72961278Y-37428742D01*
X72803161Y-37572884D01*
X72803158Y-37572887D01*
X72674219Y-37743629D01*
X72578849Y-37935158D01*
X72578846Y-37935164D01*
X72520296Y-38140949D01*
X72520295Y-38140952D01*
X72500554Y-38353999D01*
X72500554Y-38354000D01*
X72520295Y-38567047D01*
X72520296Y-38567050D01*
X72578846Y-38772835D01*
X72578849Y-38772840D01*
X72674219Y-38964370D01*
X72803159Y-39135114D01*
X72961278Y-39279258D01*
X72961283Y-39279261D01*
X72961286Y-39279263D01*
X73143186Y-39391891D01*
X73143187Y-39391891D01*
X73143190Y-39391893D01*
X73342703Y-39469185D01*
X73445693Y-39488437D01*
X73507972Y-39520104D01*
X73543245Y-39580416D01*
X73540311Y-39650224D01*
X73500102Y-39707365D01*
X73447110Y-39731940D01*
X73314628Y-39758306D01*
X73161925Y-39821569D01*
X73089645Y-39869868D01*
X73022968Y-39890747D01*
X72955588Y-39872264D01*
X72951867Y-39869873D01*
X72879513Y-39821533D01*
X72879510Y-39821531D01*
X72879509Y-39821531D01*
X72816254Y-39795332D01*
X72726783Y-39758276D01*
X72594367Y-39731940D01*
X72564653Y-39726030D01*
X72564652Y-39726030D01*
X72482000Y-39726031D01*
X72436060Y-39726031D01*
X72435901Y-39726021D01*
X72359388Y-39726031D01*
X72318174Y-39726031D01*
X72317934Y-39726038D01*
X72276741Y-39726043D01*
X72276739Y-39726043D01*
X72114629Y-39758305D01*
X71961924Y-39821569D01*
X71824492Y-39913404D01*
X71824490Y-39913406D01*
X71707611Y-40030284D01*
X71707608Y-40030288D01*
X71628685Y-40148395D01*
X71575071Y-40193198D01*
X71525586Y-40203500D01*
X52901229Y-40203500D01*
X52893130Y-40202969D01*
X52857801Y-40198318D01*
X52818440Y-40203500D01*
X52701040Y-40218955D01*
X52701038Y-40218956D01*
X52554958Y-40279464D01*
X52429520Y-40375715D01*
X52411474Y-40399233D01*
X52355044Y-40440434D01*
X52285298Y-40444586D01*
X52262666Y-40437023D01*
X52232570Y-40423623D01*
X52086769Y-40392633D01*
X52047414Y-40384268D01*
X51858122Y-40384268D01*
X51825665Y-40391166D01*
X51672965Y-40423623D01*
X51672960Y-40423625D01*
X51500038Y-40500616D01*
X51500033Y-40500619D01*
X51346897Y-40611879D01*
X51220234Y-40752553D01*
X51125589Y-40916483D01*
X51125586Y-40916490D01*
X51067095Y-41096508D01*
X51067094Y-41096512D01*
X51047308Y-41284768D01*
X51067094Y-41473024D01*
X51067095Y-41473027D01*
X51125586Y-41653045D01*
X51125589Y-41653052D01*
X51220235Y-41816984D01*
X51286716Y-41890818D01*
X51346897Y-41957656D01*
X51349889Y-41960350D01*
X51351116Y-41962341D01*
X51351246Y-41962486D01*
X51351219Y-41962509D01*
X51386538Y-42019836D01*
X51385208Y-42089693D01*
X51346321Y-42147742D01*
X51282225Y-42175552D01*
X51266917Y-42176500D01*
X44400965Y-42176500D01*
X44385314Y-42174772D01*
X44385288Y-42175054D01*
X44377525Y-42174319D01*
X44308154Y-42176500D01*
X44278521Y-42176500D01*
X44271607Y-42177373D01*
X44265790Y-42177830D01*
X44219058Y-42179299D01*
X44219054Y-42179300D01*
X44199722Y-42184916D01*
X44180682Y-42188859D01*
X44160712Y-42191382D01*
X44160708Y-42191383D01*
X44117237Y-42208594D01*
X44111710Y-42210486D01*
X44066812Y-42223530D01*
X44066805Y-42223533D01*
X44049480Y-42233779D01*
X44032010Y-42242337D01*
X44013298Y-42249745D01*
X43975463Y-42277233D01*
X43970580Y-42280440D01*
X43930346Y-42304234D01*
X43916106Y-42318474D01*
X43901320Y-42331102D01*
X43885033Y-42342936D01*
X43885032Y-42342936D01*
X43855227Y-42378963D01*
X43851295Y-42383284D01*
X38675400Y-47559181D01*
X38614077Y-47592666D01*
X38587719Y-47595500D01*
X37088022Y-47595500D01*
X37020983Y-47575815D01*
X36975228Y-47523011D01*
X36965284Y-47453853D01*
X36994309Y-47390297D01*
X37003138Y-47381108D01*
X37080890Y-47308094D01*
X37281447Y-47065663D01*
X37450037Y-46800007D01*
X37584003Y-46515315D01*
X37681231Y-46216079D01*
X37740188Y-45907015D01*
X37742560Y-45869310D01*
X37759944Y-45593005D01*
X37759944Y-45592994D01*
X37740189Y-45278995D01*
X37740188Y-45278988D01*
X37740188Y-45278985D01*
X37681231Y-44969921D01*
X37584003Y-44670685D01*
X37450037Y-44385993D01*
X37281447Y-44120337D01*
X37281445Y-44120334D01*
X37080893Y-43877909D01*
X37080891Y-43877907D01*
X36945394Y-43750666D01*
X36851530Y-43662522D01*
X36851527Y-43662520D01*
X36851521Y-43662515D01*
X36596995Y-43477591D01*
X36596988Y-43477586D01*
X36596984Y-43477584D01*
X36321266Y-43326006D01*
X36321263Y-43326004D01*
X36321258Y-43326002D01*
X36321257Y-43326001D01*
X36028728Y-43210181D01*
X36028725Y-43210180D01*
X35723976Y-43131934D01*
X35723963Y-43131932D01*
X35411829Y-43092500D01*
X35411818Y-43092500D01*
X35097182Y-43092500D01*
X35097170Y-43092500D01*
X34785036Y-43131932D01*
X34785023Y-43131934D01*
X34480274Y-43210180D01*
X34480271Y-43210181D01*
X34187742Y-43326001D01*
X34187741Y-43326002D01*
X33912016Y-43477584D01*
X33912004Y-43477591D01*
X33657478Y-43662515D01*
X33657468Y-43662523D01*
X33428108Y-43877907D01*
X33428106Y-43877909D01*
X33227554Y-44120334D01*
X33227551Y-44120338D01*
X33058964Y-44385990D01*
X33058961Y-44385996D01*
X32924999Y-44670678D01*
X32924997Y-44670683D01*
X32827770Y-44969916D01*
X32768811Y-45278988D01*
X32768810Y-45278995D01*
X32749056Y-45592994D01*
X32749056Y-45593005D01*
X32768810Y-45907004D01*
X32768811Y-45907011D01*
X32768812Y-45907015D01*
X32808790Y-46116590D01*
X32827770Y-46216083D01*
X32899698Y-46437454D01*
X32901693Y-46507295D01*
X32865613Y-46567128D01*
X32802912Y-46597956D01*
X32733497Y-46589991D01*
X32698230Y-46567410D01*
X32691062Y-46560876D01*
X32691060Y-46560874D01*
X32501904Y-46443754D01*
X32501898Y-46443752D01*
X32485641Y-46437454D01*
X32294440Y-46363382D01*
X32075743Y-46322500D01*
X31853257Y-46322500D01*
X31634560Y-46363382D01*
X31503364Y-46414207D01*
X31427101Y-46443752D01*
X31427095Y-46443754D01*
X31237939Y-46560874D01*
X31237937Y-46560876D01*
X31073520Y-46710761D01*
X30939443Y-46888308D01*
X30939438Y-46888316D01*
X30840275Y-47087461D01*
X30840269Y-47087476D01*
X30779385Y-47301462D01*
X30779384Y-47301464D01*
X30758857Y-47522999D01*
X30758857Y-47523000D01*
X23876500Y-47523000D01*
X23876500Y-38354000D01*
X67420554Y-38354000D01*
X67440295Y-38567047D01*
X67440296Y-38567050D01*
X67498846Y-38772835D01*
X67498849Y-38772840D01*
X67594219Y-38964370D01*
X67723159Y-39135114D01*
X67881278Y-39279258D01*
X67881283Y-39279261D01*
X67881286Y-39279263D01*
X68063186Y-39391891D01*
X68063187Y-39391891D01*
X68063190Y-39391893D01*
X68262703Y-39469185D01*
X68473020Y-39508500D01*
X68473022Y-39508500D01*
X68686978Y-39508500D01*
X68686980Y-39508500D01*
X68897297Y-39469185D01*
X69096810Y-39391893D01*
X69278722Y-39279258D01*
X69436841Y-39135114D01*
X69565781Y-38964370D01*
X69661151Y-38772840D01*
X69661151Y-38772837D01*
X69661153Y-38772835D01*
X69719703Y-38567050D01*
X69719704Y-38567047D01*
X69739446Y-38354000D01*
X69739446Y-38353999D01*
X69719704Y-38140952D01*
X69719703Y-38140949D01*
X69661153Y-37935164D01*
X69661150Y-37935158D01*
X69565781Y-37743630D01*
X69436841Y-37572886D01*
X69278722Y-37428742D01*
X69278716Y-37428738D01*
X69278713Y-37428736D01*
X69096813Y-37316108D01*
X69096807Y-37316106D01*
X68897297Y-37238815D01*
X68686980Y-37199500D01*
X68473020Y-37199500D01*
X68262703Y-37238815D01*
X68136533Y-37287693D01*
X68063192Y-37316106D01*
X68063186Y-37316108D01*
X67881286Y-37428736D01*
X67881283Y-37428738D01*
X67881279Y-37428740D01*
X67881278Y-37428742D01*
X67723161Y-37572884D01*
X67723158Y-37572887D01*
X67594219Y-37743629D01*
X67498849Y-37935158D01*
X67498846Y-37935164D01*
X67440296Y-38140949D01*
X67440295Y-38140952D01*
X67420554Y-38353999D01*
X67420554Y-38354000D01*
X23876500Y-38354000D01*
X23876500Y-31876999D01*
X23881752Y-31750002D01*
X80012677Y-31750002D01*
X80031929Y-31970062D01*
X80031930Y-31970070D01*
X80089104Y-32183445D01*
X80089105Y-32183447D01*
X80089106Y-32183450D01*
X80122382Y-32254811D01*
X80182466Y-32383662D01*
X80182468Y-32383666D01*
X80309170Y-32564615D01*
X80309175Y-32564621D01*
X80465378Y-32720824D01*
X80465384Y-32720829D01*
X80646333Y-32847531D01*
X80646335Y-32847532D01*
X80646338Y-32847534D01*
X80846550Y-32940894D01*
X81059932Y-32998070D01*
X81217123Y-33011822D01*
X81279998Y-33017323D01*
X81280000Y-33017323D01*
X81280002Y-33017323D01*
X81335017Y-33012509D01*
X81500068Y-32998070D01*
X81713450Y-32940894D01*
X81913662Y-32847534D01*
X82094620Y-32720826D01*
X82250826Y-32564620D01*
X82377534Y-32383662D01*
X82470894Y-32183450D01*
X82528070Y-31970068D01*
X82547323Y-31750000D01*
X82546160Y-31736711D01*
X82539423Y-31659701D01*
X82528070Y-31529932D01*
X82470894Y-31316550D01*
X82377534Y-31116339D01*
X82257339Y-30944681D01*
X82250827Y-30935381D01*
X82250823Y-30935377D01*
X82094620Y-30779174D01*
X82094616Y-30779171D01*
X82094615Y-30779170D01*
X81913666Y-30652468D01*
X81913662Y-30652466D01*
X81810339Y-30604286D01*
X81713450Y-30559106D01*
X81713447Y-30559105D01*
X81713445Y-30559104D01*
X81500070Y-30501930D01*
X81500062Y-30501929D01*
X81280002Y-30482677D01*
X81279998Y-30482677D01*
X81059937Y-30501929D01*
X81059929Y-30501930D01*
X80846554Y-30559104D01*
X80846548Y-30559107D01*
X80646340Y-30652465D01*
X80646338Y-30652466D01*
X80465377Y-30779175D01*
X80309175Y-30935377D01*
X80182466Y-31116338D01*
X80182465Y-31116340D01*
X80089107Y-31316548D01*
X80089104Y-31316554D01*
X80031930Y-31529929D01*
X80031929Y-31529937D01*
X80012677Y-31749997D01*
X80012677Y-31750002D01*
X23881752Y-31750002D01*
X23885489Y-31659657D01*
X23894457Y-31454263D01*
X23894869Y-31449349D01*
X23922056Y-31231247D01*
X23949059Y-31026141D01*
X23949835Y-31021588D01*
X23994904Y-30806646D01*
X24039768Y-30604278D01*
X24040865Y-30600044D01*
X24103533Y-30389549D01*
X24113903Y-30356660D01*
X24165945Y-30191602D01*
X24167270Y-30187838D01*
X24247169Y-29983075D01*
X24250572Y-29974862D01*
X24326640Y-29791216D01*
X24328185Y-29787789D01*
X24424759Y-29590243D01*
X24520712Y-29405921D01*
X24522428Y-29402842D01*
X24635020Y-29213889D01*
X24746794Y-29038441D01*
X24748555Y-29035831D01*
X24876462Y-28856686D01*
X25003169Y-28691559D01*
X25004999Y-28689289D01*
X25147331Y-28521237D01*
X25288951Y-28366686D01*
X25445686Y-28209951D01*
X25600237Y-28068331D01*
X25768289Y-27925999D01*
X25770559Y-27924169D01*
X25935670Y-27797473D01*
X26114831Y-27669555D01*
X26117441Y-27667794D01*
X26292889Y-27556020D01*
X26481842Y-27443428D01*
X26484921Y-27441712D01*
X26669243Y-27345759D01*
X26866789Y-27249185D01*
X26870216Y-27247640D01*
X27062059Y-27168175D01*
X27266838Y-27088270D01*
X27270602Y-27086945D01*
X27451892Y-27029784D01*
X27468550Y-27024533D01*
X27494593Y-27016779D01*
X27679044Y-26961865D01*
X27683278Y-26960768D01*
X27885646Y-26915904D01*
X28100588Y-26870835D01*
X28105141Y-26870059D01*
X28310278Y-26843052D01*
X28528349Y-26815869D01*
X28533263Y-26815457D01*
X28738364Y-26806501D01*
X28956000Y-26797500D01*
X28956500Y-26797500D01*
X124459500Y-26797500D01*
X124460000Y-26797500D01*
X124677525Y-26806496D01*
G37*
%TD.AperFunction*%
%TD*%
M02*
