%TF.GenerationSoftware,KiCad,Pcbnew,7.0.7*%
%TF.CreationDate,2024-03-26T15:49:53-05:00*%
%TF.ProjectId,InstrumentsBoard,496e7374-7275-46d6-956e-7473426f6172,rev?*%
%TF.SameCoordinates,Original*%
%TF.FileFunction,Legend,Top*%
%TF.FilePolarity,Positive*%
%FSLAX46Y46*%
G04 Gerber Fmt 4.6, Leading zero omitted, Abs format (unit mm)*
G04 Created by KiCad (PCBNEW 7.0.7) date 2024-03-26 15:49:53*
%MOMM*%
%LPD*%
G01*
G04 APERTURE LIST*
%ADD10C,0.203200*%
%ADD11C,0.254000*%
%ADD12C,0.150000*%
%ADD13C,0.120000*%
%ADD14C,0.127000*%
%ADD15C,0.200000*%
G04 APERTURE END LIST*
D10*
X49478112Y-62064009D02*
X50264303Y-62064009D01*
X50264303Y-62064009D02*
X49840969Y-62547818D01*
X49840969Y-62547818D02*
X50022398Y-62547818D01*
X50022398Y-62547818D02*
X50143350Y-62608294D01*
X50143350Y-62608294D02*
X50203826Y-62668771D01*
X50203826Y-62668771D02*
X50264303Y-62789723D01*
X50264303Y-62789723D02*
X50264303Y-63092104D01*
X50264303Y-63092104D02*
X50203826Y-63213056D01*
X50203826Y-63213056D02*
X50143350Y-63273533D01*
X50143350Y-63273533D02*
X50022398Y-63334009D01*
X50022398Y-63334009D02*
X49659541Y-63334009D01*
X49659541Y-63334009D02*
X49538588Y-63273533D01*
X49538588Y-63273533D02*
X49478112Y-63213056D01*
X50627160Y-62064009D02*
X51050493Y-63334009D01*
X51050493Y-63334009D02*
X51473827Y-62064009D01*
X51776207Y-62064009D02*
X52562398Y-62064009D01*
X52562398Y-62064009D02*
X52139064Y-62547818D01*
X52139064Y-62547818D02*
X52320493Y-62547818D01*
X52320493Y-62547818D02*
X52441445Y-62608294D01*
X52441445Y-62608294D02*
X52501921Y-62668771D01*
X52501921Y-62668771D02*
X52562398Y-62789723D01*
X52562398Y-62789723D02*
X52562398Y-63092104D01*
X52562398Y-63092104D02*
X52501921Y-63213056D01*
X52501921Y-63213056D02*
X52441445Y-63273533D01*
X52441445Y-63273533D02*
X52320493Y-63334009D01*
X52320493Y-63334009D02*
X51957636Y-63334009D01*
X51957636Y-63334009D02*
X51836683Y-63273533D01*
X51836683Y-63273533D02*
X51776207Y-63213056D01*
X27265085Y-32305490D02*
X27265085Y-31086290D01*
X27845656Y-31492690D02*
X27845656Y-32305490D01*
X27845656Y-31608804D02*
X27903713Y-31550747D01*
X27903713Y-31550747D02*
X28019828Y-31492690D01*
X28019828Y-31492690D02*
X28193999Y-31492690D01*
X28193999Y-31492690D02*
X28310113Y-31550747D01*
X28310113Y-31550747D02*
X28368171Y-31666861D01*
X28368171Y-31666861D02*
X28368171Y-32305490D01*
X28890685Y-32247433D02*
X29006799Y-32305490D01*
X29006799Y-32305490D02*
X29239028Y-32305490D01*
X29239028Y-32305490D02*
X29355142Y-32247433D01*
X29355142Y-32247433D02*
X29413199Y-32131318D01*
X29413199Y-32131318D02*
X29413199Y-32073261D01*
X29413199Y-32073261D02*
X29355142Y-31957147D01*
X29355142Y-31957147D02*
X29239028Y-31899090D01*
X29239028Y-31899090D02*
X29064857Y-31899090D01*
X29064857Y-31899090D02*
X28948742Y-31841033D01*
X28948742Y-31841033D02*
X28890685Y-31724918D01*
X28890685Y-31724918D02*
X28890685Y-31666861D01*
X28890685Y-31666861D02*
X28948742Y-31550747D01*
X28948742Y-31550747D02*
X29064857Y-31492690D01*
X29064857Y-31492690D02*
X29239028Y-31492690D01*
X29239028Y-31492690D02*
X29355142Y-31550747D01*
X29761542Y-31492690D02*
X30225999Y-31492690D01*
X29935713Y-31086290D02*
X29935713Y-32131318D01*
X29935713Y-32131318D02*
X29993770Y-32247433D01*
X29993770Y-32247433D02*
X30109885Y-32305490D01*
X30109885Y-32305490D02*
X30225999Y-32305490D01*
X30632399Y-32305490D02*
X30632399Y-31492690D01*
X30632399Y-31724918D02*
X30690456Y-31608804D01*
X30690456Y-31608804D02*
X30748514Y-31550747D01*
X30748514Y-31550747D02*
X30864628Y-31492690D01*
X30864628Y-31492690D02*
X30980742Y-31492690D01*
X31909657Y-31492690D02*
X31909657Y-32305490D01*
X31387142Y-31492690D02*
X31387142Y-32131318D01*
X31387142Y-32131318D02*
X31445199Y-32247433D01*
X31445199Y-32247433D02*
X31561314Y-32305490D01*
X31561314Y-32305490D02*
X31735485Y-32305490D01*
X31735485Y-32305490D02*
X31851599Y-32247433D01*
X31851599Y-32247433D02*
X31909657Y-32189375D01*
X32490228Y-32305490D02*
X32490228Y-31492690D01*
X32490228Y-31608804D02*
X32548285Y-31550747D01*
X32548285Y-31550747D02*
X32664400Y-31492690D01*
X32664400Y-31492690D02*
X32838571Y-31492690D01*
X32838571Y-31492690D02*
X32954685Y-31550747D01*
X32954685Y-31550747D02*
X33012743Y-31666861D01*
X33012743Y-31666861D02*
X33012743Y-32305490D01*
X33012743Y-31666861D02*
X33070800Y-31550747D01*
X33070800Y-31550747D02*
X33186914Y-31492690D01*
X33186914Y-31492690D02*
X33361085Y-31492690D01*
X33361085Y-31492690D02*
X33477200Y-31550747D01*
X33477200Y-31550747D02*
X33535257Y-31666861D01*
X33535257Y-31666861D02*
X33535257Y-32305490D01*
X34580285Y-32247433D02*
X34464171Y-32305490D01*
X34464171Y-32305490D02*
X34231943Y-32305490D01*
X34231943Y-32305490D02*
X34115828Y-32247433D01*
X34115828Y-32247433D02*
X34057771Y-32131318D01*
X34057771Y-32131318D02*
X34057771Y-31666861D01*
X34057771Y-31666861D02*
X34115828Y-31550747D01*
X34115828Y-31550747D02*
X34231943Y-31492690D01*
X34231943Y-31492690D02*
X34464171Y-31492690D01*
X34464171Y-31492690D02*
X34580285Y-31550747D01*
X34580285Y-31550747D02*
X34638343Y-31666861D01*
X34638343Y-31666861D02*
X34638343Y-31782975D01*
X34638343Y-31782975D02*
X34057771Y-31899090D01*
X35160857Y-31492690D02*
X35160857Y-32305490D01*
X35160857Y-31608804D02*
X35218914Y-31550747D01*
X35218914Y-31550747D02*
X35335029Y-31492690D01*
X35335029Y-31492690D02*
X35509200Y-31492690D01*
X35509200Y-31492690D02*
X35625314Y-31550747D01*
X35625314Y-31550747D02*
X35683372Y-31666861D01*
X35683372Y-31666861D02*
X35683372Y-32305490D01*
X36089772Y-31492690D02*
X36554229Y-31492690D01*
X36263943Y-31086290D02*
X36263943Y-32131318D01*
X36263943Y-32131318D02*
X36322000Y-32247433D01*
X36322000Y-32247433D02*
X36438115Y-32305490D01*
X36438115Y-32305490D02*
X36554229Y-32305490D01*
X36902572Y-32247433D02*
X37018686Y-32305490D01*
X37018686Y-32305490D02*
X37250915Y-32305490D01*
X37250915Y-32305490D02*
X37367029Y-32247433D01*
X37367029Y-32247433D02*
X37425086Y-32131318D01*
X37425086Y-32131318D02*
X37425086Y-32073261D01*
X37425086Y-32073261D02*
X37367029Y-31957147D01*
X37367029Y-31957147D02*
X37250915Y-31899090D01*
X37250915Y-31899090D02*
X37076744Y-31899090D01*
X37076744Y-31899090D02*
X36960629Y-31841033D01*
X36960629Y-31841033D02*
X36902572Y-31724918D01*
X36902572Y-31724918D02*
X36902572Y-31666861D01*
X36902572Y-31666861D02*
X36960629Y-31550747D01*
X36960629Y-31550747D02*
X37076744Y-31492690D01*
X37076744Y-31492690D02*
X37250915Y-31492690D01*
X37250915Y-31492690D02*
X37367029Y-31550747D01*
X39282914Y-31666861D02*
X39457086Y-31724918D01*
X39457086Y-31724918D02*
X39515143Y-31782975D01*
X39515143Y-31782975D02*
X39573200Y-31899090D01*
X39573200Y-31899090D02*
X39573200Y-32073261D01*
X39573200Y-32073261D02*
X39515143Y-32189375D01*
X39515143Y-32189375D02*
X39457086Y-32247433D01*
X39457086Y-32247433D02*
X39340971Y-32305490D01*
X39340971Y-32305490D02*
X38876514Y-32305490D01*
X38876514Y-32305490D02*
X38876514Y-31086290D01*
X38876514Y-31086290D02*
X39282914Y-31086290D01*
X39282914Y-31086290D02*
X39399029Y-31144347D01*
X39399029Y-31144347D02*
X39457086Y-31202404D01*
X39457086Y-31202404D02*
X39515143Y-31318518D01*
X39515143Y-31318518D02*
X39515143Y-31434633D01*
X39515143Y-31434633D02*
X39457086Y-31550747D01*
X39457086Y-31550747D02*
X39399029Y-31608804D01*
X39399029Y-31608804D02*
X39282914Y-31666861D01*
X39282914Y-31666861D02*
X38876514Y-31666861D01*
X40269886Y-32305490D02*
X40153771Y-32247433D01*
X40153771Y-32247433D02*
X40095714Y-32189375D01*
X40095714Y-32189375D02*
X40037657Y-32073261D01*
X40037657Y-32073261D02*
X40037657Y-31724918D01*
X40037657Y-31724918D02*
X40095714Y-31608804D01*
X40095714Y-31608804D02*
X40153771Y-31550747D01*
X40153771Y-31550747D02*
X40269886Y-31492690D01*
X40269886Y-31492690D02*
X40444057Y-31492690D01*
X40444057Y-31492690D02*
X40560171Y-31550747D01*
X40560171Y-31550747D02*
X40618229Y-31608804D01*
X40618229Y-31608804D02*
X40676286Y-31724918D01*
X40676286Y-31724918D02*
X40676286Y-32073261D01*
X40676286Y-32073261D02*
X40618229Y-32189375D01*
X40618229Y-32189375D02*
X40560171Y-32247433D01*
X40560171Y-32247433D02*
X40444057Y-32305490D01*
X40444057Y-32305490D02*
X40269886Y-32305490D01*
X41721315Y-32305490D02*
X41721315Y-31666861D01*
X41721315Y-31666861D02*
X41663257Y-31550747D01*
X41663257Y-31550747D02*
X41547143Y-31492690D01*
X41547143Y-31492690D02*
X41314915Y-31492690D01*
X41314915Y-31492690D02*
X41198800Y-31550747D01*
X41721315Y-32247433D02*
X41605200Y-32305490D01*
X41605200Y-32305490D02*
X41314915Y-32305490D01*
X41314915Y-32305490D02*
X41198800Y-32247433D01*
X41198800Y-32247433D02*
X41140743Y-32131318D01*
X41140743Y-32131318D02*
X41140743Y-32015204D01*
X41140743Y-32015204D02*
X41198800Y-31899090D01*
X41198800Y-31899090D02*
X41314915Y-31841033D01*
X41314915Y-31841033D02*
X41605200Y-31841033D01*
X41605200Y-31841033D02*
X41721315Y-31782975D01*
X42301886Y-32305490D02*
X42301886Y-31492690D01*
X42301886Y-31724918D02*
X42359943Y-31608804D01*
X42359943Y-31608804D02*
X42418001Y-31550747D01*
X42418001Y-31550747D02*
X42534115Y-31492690D01*
X42534115Y-31492690D02*
X42650229Y-31492690D01*
X43579144Y-32305490D02*
X43579144Y-31086290D01*
X43579144Y-32247433D02*
X43463029Y-32305490D01*
X43463029Y-32305490D02*
X43230801Y-32305490D01*
X43230801Y-32305490D02*
X43114686Y-32247433D01*
X43114686Y-32247433D02*
X43056629Y-32189375D01*
X43056629Y-32189375D02*
X42998572Y-32073261D01*
X42998572Y-32073261D02*
X42998572Y-31724918D01*
X42998572Y-31724918D02*
X43056629Y-31608804D01*
X43056629Y-31608804D02*
X43114686Y-31550747D01*
X43114686Y-31550747D02*
X43230801Y-31492690D01*
X43230801Y-31492690D02*
X43463029Y-31492690D01*
X43463029Y-31492690D02*
X43579144Y-31550747D01*
X44217772Y-32247433D02*
X44217772Y-32305490D01*
X44217772Y-32305490D02*
X44159715Y-32421604D01*
X44159715Y-32421604D02*
X44101658Y-32479661D01*
X46365886Y-32305490D02*
X45959486Y-31724918D01*
X45669200Y-32305490D02*
X45669200Y-31086290D01*
X45669200Y-31086290D02*
X46133657Y-31086290D01*
X46133657Y-31086290D02*
X46249772Y-31144347D01*
X46249772Y-31144347D02*
X46307829Y-31202404D01*
X46307829Y-31202404D02*
X46365886Y-31318518D01*
X46365886Y-31318518D02*
X46365886Y-31492690D01*
X46365886Y-31492690D02*
X46307829Y-31608804D01*
X46307829Y-31608804D02*
X46249772Y-31666861D01*
X46249772Y-31666861D02*
X46133657Y-31724918D01*
X46133657Y-31724918D02*
X45669200Y-31724918D01*
X47352857Y-32247433D02*
X47236743Y-32305490D01*
X47236743Y-32305490D02*
X47004515Y-32305490D01*
X47004515Y-32305490D02*
X46888400Y-32247433D01*
X46888400Y-32247433D02*
X46830343Y-32131318D01*
X46830343Y-32131318D02*
X46830343Y-31666861D01*
X46830343Y-31666861D02*
X46888400Y-31550747D01*
X46888400Y-31550747D02*
X47004515Y-31492690D01*
X47004515Y-31492690D02*
X47236743Y-31492690D01*
X47236743Y-31492690D02*
X47352857Y-31550747D01*
X47352857Y-31550747D02*
X47410915Y-31666861D01*
X47410915Y-31666861D02*
X47410915Y-31782975D01*
X47410915Y-31782975D02*
X46830343Y-31899090D01*
X47817315Y-31492690D02*
X48107601Y-32305490D01*
X48107601Y-32305490D02*
X48397886Y-31492690D01*
X49500972Y-32305490D02*
X48804286Y-32305490D01*
X49152629Y-32305490D02*
X49152629Y-31086290D01*
X49152629Y-31086290D02*
X49036515Y-31260461D01*
X49036515Y-31260461D02*
X48920400Y-31376575D01*
X48920400Y-31376575D02*
X48804286Y-31434633D01*
X27236057Y-34268402D02*
X27236057Y-33049202D01*
X27236057Y-33049202D02*
X27642457Y-33920059D01*
X27642457Y-33920059D02*
X28048857Y-33049202D01*
X28048857Y-33049202D02*
X28048857Y-34268402D01*
X29151943Y-34268402D02*
X29151943Y-33629773D01*
X29151943Y-33629773D02*
X29093885Y-33513659D01*
X29093885Y-33513659D02*
X28977771Y-33455602D01*
X28977771Y-33455602D02*
X28745543Y-33455602D01*
X28745543Y-33455602D02*
X28629428Y-33513659D01*
X29151943Y-34210345D02*
X29035828Y-34268402D01*
X29035828Y-34268402D02*
X28745543Y-34268402D01*
X28745543Y-34268402D02*
X28629428Y-34210345D01*
X28629428Y-34210345D02*
X28571371Y-34094230D01*
X28571371Y-34094230D02*
X28571371Y-33978116D01*
X28571371Y-33978116D02*
X28629428Y-33862002D01*
X28629428Y-33862002D02*
X28745543Y-33803945D01*
X28745543Y-33803945D02*
X29035828Y-33803945D01*
X29035828Y-33803945D02*
X29151943Y-33745887D01*
X29732514Y-34268402D02*
X29732514Y-33455602D01*
X29732514Y-33687830D02*
X29790571Y-33571716D01*
X29790571Y-33571716D02*
X29848629Y-33513659D01*
X29848629Y-33513659D02*
X29964743Y-33455602D01*
X29964743Y-33455602D02*
X30080857Y-33455602D01*
X30429200Y-34210345D02*
X30545314Y-34268402D01*
X30545314Y-34268402D02*
X30777543Y-34268402D01*
X30777543Y-34268402D02*
X30893657Y-34210345D01*
X30893657Y-34210345D02*
X30951714Y-34094230D01*
X30951714Y-34094230D02*
X30951714Y-34036173D01*
X30951714Y-34036173D02*
X30893657Y-33920059D01*
X30893657Y-33920059D02*
X30777543Y-33862002D01*
X30777543Y-33862002D02*
X30603372Y-33862002D01*
X30603372Y-33862002D02*
X30487257Y-33803945D01*
X30487257Y-33803945D02*
X30429200Y-33687830D01*
X30429200Y-33687830D02*
X30429200Y-33629773D01*
X30429200Y-33629773D02*
X30487257Y-33513659D01*
X30487257Y-33513659D02*
X30603372Y-33455602D01*
X30603372Y-33455602D02*
X30777543Y-33455602D01*
X30777543Y-33455602D02*
X30893657Y-33513659D01*
X33099828Y-34268402D02*
X32693428Y-33687830D01*
X32403142Y-34268402D02*
X32403142Y-33049202D01*
X32403142Y-33049202D02*
X32867599Y-33049202D01*
X32867599Y-33049202D02*
X32983714Y-33107259D01*
X32983714Y-33107259D02*
X33041771Y-33165316D01*
X33041771Y-33165316D02*
X33099828Y-33281430D01*
X33099828Y-33281430D02*
X33099828Y-33455602D01*
X33099828Y-33455602D02*
X33041771Y-33571716D01*
X33041771Y-33571716D02*
X32983714Y-33629773D01*
X32983714Y-33629773D02*
X32867599Y-33687830D01*
X32867599Y-33687830D02*
X32403142Y-33687830D01*
X33796514Y-34268402D02*
X33680399Y-34210345D01*
X33680399Y-34210345D02*
X33622342Y-34152287D01*
X33622342Y-34152287D02*
X33564285Y-34036173D01*
X33564285Y-34036173D02*
X33564285Y-33687830D01*
X33564285Y-33687830D02*
X33622342Y-33571716D01*
X33622342Y-33571716D02*
X33680399Y-33513659D01*
X33680399Y-33513659D02*
X33796514Y-33455602D01*
X33796514Y-33455602D02*
X33970685Y-33455602D01*
X33970685Y-33455602D02*
X34086799Y-33513659D01*
X34086799Y-33513659D02*
X34144857Y-33571716D01*
X34144857Y-33571716D02*
X34202914Y-33687830D01*
X34202914Y-33687830D02*
X34202914Y-34036173D01*
X34202914Y-34036173D02*
X34144857Y-34152287D01*
X34144857Y-34152287D02*
X34086799Y-34210345D01*
X34086799Y-34210345D02*
X33970685Y-34268402D01*
X33970685Y-34268402D02*
X33796514Y-34268402D01*
X34609314Y-33455602D02*
X34899600Y-34268402D01*
X34899600Y-34268402D02*
X35189885Y-33455602D01*
X36118799Y-34210345D02*
X36002685Y-34268402D01*
X36002685Y-34268402D02*
X35770457Y-34268402D01*
X35770457Y-34268402D02*
X35654342Y-34210345D01*
X35654342Y-34210345D02*
X35596285Y-34094230D01*
X35596285Y-34094230D02*
X35596285Y-33629773D01*
X35596285Y-33629773D02*
X35654342Y-33513659D01*
X35654342Y-33513659D02*
X35770457Y-33455602D01*
X35770457Y-33455602D02*
X36002685Y-33455602D01*
X36002685Y-33455602D02*
X36118799Y-33513659D01*
X36118799Y-33513659D02*
X36176857Y-33629773D01*
X36176857Y-33629773D02*
X36176857Y-33745887D01*
X36176857Y-33745887D02*
X35596285Y-33862002D01*
X36699371Y-34268402D02*
X36699371Y-33455602D01*
X36699371Y-33687830D02*
X36757428Y-33571716D01*
X36757428Y-33571716D02*
X36815486Y-33513659D01*
X36815486Y-33513659D02*
X36931600Y-33455602D01*
X36931600Y-33455602D02*
X37047714Y-33455602D01*
X38383028Y-34268402D02*
X38383028Y-33049202D01*
X38383028Y-33049202D02*
X38673314Y-33049202D01*
X38673314Y-33049202D02*
X38847485Y-33107259D01*
X38847485Y-33107259D02*
X38963600Y-33223373D01*
X38963600Y-33223373D02*
X39021657Y-33339487D01*
X39021657Y-33339487D02*
X39079714Y-33571716D01*
X39079714Y-33571716D02*
X39079714Y-33745887D01*
X39079714Y-33745887D02*
X39021657Y-33978116D01*
X39021657Y-33978116D02*
X38963600Y-34094230D01*
X38963600Y-34094230D02*
X38847485Y-34210345D01*
X38847485Y-34210345D02*
X38673314Y-34268402D01*
X38673314Y-34268402D02*
X38383028Y-34268402D01*
X40066685Y-34210345D02*
X39950571Y-34268402D01*
X39950571Y-34268402D02*
X39718343Y-34268402D01*
X39718343Y-34268402D02*
X39602228Y-34210345D01*
X39602228Y-34210345D02*
X39544171Y-34094230D01*
X39544171Y-34094230D02*
X39544171Y-33629773D01*
X39544171Y-33629773D02*
X39602228Y-33513659D01*
X39602228Y-33513659D02*
X39718343Y-33455602D01*
X39718343Y-33455602D02*
X39950571Y-33455602D01*
X39950571Y-33455602D02*
X40066685Y-33513659D01*
X40066685Y-33513659D02*
X40124743Y-33629773D01*
X40124743Y-33629773D02*
X40124743Y-33745887D01*
X40124743Y-33745887D02*
X39544171Y-33862002D01*
X40589200Y-34210345D02*
X40705314Y-34268402D01*
X40705314Y-34268402D02*
X40937543Y-34268402D01*
X40937543Y-34268402D02*
X41053657Y-34210345D01*
X41053657Y-34210345D02*
X41111714Y-34094230D01*
X41111714Y-34094230D02*
X41111714Y-34036173D01*
X41111714Y-34036173D02*
X41053657Y-33920059D01*
X41053657Y-33920059D02*
X40937543Y-33862002D01*
X40937543Y-33862002D02*
X40763372Y-33862002D01*
X40763372Y-33862002D02*
X40647257Y-33803945D01*
X40647257Y-33803945D02*
X40589200Y-33687830D01*
X40589200Y-33687830D02*
X40589200Y-33629773D01*
X40589200Y-33629773D02*
X40647257Y-33513659D01*
X40647257Y-33513659D02*
X40763372Y-33455602D01*
X40763372Y-33455602D02*
X40937543Y-33455602D01*
X40937543Y-33455602D02*
X41053657Y-33513659D01*
X41634228Y-34268402D02*
X41634228Y-33455602D01*
X41634228Y-33049202D02*
X41576171Y-33107259D01*
X41576171Y-33107259D02*
X41634228Y-33165316D01*
X41634228Y-33165316D02*
X41692285Y-33107259D01*
X41692285Y-33107259D02*
X41634228Y-33049202D01*
X41634228Y-33049202D02*
X41634228Y-33165316D01*
X42737314Y-33455602D02*
X42737314Y-34442573D01*
X42737314Y-34442573D02*
X42679256Y-34558687D01*
X42679256Y-34558687D02*
X42621199Y-34616745D01*
X42621199Y-34616745D02*
X42505085Y-34674802D01*
X42505085Y-34674802D02*
X42330914Y-34674802D01*
X42330914Y-34674802D02*
X42214799Y-34616745D01*
X42737314Y-34210345D02*
X42621199Y-34268402D01*
X42621199Y-34268402D02*
X42388971Y-34268402D01*
X42388971Y-34268402D02*
X42272856Y-34210345D01*
X42272856Y-34210345D02*
X42214799Y-34152287D01*
X42214799Y-34152287D02*
X42156742Y-34036173D01*
X42156742Y-34036173D02*
X42156742Y-33687830D01*
X42156742Y-33687830D02*
X42214799Y-33571716D01*
X42214799Y-33571716D02*
X42272856Y-33513659D01*
X42272856Y-33513659D02*
X42388971Y-33455602D01*
X42388971Y-33455602D02*
X42621199Y-33455602D01*
X42621199Y-33455602D02*
X42737314Y-33513659D01*
X43317885Y-33455602D02*
X43317885Y-34268402D01*
X43317885Y-33571716D02*
X43375942Y-33513659D01*
X43375942Y-33513659D02*
X43492057Y-33455602D01*
X43492057Y-33455602D02*
X43666228Y-33455602D01*
X43666228Y-33455602D02*
X43782342Y-33513659D01*
X43782342Y-33513659D02*
X43840400Y-33629773D01*
X43840400Y-33629773D02*
X43840400Y-34268402D01*
X45175714Y-33049202D02*
X45872400Y-33049202D01*
X45524057Y-34268402D02*
X45524057Y-33049202D01*
X46743256Y-34210345D02*
X46627142Y-34268402D01*
X46627142Y-34268402D02*
X46394914Y-34268402D01*
X46394914Y-34268402D02*
X46278799Y-34210345D01*
X46278799Y-34210345D02*
X46220742Y-34094230D01*
X46220742Y-34094230D02*
X46220742Y-33629773D01*
X46220742Y-33629773D02*
X46278799Y-33513659D01*
X46278799Y-33513659D02*
X46394914Y-33455602D01*
X46394914Y-33455602D02*
X46627142Y-33455602D01*
X46627142Y-33455602D02*
X46743256Y-33513659D01*
X46743256Y-33513659D02*
X46801314Y-33629773D01*
X46801314Y-33629773D02*
X46801314Y-33745887D01*
X46801314Y-33745887D02*
X46220742Y-33862002D01*
X47846343Y-34268402D02*
X47846343Y-33629773D01*
X47846343Y-33629773D02*
X47788285Y-33513659D01*
X47788285Y-33513659D02*
X47672171Y-33455602D01*
X47672171Y-33455602D02*
X47439943Y-33455602D01*
X47439943Y-33455602D02*
X47323828Y-33513659D01*
X47846343Y-34210345D02*
X47730228Y-34268402D01*
X47730228Y-34268402D02*
X47439943Y-34268402D01*
X47439943Y-34268402D02*
X47323828Y-34210345D01*
X47323828Y-34210345D02*
X47265771Y-34094230D01*
X47265771Y-34094230D02*
X47265771Y-33978116D01*
X47265771Y-33978116D02*
X47323828Y-33862002D01*
X47323828Y-33862002D02*
X47439943Y-33803945D01*
X47439943Y-33803945D02*
X47730228Y-33803945D01*
X47730228Y-33803945D02*
X47846343Y-33745887D01*
X48426914Y-34268402D02*
X48426914Y-33455602D01*
X48426914Y-33571716D02*
X48484971Y-33513659D01*
X48484971Y-33513659D02*
X48601086Y-33455602D01*
X48601086Y-33455602D02*
X48775257Y-33455602D01*
X48775257Y-33455602D02*
X48891371Y-33513659D01*
X48891371Y-33513659D02*
X48949429Y-33629773D01*
X48949429Y-33629773D02*
X48949429Y-34268402D01*
X48949429Y-33629773D02*
X49007486Y-33513659D01*
X49007486Y-33513659D02*
X49123600Y-33455602D01*
X49123600Y-33455602D02*
X49297771Y-33455602D01*
X49297771Y-33455602D02*
X49413886Y-33513659D01*
X49413886Y-33513659D02*
X49471943Y-33629773D01*
X49471943Y-33629773D02*
X49471943Y-34268402D01*
X29558343Y-36231314D02*
X29558343Y-35012114D01*
X29558343Y-35012114D02*
X29964743Y-35882971D01*
X29964743Y-35882971D02*
X30371143Y-35012114D01*
X30371143Y-35012114D02*
X30371143Y-36231314D01*
X30951714Y-36231314D02*
X30951714Y-35418514D01*
X30951714Y-35012114D02*
X30893657Y-35070171D01*
X30893657Y-35070171D02*
X30951714Y-35128228D01*
X30951714Y-35128228D02*
X31009771Y-35070171D01*
X31009771Y-35070171D02*
X30951714Y-35012114D01*
X30951714Y-35012114D02*
X30951714Y-35128228D01*
X31474228Y-36173257D02*
X31590342Y-36231314D01*
X31590342Y-36231314D02*
X31822571Y-36231314D01*
X31822571Y-36231314D02*
X31938685Y-36173257D01*
X31938685Y-36173257D02*
X31996742Y-36057142D01*
X31996742Y-36057142D02*
X31996742Y-35999085D01*
X31996742Y-35999085D02*
X31938685Y-35882971D01*
X31938685Y-35882971D02*
X31822571Y-35824914D01*
X31822571Y-35824914D02*
X31648400Y-35824914D01*
X31648400Y-35824914D02*
X31532285Y-35766857D01*
X31532285Y-35766857D02*
X31474228Y-35650742D01*
X31474228Y-35650742D02*
X31474228Y-35592685D01*
X31474228Y-35592685D02*
X31532285Y-35476571D01*
X31532285Y-35476571D02*
X31648400Y-35418514D01*
X31648400Y-35418514D02*
X31822571Y-35418514D01*
X31822571Y-35418514D02*
X31938685Y-35476571D01*
X32461199Y-36173257D02*
X32577313Y-36231314D01*
X32577313Y-36231314D02*
X32809542Y-36231314D01*
X32809542Y-36231314D02*
X32925656Y-36173257D01*
X32925656Y-36173257D02*
X32983713Y-36057142D01*
X32983713Y-36057142D02*
X32983713Y-35999085D01*
X32983713Y-35999085D02*
X32925656Y-35882971D01*
X32925656Y-35882971D02*
X32809542Y-35824914D01*
X32809542Y-35824914D02*
X32635371Y-35824914D01*
X32635371Y-35824914D02*
X32519256Y-35766857D01*
X32519256Y-35766857D02*
X32461199Y-35650742D01*
X32461199Y-35650742D02*
X32461199Y-35592685D01*
X32461199Y-35592685D02*
X32519256Y-35476571D01*
X32519256Y-35476571D02*
X32635371Y-35418514D01*
X32635371Y-35418514D02*
X32809542Y-35418514D01*
X32809542Y-35418514D02*
X32925656Y-35476571D01*
X33680399Y-36231314D02*
X33564284Y-36173257D01*
X33564284Y-36173257D02*
X33506227Y-36115199D01*
X33506227Y-36115199D02*
X33448170Y-35999085D01*
X33448170Y-35999085D02*
X33448170Y-35650742D01*
X33448170Y-35650742D02*
X33506227Y-35534628D01*
X33506227Y-35534628D02*
X33564284Y-35476571D01*
X33564284Y-35476571D02*
X33680399Y-35418514D01*
X33680399Y-35418514D02*
X33854570Y-35418514D01*
X33854570Y-35418514D02*
X33970684Y-35476571D01*
X33970684Y-35476571D02*
X34028742Y-35534628D01*
X34028742Y-35534628D02*
X34086799Y-35650742D01*
X34086799Y-35650742D02*
X34086799Y-35999085D01*
X34086799Y-35999085D02*
X34028742Y-36115199D01*
X34028742Y-36115199D02*
X33970684Y-36173257D01*
X33970684Y-36173257D02*
X33854570Y-36231314D01*
X33854570Y-36231314D02*
X33680399Y-36231314D01*
X35131828Y-35418514D02*
X35131828Y-36231314D01*
X34609313Y-35418514D02*
X34609313Y-36057142D01*
X34609313Y-36057142D02*
X34667370Y-36173257D01*
X34667370Y-36173257D02*
X34783485Y-36231314D01*
X34783485Y-36231314D02*
X34957656Y-36231314D01*
X34957656Y-36231314D02*
X35073770Y-36173257D01*
X35073770Y-36173257D02*
X35131828Y-36115199D01*
X35712399Y-36231314D02*
X35712399Y-35418514D01*
X35712399Y-35650742D02*
X35770456Y-35534628D01*
X35770456Y-35534628D02*
X35828514Y-35476571D01*
X35828514Y-35476571D02*
X35944628Y-35418514D01*
X35944628Y-35418514D02*
X36060742Y-35418514D01*
X36467142Y-36231314D02*
X36467142Y-35418514D01*
X36467142Y-35012114D02*
X36409085Y-35070171D01*
X36409085Y-35070171D02*
X36467142Y-35128228D01*
X36467142Y-35128228D02*
X36525199Y-35070171D01*
X36525199Y-35070171D02*
X36467142Y-35012114D01*
X36467142Y-35012114D02*
X36467142Y-35128228D01*
X37918570Y-36173257D02*
X38092742Y-36231314D01*
X38092742Y-36231314D02*
X38383027Y-36231314D01*
X38383027Y-36231314D02*
X38499142Y-36173257D01*
X38499142Y-36173257D02*
X38557199Y-36115199D01*
X38557199Y-36115199D02*
X38615256Y-35999085D01*
X38615256Y-35999085D02*
X38615256Y-35882971D01*
X38615256Y-35882971D02*
X38557199Y-35766857D01*
X38557199Y-35766857D02*
X38499142Y-35708799D01*
X38499142Y-35708799D02*
X38383027Y-35650742D01*
X38383027Y-35650742D02*
X38150799Y-35592685D01*
X38150799Y-35592685D02*
X38034684Y-35534628D01*
X38034684Y-35534628D02*
X37976627Y-35476571D01*
X37976627Y-35476571D02*
X37918570Y-35360457D01*
X37918570Y-35360457D02*
X37918570Y-35244342D01*
X37918570Y-35244342D02*
X37976627Y-35128228D01*
X37976627Y-35128228D02*
X38034684Y-35070171D01*
X38034684Y-35070171D02*
X38150799Y-35012114D01*
X38150799Y-35012114D02*
X38441084Y-35012114D01*
X38441084Y-35012114D02*
X38615256Y-35070171D01*
X40124742Y-36231314D02*
X40066685Y-36231314D01*
X40066685Y-36231314D02*
X39950570Y-36173257D01*
X39950570Y-36173257D02*
X39776399Y-35999085D01*
X39776399Y-35999085D02*
X39486113Y-35650742D01*
X39486113Y-35650742D02*
X39369999Y-35476571D01*
X39369999Y-35476571D02*
X39311942Y-35302399D01*
X39311942Y-35302399D02*
X39311942Y-35186285D01*
X39311942Y-35186285D02*
X39369999Y-35070171D01*
X39369999Y-35070171D02*
X39486113Y-35012114D01*
X39486113Y-35012114D02*
X39544170Y-35012114D01*
X39544170Y-35012114D02*
X39660285Y-35070171D01*
X39660285Y-35070171D02*
X39718342Y-35186285D01*
X39718342Y-35186285D02*
X39718342Y-35244342D01*
X39718342Y-35244342D02*
X39660285Y-35360457D01*
X39660285Y-35360457D02*
X39602227Y-35418514D01*
X39602227Y-35418514D02*
X39253885Y-35650742D01*
X39253885Y-35650742D02*
X39195827Y-35708799D01*
X39195827Y-35708799D02*
X39137770Y-35824914D01*
X39137770Y-35824914D02*
X39137770Y-35999085D01*
X39137770Y-35999085D02*
X39195827Y-36115199D01*
X39195827Y-36115199D02*
X39253885Y-36173257D01*
X39253885Y-36173257D02*
X39369999Y-36231314D01*
X39369999Y-36231314D02*
X39544170Y-36231314D01*
X39544170Y-36231314D02*
X39660285Y-36173257D01*
X39660285Y-36173257D02*
X39718342Y-36115199D01*
X39718342Y-36115199D02*
X39892513Y-35882971D01*
X39892513Y-35882971D02*
X39950570Y-35708799D01*
X39950570Y-35708799D02*
X39950570Y-35592685D01*
X40473085Y-35012114D02*
X41169771Y-35012114D01*
X40821428Y-36231314D02*
X40821428Y-35012114D01*
X41634227Y-36173257D02*
X41634227Y-36231314D01*
X41634227Y-36231314D02*
X41576170Y-36347428D01*
X41576170Y-36347428D02*
X41518113Y-36405485D01*
X43027598Y-35128228D02*
X43085655Y-35070171D01*
X43085655Y-35070171D02*
X43201770Y-35012114D01*
X43201770Y-35012114D02*
X43492055Y-35012114D01*
X43492055Y-35012114D02*
X43608170Y-35070171D01*
X43608170Y-35070171D02*
X43666227Y-35128228D01*
X43666227Y-35128228D02*
X43724284Y-35244342D01*
X43724284Y-35244342D02*
X43724284Y-35360457D01*
X43724284Y-35360457D02*
X43666227Y-35534628D01*
X43666227Y-35534628D02*
X42969541Y-36231314D01*
X42969541Y-36231314D02*
X43724284Y-36231314D01*
X44479027Y-35012114D02*
X44595141Y-35012114D01*
X44595141Y-35012114D02*
X44711255Y-35070171D01*
X44711255Y-35070171D02*
X44769313Y-35128228D01*
X44769313Y-35128228D02*
X44827370Y-35244342D01*
X44827370Y-35244342D02*
X44885427Y-35476571D01*
X44885427Y-35476571D02*
X44885427Y-35766857D01*
X44885427Y-35766857D02*
X44827370Y-35999085D01*
X44827370Y-35999085D02*
X44769313Y-36115199D01*
X44769313Y-36115199D02*
X44711255Y-36173257D01*
X44711255Y-36173257D02*
X44595141Y-36231314D01*
X44595141Y-36231314D02*
X44479027Y-36231314D01*
X44479027Y-36231314D02*
X44362913Y-36173257D01*
X44362913Y-36173257D02*
X44304855Y-36115199D01*
X44304855Y-36115199D02*
X44246798Y-35999085D01*
X44246798Y-35999085D02*
X44188741Y-35766857D01*
X44188741Y-35766857D02*
X44188741Y-35476571D01*
X44188741Y-35476571D02*
X44246798Y-35244342D01*
X44246798Y-35244342D02*
X44304855Y-35128228D01*
X44304855Y-35128228D02*
X44362913Y-35070171D01*
X44362913Y-35070171D02*
X44479027Y-35012114D01*
X45349884Y-35128228D02*
X45407941Y-35070171D01*
X45407941Y-35070171D02*
X45524056Y-35012114D01*
X45524056Y-35012114D02*
X45814341Y-35012114D01*
X45814341Y-35012114D02*
X45930456Y-35070171D01*
X45930456Y-35070171D02*
X45988513Y-35128228D01*
X45988513Y-35128228D02*
X46046570Y-35244342D01*
X46046570Y-35244342D02*
X46046570Y-35360457D01*
X46046570Y-35360457D02*
X45988513Y-35534628D01*
X45988513Y-35534628D02*
X45291827Y-36231314D01*
X45291827Y-36231314D02*
X46046570Y-36231314D01*
X47091599Y-35418514D02*
X47091599Y-36231314D01*
X46801313Y-34954057D02*
X46511027Y-35824914D01*
X46511027Y-35824914D02*
X47265770Y-35824914D01*
X25958799Y-38078111D02*
X25900742Y-38136169D01*
X25900742Y-38136169D02*
X25726570Y-38194226D01*
X25726570Y-38194226D02*
X25610456Y-38194226D01*
X25610456Y-38194226D02*
X25436285Y-38136169D01*
X25436285Y-38136169D02*
X25320170Y-38020054D01*
X25320170Y-38020054D02*
X25262113Y-37903940D01*
X25262113Y-37903940D02*
X25204056Y-37671711D01*
X25204056Y-37671711D02*
X25204056Y-37497540D01*
X25204056Y-37497540D02*
X25262113Y-37265311D01*
X25262113Y-37265311D02*
X25320170Y-37149197D01*
X25320170Y-37149197D02*
X25436285Y-37033083D01*
X25436285Y-37033083D02*
X25610456Y-36975026D01*
X25610456Y-36975026D02*
X25726570Y-36975026D01*
X25726570Y-36975026D02*
X25900742Y-37033083D01*
X25900742Y-37033083D02*
X25958799Y-37091140D01*
X27003828Y-38194226D02*
X27003828Y-37555597D01*
X27003828Y-37555597D02*
X26945770Y-37439483D01*
X26945770Y-37439483D02*
X26829656Y-37381426D01*
X26829656Y-37381426D02*
X26597428Y-37381426D01*
X26597428Y-37381426D02*
X26481313Y-37439483D01*
X27003828Y-38136169D02*
X26887713Y-38194226D01*
X26887713Y-38194226D02*
X26597428Y-38194226D01*
X26597428Y-38194226D02*
X26481313Y-38136169D01*
X26481313Y-38136169D02*
X26423256Y-38020054D01*
X26423256Y-38020054D02*
X26423256Y-37903940D01*
X26423256Y-37903940D02*
X26481313Y-37787826D01*
X26481313Y-37787826D02*
X26597428Y-37729769D01*
X26597428Y-37729769D02*
X26887713Y-37729769D01*
X26887713Y-37729769D02*
X27003828Y-37671711D01*
X27758571Y-38194226D02*
X27642456Y-38136169D01*
X27642456Y-38136169D02*
X27584399Y-38020054D01*
X27584399Y-38020054D02*
X27584399Y-36975026D01*
X28687485Y-38136169D02*
X28571371Y-38194226D01*
X28571371Y-38194226D02*
X28339143Y-38194226D01*
X28339143Y-38194226D02*
X28223028Y-38136169D01*
X28223028Y-38136169D02*
X28164971Y-38020054D01*
X28164971Y-38020054D02*
X28164971Y-37555597D01*
X28164971Y-37555597D02*
X28223028Y-37439483D01*
X28223028Y-37439483D02*
X28339143Y-37381426D01*
X28339143Y-37381426D02*
X28571371Y-37381426D01*
X28571371Y-37381426D02*
X28687485Y-37439483D01*
X28687485Y-37439483D02*
X28745543Y-37555597D01*
X28745543Y-37555597D02*
X28745543Y-37671711D01*
X28745543Y-37671711D02*
X28164971Y-37787826D01*
X29268057Y-38194226D02*
X29268057Y-36975026D01*
X29268057Y-37439483D02*
X29384172Y-37381426D01*
X29384172Y-37381426D02*
X29616400Y-37381426D01*
X29616400Y-37381426D02*
X29732514Y-37439483D01*
X29732514Y-37439483D02*
X29790572Y-37497540D01*
X29790572Y-37497540D02*
X29848629Y-37613654D01*
X29848629Y-37613654D02*
X29848629Y-37961997D01*
X29848629Y-37961997D02*
X29790572Y-38078111D01*
X29790572Y-38078111D02*
X29732514Y-38136169D01*
X29732514Y-38136169D02*
X29616400Y-38194226D01*
X29616400Y-38194226D02*
X29384172Y-38194226D01*
X29384172Y-38194226D02*
X29268057Y-38136169D01*
X31300057Y-37555597D02*
X31706457Y-37555597D01*
X31880629Y-38194226D02*
X31300057Y-38194226D01*
X31300057Y-38194226D02*
X31300057Y-36975026D01*
X31300057Y-36975026D02*
X31880629Y-36975026D01*
X32403143Y-38194226D02*
X32403143Y-36975026D01*
X32925658Y-38194226D02*
X32925658Y-37555597D01*
X32925658Y-37555597D02*
X32867600Y-37439483D01*
X32867600Y-37439483D02*
X32751486Y-37381426D01*
X32751486Y-37381426D02*
X32577315Y-37381426D01*
X32577315Y-37381426D02*
X32461200Y-37439483D01*
X32461200Y-37439483D02*
X32403143Y-37497540D01*
X33680401Y-38194226D02*
X33564286Y-38136169D01*
X33564286Y-38136169D02*
X33506229Y-38020054D01*
X33506229Y-38020054D02*
X33506229Y-36975026D01*
X34609315Y-38136169D02*
X34493201Y-38194226D01*
X34493201Y-38194226D02*
X34260973Y-38194226D01*
X34260973Y-38194226D02*
X34144858Y-38136169D01*
X34144858Y-38136169D02*
X34086801Y-38020054D01*
X34086801Y-38020054D02*
X34086801Y-37555597D01*
X34086801Y-37555597D02*
X34144858Y-37439483D01*
X34144858Y-37439483D02*
X34260973Y-37381426D01*
X34260973Y-37381426D02*
X34493201Y-37381426D01*
X34493201Y-37381426D02*
X34609315Y-37439483D01*
X34609315Y-37439483D02*
X34667373Y-37555597D01*
X34667373Y-37555597D02*
X34667373Y-37671711D01*
X34667373Y-37671711D02*
X34086801Y-37787826D01*
X35189887Y-38194226D02*
X35189887Y-37381426D01*
X35189887Y-37613654D02*
X35247944Y-37497540D01*
X35247944Y-37497540D02*
X35306002Y-37439483D01*
X35306002Y-37439483D02*
X35422116Y-37381426D01*
X35422116Y-37381426D02*
X35538230Y-37381426D01*
X35886573Y-38136169D02*
X36002687Y-38194226D01*
X36002687Y-38194226D02*
X36234916Y-38194226D01*
X36234916Y-38194226D02*
X36351030Y-38136169D01*
X36351030Y-38136169D02*
X36409087Y-38020054D01*
X36409087Y-38020054D02*
X36409087Y-37961997D01*
X36409087Y-37961997D02*
X36351030Y-37845883D01*
X36351030Y-37845883D02*
X36234916Y-37787826D01*
X36234916Y-37787826D02*
X36060745Y-37787826D01*
X36060745Y-37787826D02*
X35944630Y-37729769D01*
X35944630Y-37729769D02*
X35886573Y-37613654D01*
X35886573Y-37613654D02*
X35886573Y-37555597D01*
X35886573Y-37555597D02*
X35944630Y-37439483D01*
X35944630Y-37439483D02*
X36060745Y-37381426D01*
X36060745Y-37381426D02*
X36234916Y-37381426D01*
X36234916Y-37381426D02*
X36351030Y-37439483D01*
X36989658Y-38136169D02*
X36989658Y-38194226D01*
X36989658Y-38194226D02*
X36931601Y-38310340D01*
X36931601Y-38310340D02*
X36873544Y-38368397D01*
X38441086Y-37555597D02*
X38847486Y-37555597D01*
X39021658Y-38194226D02*
X38441086Y-38194226D01*
X38441086Y-38194226D02*
X38441086Y-36975026D01*
X38441086Y-36975026D02*
X39021658Y-36975026D01*
X39370001Y-37381426D02*
X39834458Y-37381426D01*
X39544172Y-36975026D02*
X39544172Y-38020054D01*
X39544172Y-38020054D02*
X39602229Y-38136169D01*
X39602229Y-38136169D02*
X39718344Y-38194226D01*
X39718344Y-38194226D02*
X39834458Y-38194226D01*
X40240858Y-38194226D02*
X40240858Y-36975026D01*
X40763373Y-38194226D02*
X40763373Y-37555597D01*
X40763373Y-37555597D02*
X40705315Y-37439483D01*
X40705315Y-37439483D02*
X40589201Y-37381426D01*
X40589201Y-37381426D02*
X40415030Y-37381426D01*
X40415030Y-37381426D02*
X40298915Y-37439483D01*
X40298915Y-37439483D02*
X40240858Y-37497540D01*
X41866459Y-38194226D02*
X41866459Y-37555597D01*
X41866459Y-37555597D02*
X41808401Y-37439483D01*
X41808401Y-37439483D02*
X41692287Y-37381426D01*
X41692287Y-37381426D02*
X41460059Y-37381426D01*
X41460059Y-37381426D02*
X41343944Y-37439483D01*
X41866459Y-38136169D02*
X41750344Y-38194226D01*
X41750344Y-38194226D02*
X41460059Y-38194226D01*
X41460059Y-38194226D02*
X41343944Y-38136169D01*
X41343944Y-38136169D02*
X41285887Y-38020054D01*
X41285887Y-38020054D02*
X41285887Y-37903940D01*
X41285887Y-37903940D02*
X41343944Y-37787826D01*
X41343944Y-37787826D02*
X41460059Y-37729769D01*
X41460059Y-37729769D02*
X41750344Y-37729769D01*
X41750344Y-37729769D02*
X41866459Y-37671711D01*
X42447030Y-37381426D02*
X42447030Y-38194226D01*
X42447030Y-37497540D02*
X42505087Y-37439483D01*
X42505087Y-37439483D02*
X42621202Y-37381426D01*
X42621202Y-37381426D02*
X42795373Y-37381426D01*
X42795373Y-37381426D02*
X42911487Y-37439483D01*
X42911487Y-37439483D02*
X42969545Y-37555597D01*
X42969545Y-37555597D02*
X42969545Y-38194226D01*
X44362916Y-36975026D02*
X44653202Y-38194226D01*
X44653202Y-38194226D02*
X44885430Y-37323369D01*
X44885430Y-37323369D02*
X45117659Y-38194226D01*
X45117659Y-38194226D02*
X45407945Y-36975026D01*
X45872401Y-38194226D02*
X45872401Y-37381426D01*
X45872401Y-36975026D02*
X45814344Y-37033083D01*
X45814344Y-37033083D02*
X45872401Y-37091140D01*
X45872401Y-37091140D02*
X45930458Y-37033083D01*
X45930458Y-37033083D02*
X45872401Y-36975026D01*
X45872401Y-36975026D02*
X45872401Y-37091140D01*
X46627144Y-38194226D02*
X46511029Y-38136169D01*
X46511029Y-38136169D02*
X46452972Y-38020054D01*
X46452972Y-38020054D02*
X46452972Y-36975026D01*
X47265773Y-38194226D02*
X47149658Y-38136169D01*
X47149658Y-38136169D02*
X47091601Y-38020054D01*
X47091601Y-38020054D02*
X47091601Y-36975026D01*
X47730230Y-38194226D02*
X47730230Y-37381426D01*
X47730230Y-36975026D02*
X47672173Y-37033083D01*
X47672173Y-37033083D02*
X47730230Y-37091140D01*
X47730230Y-37091140D02*
X47788287Y-37033083D01*
X47788287Y-37033083D02*
X47730230Y-36975026D01*
X47730230Y-36975026D02*
X47730230Y-37091140D01*
X48833316Y-38194226D02*
X48833316Y-37555597D01*
X48833316Y-37555597D02*
X48775258Y-37439483D01*
X48775258Y-37439483D02*
X48659144Y-37381426D01*
X48659144Y-37381426D02*
X48426916Y-37381426D01*
X48426916Y-37381426D02*
X48310801Y-37439483D01*
X48833316Y-38136169D02*
X48717201Y-38194226D01*
X48717201Y-38194226D02*
X48426916Y-38194226D01*
X48426916Y-38194226D02*
X48310801Y-38136169D01*
X48310801Y-38136169D02*
X48252744Y-38020054D01*
X48252744Y-38020054D02*
X48252744Y-37903940D01*
X48252744Y-37903940D02*
X48310801Y-37787826D01*
X48310801Y-37787826D02*
X48426916Y-37729769D01*
X48426916Y-37729769D02*
X48717201Y-37729769D01*
X48717201Y-37729769D02*
X48833316Y-37671711D01*
X49413887Y-38194226D02*
X49413887Y-37381426D01*
X49413887Y-37497540D02*
X49471944Y-37439483D01*
X49471944Y-37439483D02*
X49588059Y-37381426D01*
X49588059Y-37381426D02*
X49762230Y-37381426D01*
X49762230Y-37381426D02*
X49878344Y-37439483D01*
X49878344Y-37439483D02*
X49936402Y-37555597D01*
X49936402Y-37555597D02*
X49936402Y-38194226D01*
X49936402Y-37555597D02*
X49994459Y-37439483D01*
X49994459Y-37439483D02*
X50110573Y-37381426D01*
X50110573Y-37381426D02*
X50284744Y-37381426D01*
X50284744Y-37381426D02*
X50400859Y-37439483D01*
X50400859Y-37439483D02*
X50458916Y-37555597D01*
X50458916Y-37555597D02*
X50458916Y-38194226D01*
X50981430Y-38136169D02*
X51097544Y-38194226D01*
X51097544Y-38194226D02*
X51329773Y-38194226D01*
X51329773Y-38194226D02*
X51445887Y-38136169D01*
X51445887Y-38136169D02*
X51503944Y-38020054D01*
X51503944Y-38020054D02*
X51503944Y-37961997D01*
X51503944Y-37961997D02*
X51445887Y-37845883D01*
X51445887Y-37845883D02*
X51329773Y-37787826D01*
X51329773Y-37787826D02*
X51155602Y-37787826D01*
X51155602Y-37787826D02*
X51039487Y-37729769D01*
X51039487Y-37729769D02*
X50981430Y-37613654D01*
X50981430Y-37613654D02*
X50981430Y-37555597D01*
X50981430Y-37555597D02*
X51039487Y-37439483D01*
X51039487Y-37439483D02*
X51155602Y-37381426D01*
X51155602Y-37381426D02*
X51329773Y-37381426D01*
X51329773Y-37381426D02*
X51445887Y-37439483D01*
X50264303Y-70446009D02*
X49538588Y-70446009D01*
X49901445Y-70446009D02*
X49901445Y-69176009D01*
X49901445Y-69176009D02*
X49780493Y-69357437D01*
X49780493Y-69357437D02*
X49659541Y-69478390D01*
X49659541Y-69478390D02*
X49538588Y-69538866D01*
X50748112Y-69296961D02*
X50808588Y-69236485D01*
X50808588Y-69236485D02*
X50929541Y-69176009D01*
X50929541Y-69176009D02*
X51231922Y-69176009D01*
X51231922Y-69176009D02*
X51352874Y-69236485D01*
X51352874Y-69236485D02*
X51413350Y-69296961D01*
X51413350Y-69296961D02*
X51473827Y-69417913D01*
X51473827Y-69417913D02*
X51473827Y-69538866D01*
X51473827Y-69538866D02*
X51413350Y-69720294D01*
X51413350Y-69720294D02*
X50687636Y-70446009D01*
X50687636Y-70446009D02*
X51473827Y-70446009D01*
X51836684Y-69176009D02*
X52260017Y-70446009D01*
X52260017Y-70446009D02*
X52683351Y-69176009D01*
D11*
X78459581Y-72663691D02*
X78411200Y-72712072D01*
X78411200Y-72712072D02*
X78266057Y-72760452D01*
X78266057Y-72760452D02*
X78169295Y-72760452D01*
X78169295Y-72760452D02*
X78024152Y-72712072D01*
X78024152Y-72712072D02*
X77927390Y-72615310D01*
X77927390Y-72615310D02*
X77879009Y-72518548D01*
X77879009Y-72518548D02*
X77830628Y-72325024D01*
X77830628Y-72325024D02*
X77830628Y-72179881D01*
X77830628Y-72179881D02*
X77879009Y-71986357D01*
X77879009Y-71986357D02*
X77927390Y-71889595D01*
X77927390Y-71889595D02*
X78024152Y-71792833D01*
X78024152Y-71792833D02*
X78169295Y-71744452D01*
X78169295Y-71744452D02*
X78266057Y-71744452D01*
X78266057Y-71744452D02*
X78411200Y-71792833D01*
X78411200Y-71792833D02*
X78459581Y-71841214D01*
X79475581Y-72663691D02*
X79427200Y-72712072D01*
X79427200Y-72712072D02*
X79282057Y-72760452D01*
X79282057Y-72760452D02*
X79185295Y-72760452D01*
X79185295Y-72760452D02*
X79040152Y-72712072D01*
X79040152Y-72712072D02*
X78943390Y-72615310D01*
X78943390Y-72615310D02*
X78895009Y-72518548D01*
X78895009Y-72518548D02*
X78846628Y-72325024D01*
X78846628Y-72325024D02*
X78846628Y-72179881D01*
X78846628Y-72179881D02*
X78895009Y-71986357D01*
X78895009Y-71986357D02*
X78943390Y-71889595D01*
X78943390Y-71889595D02*
X79040152Y-71792833D01*
X79040152Y-71792833D02*
X79185295Y-71744452D01*
X79185295Y-71744452D02*
X79282057Y-71744452D01*
X79282057Y-71744452D02*
X79427200Y-71792833D01*
X79427200Y-71792833D02*
X79475581Y-71841214D01*
X79911009Y-72760452D02*
X79911009Y-71744452D01*
X79911009Y-71744452D02*
X80152914Y-71744452D01*
X80152914Y-71744452D02*
X80298057Y-71792833D01*
X80298057Y-71792833D02*
X80394819Y-71889595D01*
X80394819Y-71889595D02*
X80443200Y-71986357D01*
X80443200Y-71986357D02*
X80491581Y-72179881D01*
X80491581Y-72179881D02*
X80491581Y-72325024D01*
X80491581Y-72325024D02*
X80443200Y-72518548D01*
X80443200Y-72518548D02*
X80394819Y-72615310D01*
X80394819Y-72615310D02*
X80298057Y-72712072D01*
X80298057Y-72712072D02*
X80152914Y-72760452D01*
X80152914Y-72760452D02*
X79911009Y-72760452D01*
X82039771Y-72228262D02*
X82184914Y-72276643D01*
X82184914Y-72276643D02*
X82233295Y-72325024D01*
X82233295Y-72325024D02*
X82281676Y-72421786D01*
X82281676Y-72421786D02*
X82281676Y-72566929D01*
X82281676Y-72566929D02*
X82233295Y-72663691D01*
X82233295Y-72663691D02*
X82184914Y-72712072D01*
X82184914Y-72712072D02*
X82088152Y-72760452D01*
X82088152Y-72760452D02*
X81701104Y-72760452D01*
X81701104Y-72760452D02*
X81701104Y-71744452D01*
X81701104Y-71744452D02*
X82039771Y-71744452D01*
X82039771Y-71744452D02*
X82136533Y-71792833D01*
X82136533Y-71792833D02*
X82184914Y-71841214D01*
X82184914Y-71841214D02*
X82233295Y-71937976D01*
X82233295Y-71937976D02*
X82233295Y-72034738D01*
X82233295Y-72034738D02*
X82184914Y-72131500D01*
X82184914Y-72131500D02*
X82136533Y-72179881D01*
X82136533Y-72179881D02*
X82039771Y-72228262D01*
X82039771Y-72228262D02*
X81701104Y-72228262D01*
X82717104Y-72760452D02*
X82717104Y-72083119D01*
X82717104Y-72276643D02*
X82765485Y-72179881D01*
X82765485Y-72179881D02*
X82813866Y-72131500D01*
X82813866Y-72131500D02*
X82910628Y-72083119D01*
X82910628Y-72083119D02*
X83007390Y-72083119D01*
X83733104Y-72712072D02*
X83636342Y-72760452D01*
X83636342Y-72760452D02*
X83442818Y-72760452D01*
X83442818Y-72760452D02*
X83346056Y-72712072D01*
X83346056Y-72712072D02*
X83297675Y-72615310D01*
X83297675Y-72615310D02*
X83297675Y-72228262D01*
X83297675Y-72228262D02*
X83346056Y-72131500D01*
X83346056Y-72131500D02*
X83442818Y-72083119D01*
X83442818Y-72083119D02*
X83636342Y-72083119D01*
X83636342Y-72083119D02*
X83733104Y-72131500D01*
X83733104Y-72131500D02*
X83781485Y-72228262D01*
X83781485Y-72228262D02*
X83781485Y-72325024D01*
X83781485Y-72325024D02*
X83297675Y-72421786D01*
X84652342Y-72760452D02*
X84652342Y-72228262D01*
X84652342Y-72228262D02*
X84603961Y-72131500D01*
X84603961Y-72131500D02*
X84507199Y-72083119D01*
X84507199Y-72083119D02*
X84313675Y-72083119D01*
X84313675Y-72083119D02*
X84216913Y-72131500D01*
X84652342Y-72712072D02*
X84555580Y-72760452D01*
X84555580Y-72760452D02*
X84313675Y-72760452D01*
X84313675Y-72760452D02*
X84216913Y-72712072D01*
X84216913Y-72712072D02*
X84168532Y-72615310D01*
X84168532Y-72615310D02*
X84168532Y-72518548D01*
X84168532Y-72518548D02*
X84216913Y-72421786D01*
X84216913Y-72421786D02*
X84313675Y-72373405D01*
X84313675Y-72373405D02*
X84555580Y-72373405D01*
X84555580Y-72373405D02*
X84652342Y-72325024D01*
X85136151Y-72760452D02*
X85136151Y-71744452D01*
X85232913Y-72373405D02*
X85523199Y-72760452D01*
X85523199Y-72083119D02*
X85136151Y-72470167D01*
X86103770Y-72760452D02*
X86007008Y-72712072D01*
X86007008Y-72712072D02*
X85958627Y-72663691D01*
X85958627Y-72663691D02*
X85910246Y-72566929D01*
X85910246Y-72566929D02*
X85910246Y-72276643D01*
X85910246Y-72276643D02*
X85958627Y-72179881D01*
X85958627Y-72179881D02*
X86007008Y-72131500D01*
X86007008Y-72131500D02*
X86103770Y-72083119D01*
X86103770Y-72083119D02*
X86248913Y-72083119D01*
X86248913Y-72083119D02*
X86345675Y-72131500D01*
X86345675Y-72131500D02*
X86394056Y-72179881D01*
X86394056Y-72179881D02*
X86442437Y-72276643D01*
X86442437Y-72276643D02*
X86442437Y-72566929D01*
X86442437Y-72566929D02*
X86394056Y-72663691D01*
X86394056Y-72663691D02*
X86345675Y-72712072D01*
X86345675Y-72712072D02*
X86248913Y-72760452D01*
X86248913Y-72760452D02*
X86103770Y-72760452D01*
X87313294Y-72083119D02*
X87313294Y-72760452D01*
X86877865Y-72083119D02*
X86877865Y-72615310D01*
X86877865Y-72615310D02*
X86926246Y-72712072D01*
X86926246Y-72712072D02*
X87023008Y-72760452D01*
X87023008Y-72760452D02*
X87168151Y-72760452D01*
X87168151Y-72760452D02*
X87264913Y-72712072D01*
X87264913Y-72712072D02*
X87313294Y-72663691D01*
X87651960Y-72083119D02*
X88039008Y-72083119D01*
X87797103Y-71744452D02*
X87797103Y-72615310D01*
X87797103Y-72615310D02*
X87845484Y-72712072D01*
X87845484Y-72712072D02*
X87942246Y-72760452D01*
X87942246Y-72760452D02*
X88039008Y-72760452D01*
X78895009Y-35930452D02*
X78895009Y-34914452D01*
X78895009Y-35398262D02*
X79475581Y-35398262D01*
X79475581Y-35930452D02*
X79475581Y-34914452D01*
X80394819Y-35930452D02*
X80394819Y-35398262D01*
X80394819Y-35398262D02*
X80346438Y-35301500D01*
X80346438Y-35301500D02*
X80249676Y-35253119D01*
X80249676Y-35253119D02*
X80056152Y-35253119D01*
X80056152Y-35253119D02*
X79959390Y-35301500D01*
X80394819Y-35882072D02*
X80298057Y-35930452D01*
X80298057Y-35930452D02*
X80056152Y-35930452D01*
X80056152Y-35930452D02*
X79959390Y-35882072D01*
X79959390Y-35882072D02*
X79911009Y-35785310D01*
X79911009Y-35785310D02*
X79911009Y-35688548D01*
X79911009Y-35688548D02*
X79959390Y-35591786D01*
X79959390Y-35591786D02*
X80056152Y-35543405D01*
X80056152Y-35543405D02*
X80298057Y-35543405D01*
X80298057Y-35543405D02*
X80394819Y-35495024D01*
X80878628Y-35930452D02*
X80878628Y-35253119D01*
X80878628Y-35349881D02*
X80927009Y-35301500D01*
X80927009Y-35301500D02*
X81023771Y-35253119D01*
X81023771Y-35253119D02*
X81168914Y-35253119D01*
X81168914Y-35253119D02*
X81265676Y-35301500D01*
X81265676Y-35301500D02*
X81314057Y-35398262D01*
X81314057Y-35398262D02*
X81314057Y-35930452D01*
X81314057Y-35398262D02*
X81362438Y-35301500D01*
X81362438Y-35301500D02*
X81459200Y-35253119D01*
X81459200Y-35253119D02*
X81604343Y-35253119D01*
X81604343Y-35253119D02*
X81701104Y-35301500D01*
X81701104Y-35301500D02*
X81749485Y-35398262D01*
X81749485Y-35398262D02*
X81749485Y-35930452D01*
X82668724Y-35930452D02*
X82668724Y-35398262D01*
X82668724Y-35398262D02*
X82620343Y-35301500D01*
X82620343Y-35301500D02*
X82523581Y-35253119D01*
X82523581Y-35253119D02*
X82330057Y-35253119D01*
X82330057Y-35253119D02*
X82233295Y-35301500D01*
X82668724Y-35882072D02*
X82571962Y-35930452D01*
X82571962Y-35930452D02*
X82330057Y-35930452D01*
X82330057Y-35930452D02*
X82233295Y-35882072D01*
X82233295Y-35882072D02*
X82184914Y-35785310D01*
X82184914Y-35785310D02*
X82184914Y-35688548D01*
X82184914Y-35688548D02*
X82233295Y-35591786D01*
X82233295Y-35591786D02*
X82330057Y-35543405D01*
X82330057Y-35543405D02*
X82571962Y-35543405D01*
X82571962Y-35543405D02*
X82668724Y-35495024D01*
X83152533Y-35930452D02*
X83152533Y-35253119D01*
X83152533Y-35349881D02*
X83200914Y-35301500D01*
X83200914Y-35301500D02*
X83297676Y-35253119D01*
X83297676Y-35253119D02*
X83442819Y-35253119D01*
X83442819Y-35253119D02*
X83539581Y-35301500D01*
X83539581Y-35301500D02*
X83587962Y-35398262D01*
X83587962Y-35398262D02*
X83587962Y-35930452D01*
X83587962Y-35398262D02*
X83636343Y-35301500D01*
X83636343Y-35301500D02*
X83733105Y-35253119D01*
X83733105Y-35253119D02*
X83878248Y-35253119D01*
X83878248Y-35253119D02*
X83975009Y-35301500D01*
X83975009Y-35301500D02*
X84023390Y-35398262D01*
X84023390Y-35398262D02*
X84023390Y-35930452D01*
X84942629Y-35930452D02*
X84942629Y-35398262D01*
X84942629Y-35398262D02*
X84894248Y-35301500D01*
X84894248Y-35301500D02*
X84797486Y-35253119D01*
X84797486Y-35253119D02*
X84603962Y-35253119D01*
X84603962Y-35253119D02*
X84507200Y-35301500D01*
X84942629Y-35882072D02*
X84845867Y-35930452D01*
X84845867Y-35930452D02*
X84603962Y-35930452D01*
X84603962Y-35930452D02*
X84507200Y-35882072D01*
X84507200Y-35882072D02*
X84458819Y-35785310D01*
X84458819Y-35785310D02*
X84458819Y-35688548D01*
X84458819Y-35688548D02*
X84507200Y-35591786D01*
X84507200Y-35591786D02*
X84603962Y-35543405D01*
X84603962Y-35543405D02*
X84845867Y-35543405D01*
X84845867Y-35543405D02*
X84942629Y-35495024D01*
X85281295Y-35253119D02*
X85668343Y-35253119D01*
X85426438Y-34914452D02*
X85426438Y-35785310D01*
X85426438Y-35785310D02*
X85474819Y-35882072D01*
X85474819Y-35882072D02*
X85571581Y-35930452D01*
X85571581Y-35930452D02*
X85668343Y-35930452D01*
X85958628Y-35882072D02*
X86055390Y-35930452D01*
X86055390Y-35930452D02*
X86248914Y-35930452D01*
X86248914Y-35930452D02*
X86345676Y-35882072D01*
X86345676Y-35882072D02*
X86394057Y-35785310D01*
X86394057Y-35785310D02*
X86394057Y-35736929D01*
X86394057Y-35736929D02*
X86345676Y-35640167D01*
X86345676Y-35640167D02*
X86248914Y-35591786D01*
X86248914Y-35591786D02*
X86103771Y-35591786D01*
X86103771Y-35591786D02*
X86007009Y-35543405D01*
X86007009Y-35543405D02*
X85958628Y-35446643D01*
X85958628Y-35446643D02*
X85958628Y-35398262D01*
X85958628Y-35398262D02*
X86007009Y-35301500D01*
X86007009Y-35301500D02*
X86103771Y-35253119D01*
X86103771Y-35253119D02*
X86248914Y-35253119D01*
X86248914Y-35253119D02*
X86345676Y-35301500D01*
X87264914Y-35253119D02*
X87264914Y-35930452D01*
X86829485Y-35253119D02*
X86829485Y-35785310D01*
X86829485Y-35785310D02*
X86877866Y-35882072D01*
X86877866Y-35882072D02*
X86974628Y-35930452D01*
X86974628Y-35930452D02*
X87119771Y-35930452D01*
X87119771Y-35930452D02*
X87216533Y-35882072D01*
X87216533Y-35882072D02*
X87264914Y-35833691D01*
X59566819Y-71744452D02*
X59083009Y-71744452D01*
X59083009Y-71744452D02*
X59034628Y-72228262D01*
X59034628Y-72228262D02*
X59083009Y-72179881D01*
X59083009Y-72179881D02*
X59179771Y-72131500D01*
X59179771Y-72131500D02*
X59421676Y-72131500D01*
X59421676Y-72131500D02*
X59518438Y-72179881D01*
X59518438Y-72179881D02*
X59566819Y-72228262D01*
X59566819Y-72228262D02*
X59615200Y-72325024D01*
X59615200Y-72325024D02*
X59615200Y-72566929D01*
X59615200Y-72566929D02*
X59566819Y-72663691D01*
X59566819Y-72663691D02*
X59518438Y-72712072D01*
X59518438Y-72712072D02*
X59421676Y-72760452D01*
X59421676Y-72760452D02*
X59179771Y-72760452D01*
X59179771Y-72760452D02*
X59083009Y-72712072D01*
X59083009Y-72712072D02*
X59034628Y-72663691D01*
X59953866Y-71744452D02*
X60582819Y-71744452D01*
X60582819Y-71744452D02*
X60244152Y-72131500D01*
X60244152Y-72131500D02*
X60389295Y-72131500D01*
X60389295Y-72131500D02*
X60486057Y-72179881D01*
X60486057Y-72179881D02*
X60534438Y-72228262D01*
X60534438Y-72228262D02*
X60582819Y-72325024D01*
X60582819Y-72325024D02*
X60582819Y-72566929D01*
X60582819Y-72566929D02*
X60534438Y-72663691D01*
X60534438Y-72663691D02*
X60486057Y-72712072D01*
X60486057Y-72712072D02*
X60389295Y-72760452D01*
X60389295Y-72760452D02*
X60099009Y-72760452D01*
X60099009Y-72760452D02*
X60002247Y-72712072D01*
X60002247Y-72712072D02*
X59953866Y-72663691D01*
X60969866Y-71841214D02*
X61018247Y-71792833D01*
X61018247Y-71792833D02*
X61115009Y-71744452D01*
X61115009Y-71744452D02*
X61356914Y-71744452D01*
X61356914Y-71744452D02*
X61453676Y-71792833D01*
X61453676Y-71792833D02*
X61502057Y-71841214D01*
X61502057Y-71841214D02*
X61550438Y-71937976D01*
X61550438Y-71937976D02*
X61550438Y-72034738D01*
X61550438Y-72034738D02*
X61502057Y-72179881D01*
X61502057Y-72179881D02*
X60921485Y-72760452D01*
X60921485Y-72760452D02*
X61550438Y-72760452D01*
X61985866Y-72083119D02*
X61985866Y-72760452D01*
X61985866Y-72179881D02*
X62034247Y-72131500D01*
X62034247Y-72131500D02*
X62131009Y-72083119D01*
X62131009Y-72083119D02*
X62276152Y-72083119D01*
X62276152Y-72083119D02*
X62372914Y-72131500D01*
X62372914Y-72131500D02*
X62421295Y-72228262D01*
X62421295Y-72228262D02*
X62421295Y-72760452D01*
X62905104Y-72760452D02*
X62905104Y-72083119D01*
X62905104Y-72179881D02*
X62953485Y-72131500D01*
X62953485Y-72131500D02*
X63050247Y-72083119D01*
X63050247Y-72083119D02*
X63195390Y-72083119D01*
X63195390Y-72083119D02*
X63292152Y-72131500D01*
X63292152Y-72131500D02*
X63340533Y-72228262D01*
X63340533Y-72228262D02*
X63340533Y-72760452D01*
X63340533Y-72228262D02*
X63388914Y-72131500D01*
X63388914Y-72131500D02*
X63485676Y-72083119D01*
X63485676Y-72083119D02*
X63630819Y-72083119D01*
X63630819Y-72083119D02*
X63727580Y-72131500D01*
X63727580Y-72131500D02*
X63775961Y-72228262D01*
X63775961Y-72228262D02*
X63775961Y-72760452D01*
X65517676Y-72760452D02*
X65033866Y-72760452D01*
X65033866Y-72760452D02*
X65033866Y-71744452D01*
X66291771Y-72760452D02*
X66291771Y-72228262D01*
X66291771Y-72228262D02*
X66243390Y-72131500D01*
X66243390Y-72131500D02*
X66146628Y-72083119D01*
X66146628Y-72083119D02*
X65953104Y-72083119D01*
X65953104Y-72083119D02*
X65856342Y-72131500D01*
X66291771Y-72712072D02*
X66195009Y-72760452D01*
X66195009Y-72760452D02*
X65953104Y-72760452D01*
X65953104Y-72760452D02*
X65856342Y-72712072D01*
X65856342Y-72712072D02*
X65807961Y-72615310D01*
X65807961Y-72615310D02*
X65807961Y-72518548D01*
X65807961Y-72518548D02*
X65856342Y-72421786D01*
X65856342Y-72421786D02*
X65953104Y-72373405D01*
X65953104Y-72373405D02*
X66195009Y-72373405D01*
X66195009Y-72373405D02*
X66291771Y-72325024D01*
X66727199Y-72712072D02*
X66823961Y-72760452D01*
X66823961Y-72760452D02*
X67017485Y-72760452D01*
X67017485Y-72760452D02*
X67114247Y-72712072D01*
X67114247Y-72712072D02*
X67162628Y-72615310D01*
X67162628Y-72615310D02*
X67162628Y-72566929D01*
X67162628Y-72566929D02*
X67114247Y-72470167D01*
X67114247Y-72470167D02*
X67017485Y-72421786D01*
X67017485Y-72421786D02*
X66872342Y-72421786D01*
X66872342Y-72421786D02*
X66775580Y-72373405D01*
X66775580Y-72373405D02*
X66727199Y-72276643D01*
X66727199Y-72276643D02*
X66727199Y-72228262D01*
X66727199Y-72228262D02*
X66775580Y-72131500D01*
X66775580Y-72131500D02*
X66872342Y-72083119D01*
X66872342Y-72083119D02*
X67017485Y-72083119D01*
X67017485Y-72083119D02*
X67114247Y-72131500D01*
X67985104Y-72712072D02*
X67888342Y-72760452D01*
X67888342Y-72760452D02*
X67694818Y-72760452D01*
X67694818Y-72760452D02*
X67598056Y-72712072D01*
X67598056Y-72712072D02*
X67549675Y-72615310D01*
X67549675Y-72615310D02*
X67549675Y-72228262D01*
X67549675Y-72228262D02*
X67598056Y-72131500D01*
X67598056Y-72131500D02*
X67694818Y-72083119D01*
X67694818Y-72083119D02*
X67888342Y-72083119D01*
X67888342Y-72083119D02*
X67985104Y-72131500D01*
X67985104Y-72131500D02*
X68033485Y-72228262D01*
X68033485Y-72228262D02*
X68033485Y-72325024D01*
X68033485Y-72325024D02*
X67549675Y-72421786D01*
X68468913Y-72760452D02*
X68468913Y-72083119D01*
X68468913Y-72276643D02*
X68517294Y-72179881D01*
X68517294Y-72179881D02*
X68565675Y-72131500D01*
X68565675Y-72131500D02*
X68662437Y-72083119D01*
X68662437Y-72083119D02*
X68759199Y-72083119D01*
D10*
X50203826Y-65620009D02*
X49599064Y-65620009D01*
X49599064Y-65620009D02*
X49538588Y-66224771D01*
X49538588Y-66224771D02*
X49599064Y-66164294D01*
X49599064Y-66164294D02*
X49720017Y-66103818D01*
X49720017Y-66103818D02*
X50022398Y-66103818D01*
X50022398Y-66103818D02*
X50143350Y-66164294D01*
X50143350Y-66164294D02*
X50203826Y-66224771D01*
X50203826Y-66224771D02*
X50264303Y-66345723D01*
X50264303Y-66345723D02*
X50264303Y-66648104D01*
X50264303Y-66648104D02*
X50203826Y-66769056D01*
X50203826Y-66769056D02*
X50143350Y-66829533D01*
X50143350Y-66829533D02*
X50022398Y-66890009D01*
X50022398Y-66890009D02*
X49720017Y-66890009D01*
X49720017Y-66890009D02*
X49599064Y-66829533D01*
X49599064Y-66829533D02*
X49538588Y-66769056D01*
X50627160Y-65620009D02*
X51050493Y-66890009D01*
X51050493Y-66890009D02*
X51473827Y-65620009D01*
D12*
X89354819Y-57325666D02*
X88878628Y-57658999D01*
X89354819Y-57897094D02*
X88354819Y-57897094D01*
X88354819Y-57897094D02*
X88354819Y-57516142D01*
X88354819Y-57516142D02*
X88402438Y-57420904D01*
X88402438Y-57420904D02*
X88450057Y-57373285D01*
X88450057Y-57373285D02*
X88545295Y-57325666D01*
X88545295Y-57325666D02*
X88688152Y-57325666D01*
X88688152Y-57325666D02*
X88783390Y-57373285D01*
X88783390Y-57373285D02*
X88831009Y-57420904D01*
X88831009Y-57420904D02*
X88878628Y-57516142D01*
X88878628Y-57516142D02*
X88878628Y-57897094D01*
X88354819Y-56468523D02*
X88354819Y-56658999D01*
X88354819Y-56658999D02*
X88402438Y-56754237D01*
X88402438Y-56754237D02*
X88450057Y-56801856D01*
X88450057Y-56801856D02*
X88592914Y-56897094D01*
X88592914Y-56897094D02*
X88783390Y-56944713D01*
X88783390Y-56944713D02*
X89164342Y-56944713D01*
X89164342Y-56944713D02*
X89259580Y-56897094D01*
X89259580Y-56897094D02*
X89307200Y-56849475D01*
X89307200Y-56849475D02*
X89354819Y-56754237D01*
X89354819Y-56754237D02*
X89354819Y-56563761D01*
X89354819Y-56563761D02*
X89307200Y-56468523D01*
X89307200Y-56468523D02*
X89259580Y-56420904D01*
X89259580Y-56420904D02*
X89164342Y-56373285D01*
X89164342Y-56373285D02*
X88926247Y-56373285D01*
X88926247Y-56373285D02*
X88831009Y-56420904D01*
X88831009Y-56420904D02*
X88783390Y-56468523D01*
X88783390Y-56468523D02*
X88735771Y-56563761D01*
X88735771Y-56563761D02*
X88735771Y-56754237D01*
X88735771Y-56754237D02*
X88783390Y-56849475D01*
X88783390Y-56849475D02*
X88831009Y-56897094D01*
X88831009Y-56897094D02*
X88926247Y-56944713D01*
X109982190Y-72749580D02*
X109934571Y-72797200D01*
X109934571Y-72797200D02*
X109791714Y-72844819D01*
X109791714Y-72844819D02*
X109696476Y-72844819D01*
X109696476Y-72844819D02*
X109553619Y-72797200D01*
X109553619Y-72797200D02*
X109458381Y-72701961D01*
X109458381Y-72701961D02*
X109410762Y-72606723D01*
X109410762Y-72606723D02*
X109363143Y-72416247D01*
X109363143Y-72416247D02*
X109363143Y-72273390D01*
X109363143Y-72273390D02*
X109410762Y-72082914D01*
X109410762Y-72082914D02*
X109458381Y-71987676D01*
X109458381Y-71987676D02*
X109553619Y-71892438D01*
X109553619Y-71892438D02*
X109696476Y-71844819D01*
X109696476Y-71844819D02*
X109791714Y-71844819D01*
X109791714Y-71844819D02*
X109934571Y-71892438D01*
X109934571Y-71892438D02*
X109982190Y-71940057D01*
X110553619Y-72844819D02*
X110458381Y-72797200D01*
X110458381Y-72797200D02*
X110410762Y-72749580D01*
X110410762Y-72749580D02*
X110363143Y-72654342D01*
X110363143Y-72654342D02*
X110363143Y-72368628D01*
X110363143Y-72368628D02*
X110410762Y-72273390D01*
X110410762Y-72273390D02*
X110458381Y-72225771D01*
X110458381Y-72225771D02*
X110553619Y-72178152D01*
X110553619Y-72178152D02*
X110696476Y-72178152D01*
X110696476Y-72178152D02*
X110791714Y-72225771D01*
X110791714Y-72225771D02*
X110839333Y-72273390D01*
X110839333Y-72273390D02*
X110886952Y-72368628D01*
X110886952Y-72368628D02*
X110886952Y-72654342D01*
X110886952Y-72654342D02*
X110839333Y-72749580D01*
X110839333Y-72749580D02*
X110791714Y-72797200D01*
X110791714Y-72797200D02*
X110696476Y-72844819D01*
X110696476Y-72844819D02*
X110553619Y-72844819D01*
X111315524Y-72178152D02*
X111315524Y-72844819D01*
X111315524Y-72273390D02*
X111363143Y-72225771D01*
X111363143Y-72225771D02*
X111458381Y-72178152D01*
X111458381Y-72178152D02*
X111601238Y-72178152D01*
X111601238Y-72178152D02*
X111696476Y-72225771D01*
X111696476Y-72225771D02*
X111744095Y-72321009D01*
X111744095Y-72321009D02*
X111744095Y-72844819D01*
X112220286Y-72178152D02*
X112220286Y-72844819D01*
X112220286Y-72273390D02*
X112267905Y-72225771D01*
X112267905Y-72225771D02*
X112363143Y-72178152D01*
X112363143Y-72178152D02*
X112506000Y-72178152D01*
X112506000Y-72178152D02*
X112601238Y-72225771D01*
X112601238Y-72225771D02*
X112648857Y-72321009D01*
X112648857Y-72321009D02*
X112648857Y-72844819D01*
X113648857Y-72844819D02*
X113077429Y-72844819D01*
X113363143Y-72844819D02*
X113363143Y-71844819D01*
X113363143Y-71844819D02*
X113267905Y-71987676D01*
X113267905Y-71987676D02*
X113172667Y-72082914D01*
X113172667Y-72082914D02*
X113077429Y-72130533D01*
X32432666Y-60160819D02*
X32432666Y-60875104D01*
X32432666Y-60875104D02*
X32385047Y-61017961D01*
X32385047Y-61017961D02*
X32289809Y-61113200D01*
X32289809Y-61113200D02*
X32146952Y-61160819D01*
X32146952Y-61160819D02*
X32051714Y-61160819D01*
X33432666Y-61160819D02*
X32861238Y-61160819D01*
X33146952Y-61160819D02*
X33146952Y-60160819D01*
X33146952Y-60160819D02*
X33051714Y-60303676D01*
X33051714Y-60303676D02*
X32956476Y-60398914D01*
X32956476Y-60398914D02*
X32861238Y-60446533D01*
X46646905Y-68526819D02*
X46646905Y-67526819D01*
X46646905Y-67526819D02*
X46885000Y-67526819D01*
X46885000Y-67526819D02*
X47027857Y-67574438D01*
X47027857Y-67574438D02*
X47123095Y-67669676D01*
X47123095Y-67669676D02*
X47170714Y-67764914D01*
X47170714Y-67764914D02*
X47218333Y-67955390D01*
X47218333Y-67955390D02*
X47218333Y-68098247D01*
X47218333Y-68098247D02*
X47170714Y-68288723D01*
X47170714Y-68288723D02*
X47123095Y-68383961D01*
X47123095Y-68383961D02*
X47027857Y-68479200D01*
X47027857Y-68479200D02*
X46885000Y-68526819D01*
X46885000Y-68526819D02*
X46646905Y-68526819D01*
X47599286Y-67622057D02*
X47646905Y-67574438D01*
X47646905Y-67574438D02*
X47742143Y-67526819D01*
X47742143Y-67526819D02*
X47980238Y-67526819D01*
X47980238Y-67526819D02*
X48075476Y-67574438D01*
X48075476Y-67574438D02*
X48123095Y-67622057D01*
X48123095Y-67622057D02*
X48170714Y-67717295D01*
X48170714Y-67717295D02*
X48170714Y-67812533D01*
X48170714Y-67812533D02*
X48123095Y-67955390D01*
X48123095Y-67955390D02*
X47551667Y-68526819D01*
X47551667Y-68526819D02*
X48170714Y-68526819D01*
X93688819Y-61539332D02*
X93688819Y-61348856D01*
X93688819Y-61348856D02*
X93736438Y-61253618D01*
X93736438Y-61253618D02*
X93831676Y-61158380D01*
X93831676Y-61158380D02*
X94022152Y-61110761D01*
X94022152Y-61110761D02*
X94355485Y-61110761D01*
X94355485Y-61110761D02*
X94545961Y-61158380D01*
X94545961Y-61158380D02*
X94641200Y-61253618D01*
X94641200Y-61253618D02*
X94688819Y-61348856D01*
X94688819Y-61348856D02*
X94688819Y-61539332D01*
X94688819Y-61539332D02*
X94641200Y-61634570D01*
X94641200Y-61634570D02*
X94545961Y-61729808D01*
X94545961Y-61729808D02*
X94355485Y-61777427D01*
X94355485Y-61777427D02*
X94022152Y-61777427D01*
X94022152Y-61777427D02*
X93831676Y-61729808D01*
X93831676Y-61729808D02*
X93736438Y-61634570D01*
X93736438Y-61634570D02*
X93688819Y-61539332D01*
X94688819Y-60682189D02*
X93688819Y-60682189D01*
X94688819Y-60110761D02*
X94117390Y-60539332D01*
X93688819Y-60110761D02*
X94260247Y-60682189D01*
X94688819Y-59682189D02*
X93688819Y-59682189D01*
X107547580Y-54776666D02*
X107595200Y-54824285D01*
X107595200Y-54824285D02*
X107642819Y-54967142D01*
X107642819Y-54967142D02*
X107642819Y-55062380D01*
X107642819Y-55062380D02*
X107595200Y-55205237D01*
X107595200Y-55205237D02*
X107499961Y-55300475D01*
X107499961Y-55300475D02*
X107404723Y-55348094D01*
X107404723Y-55348094D02*
X107214247Y-55395713D01*
X107214247Y-55395713D02*
X107071390Y-55395713D01*
X107071390Y-55395713D02*
X106880914Y-55348094D01*
X106880914Y-55348094D02*
X106785676Y-55300475D01*
X106785676Y-55300475D02*
X106690438Y-55205237D01*
X106690438Y-55205237D02*
X106642819Y-55062380D01*
X106642819Y-55062380D02*
X106642819Y-54967142D01*
X106642819Y-54967142D02*
X106690438Y-54824285D01*
X106690438Y-54824285D02*
X106738057Y-54776666D01*
X106738057Y-54395713D02*
X106690438Y-54348094D01*
X106690438Y-54348094D02*
X106642819Y-54252856D01*
X106642819Y-54252856D02*
X106642819Y-54014761D01*
X106642819Y-54014761D02*
X106690438Y-53919523D01*
X106690438Y-53919523D02*
X106738057Y-53871904D01*
X106738057Y-53871904D02*
X106833295Y-53824285D01*
X106833295Y-53824285D02*
X106928533Y-53824285D01*
X106928533Y-53824285D02*
X107071390Y-53871904D01*
X107071390Y-53871904D02*
X107642819Y-54443332D01*
X107642819Y-54443332D02*
X107642819Y-53824285D01*
X94339580Y-69508666D02*
X94387200Y-69556285D01*
X94387200Y-69556285D02*
X94434819Y-69699142D01*
X94434819Y-69699142D02*
X94434819Y-69794380D01*
X94434819Y-69794380D02*
X94387200Y-69937237D01*
X94387200Y-69937237D02*
X94291961Y-70032475D01*
X94291961Y-70032475D02*
X94196723Y-70080094D01*
X94196723Y-70080094D02*
X94006247Y-70127713D01*
X94006247Y-70127713D02*
X93863390Y-70127713D01*
X93863390Y-70127713D02*
X93672914Y-70080094D01*
X93672914Y-70080094D02*
X93577676Y-70032475D01*
X93577676Y-70032475D02*
X93482438Y-69937237D01*
X93482438Y-69937237D02*
X93434819Y-69794380D01*
X93434819Y-69794380D02*
X93434819Y-69699142D01*
X93434819Y-69699142D02*
X93482438Y-69556285D01*
X93482438Y-69556285D02*
X93530057Y-69508666D01*
X93434819Y-69175332D02*
X93434819Y-68556285D01*
X93434819Y-68556285D02*
X93815771Y-68889618D01*
X93815771Y-68889618D02*
X93815771Y-68746761D01*
X93815771Y-68746761D02*
X93863390Y-68651523D01*
X93863390Y-68651523D02*
X93911009Y-68603904D01*
X93911009Y-68603904D02*
X94006247Y-68556285D01*
X94006247Y-68556285D02*
X94244342Y-68556285D01*
X94244342Y-68556285D02*
X94339580Y-68603904D01*
X94339580Y-68603904D02*
X94387200Y-68651523D01*
X94387200Y-68651523D02*
X94434819Y-68746761D01*
X94434819Y-68746761D02*
X94434819Y-69032475D01*
X94434819Y-69032475D02*
X94387200Y-69127713D01*
X94387200Y-69127713D02*
X94339580Y-69175332D01*
X46646905Y-64970819D02*
X46646905Y-63970819D01*
X46646905Y-63970819D02*
X46885000Y-63970819D01*
X46885000Y-63970819D02*
X47027857Y-64018438D01*
X47027857Y-64018438D02*
X47123095Y-64113676D01*
X47123095Y-64113676D02*
X47170714Y-64208914D01*
X47170714Y-64208914D02*
X47218333Y-64399390D01*
X47218333Y-64399390D02*
X47218333Y-64542247D01*
X47218333Y-64542247D02*
X47170714Y-64732723D01*
X47170714Y-64732723D02*
X47123095Y-64827961D01*
X47123095Y-64827961D02*
X47027857Y-64923200D01*
X47027857Y-64923200D02*
X46885000Y-64970819D01*
X46885000Y-64970819D02*
X46646905Y-64970819D01*
X48170714Y-64970819D02*
X47599286Y-64970819D01*
X47885000Y-64970819D02*
X47885000Y-63970819D01*
X47885000Y-63970819D02*
X47789762Y-64113676D01*
X47789762Y-64113676D02*
X47694524Y-64208914D01*
X47694524Y-64208914D02*
X47599286Y-64256533D01*
X43163833Y-72082819D02*
X42830500Y-71606628D01*
X42592405Y-72082819D02*
X42592405Y-71082819D01*
X42592405Y-71082819D02*
X42973357Y-71082819D01*
X42973357Y-71082819D02*
X43068595Y-71130438D01*
X43068595Y-71130438D02*
X43116214Y-71178057D01*
X43116214Y-71178057D02*
X43163833Y-71273295D01*
X43163833Y-71273295D02*
X43163833Y-71416152D01*
X43163833Y-71416152D02*
X43116214Y-71511390D01*
X43116214Y-71511390D02*
X43068595Y-71559009D01*
X43068595Y-71559009D02*
X42973357Y-71606628D01*
X42973357Y-71606628D02*
X42592405Y-71606628D01*
X44068595Y-71082819D02*
X43592405Y-71082819D01*
X43592405Y-71082819D02*
X43544786Y-71559009D01*
X43544786Y-71559009D02*
X43592405Y-71511390D01*
X43592405Y-71511390D02*
X43687643Y-71463771D01*
X43687643Y-71463771D02*
X43925738Y-71463771D01*
X43925738Y-71463771D02*
X44020976Y-71511390D01*
X44020976Y-71511390D02*
X44068595Y-71559009D01*
X44068595Y-71559009D02*
X44116214Y-71654247D01*
X44116214Y-71654247D02*
X44116214Y-71892342D01*
X44116214Y-71892342D02*
X44068595Y-71987580D01*
X44068595Y-71987580D02*
X44020976Y-72035200D01*
X44020976Y-72035200D02*
X43925738Y-72082819D01*
X43925738Y-72082819D02*
X43687643Y-72082819D01*
X43687643Y-72082819D02*
X43592405Y-72035200D01*
X43592405Y-72035200D02*
X43544786Y-71987580D01*
X64452833Y-57764819D02*
X64119500Y-57288628D01*
X63881405Y-57764819D02*
X63881405Y-56764819D01*
X63881405Y-56764819D02*
X64262357Y-56764819D01*
X64262357Y-56764819D02*
X64357595Y-56812438D01*
X64357595Y-56812438D02*
X64405214Y-56860057D01*
X64405214Y-56860057D02*
X64452833Y-56955295D01*
X64452833Y-56955295D02*
X64452833Y-57098152D01*
X64452833Y-57098152D02*
X64405214Y-57193390D01*
X64405214Y-57193390D02*
X64357595Y-57241009D01*
X64357595Y-57241009D02*
X64262357Y-57288628D01*
X64262357Y-57288628D02*
X63881405Y-57288628D01*
X65024262Y-57193390D02*
X64929024Y-57145771D01*
X64929024Y-57145771D02*
X64881405Y-57098152D01*
X64881405Y-57098152D02*
X64833786Y-57002914D01*
X64833786Y-57002914D02*
X64833786Y-56955295D01*
X64833786Y-56955295D02*
X64881405Y-56860057D01*
X64881405Y-56860057D02*
X64929024Y-56812438D01*
X64929024Y-56812438D02*
X65024262Y-56764819D01*
X65024262Y-56764819D02*
X65214738Y-56764819D01*
X65214738Y-56764819D02*
X65309976Y-56812438D01*
X65309976Y-56812438D02*
X65357595Y-56860057D01*
X65357595Y-56860057D02*
X65405214Y-56955295D01*
X65405214Y-56955295D02*
X65405214Y-57002914D01*
X65405214Y-57002914D02*
X65357595Y-57098152D01*
X65357595Y-57098152D02*
X65309976Y-57145771D01*
X65309976Y-57145771D02*
X65214738Y-57193390D01*
X65214738Y-57193390D02*
X65024262Y-57193390D01*
X65024262Y-57193390D02*
X64929024Y-57241009D01*
X64929024Y-57241009D02*
X64881405Y-57288628D01*
X64881405Y-57288628D02*
X64833786Y-57383866D01*
X64833786Y-57383866D02*
X64833786Y-57574342D01*
X64833786Y-57574342D02*
X64881405Y-57669580D01*
X64881405Y-57669580D02*
X64929024Y-57717200D01*
X64929024Y-57717200D02*
X65024262Y-57764819D01*
X65024262Y-57764819D02*
X65214738Y-57764819D01*
X65214738Y-57764819D02*
X65309976Y-57717200D01*
X65309976Y-57717200D02*
X65357595Y-57669580D01*
X65357595Y-57669580D02*
X65405214Y-57574342D01*
X65405214Y-57574342D02*
X65405214Y-57383866D01*
X65405214Y-57383866D02*
X65357595Y-57288628D01*
X65357595Y-57288628D02*
X65309976Y-57241009D01*
X65309976Y-57241009D02*
X65214738Y-57193390D01*
X71574819Y-61643666D02*
X71098628Y-61976999D01*
X71574819Y-62215094D02*
X70574819Y-62215094D01*
X70574819Y-62215094D02*
X70574819Y-61834142D01*
X70574819Y-61834142D02*
X70622438Y-61738904D01*
X70622438Y-61738904D02*
X70670057Y-61691285D01*
X70670057Y-61691285D02*
X70765295Y-61643666D01*
X70765295Y-61643666D02*
X70908152Y-61643666D01*
X70908152Y-61643666D02*
X71003390Y-61691285D01*
X71003390Y-61691285D02*
X71051009Y-61738904D01*
X71051009Y-61738904D02*
X71098628Y-61834142D01*
X71098628Y-61834142D02*
X71098628Y-62215094D01*
X70574819Y-61310332D02*
X70574819Y-60643666D01*
X70574819Y-60643666D02*
X71574819Y-61072237D01*
X80676761Y-57963057D02*
X80581523Y-57915438D01*
X80581523Y-57915438D02*
X80486285Y-57820200D01*
X80486285Y-57820200D02*
X80343428Y-57677342D01*
X80343428Y-57677342D02*
X80248190Y-57629723D01*
X80248190Y-57629723D02*
X80152952Y-57629723D01*
X80200571Y-57867819D02*
X80105333Y-57820200D01*
X80105333Y-57820200D02*
X80010095Y-57724961D01*
X80010095Y-57724961D02*
X79962476Y-57534485D01*
X79962476Y-57534485D02*
X79962476Y-57201152D01*
X79962476Y-57201152D02*
X80010095Y-57010676D01*
X80010095Y-57010676D02*
X80105333Y-56915438D01*
X80105333Y-56915438D02*
X80200571Y-56867819D01*
X80200571Y-56867819D02*
X80391047Y-56867819D01*
X80391047Y-56867819D02*
X80486285Y-56915438D01*
X80486285Y-56915438D02*
X80581523Y-57010676D01*
X80581523Y-57010676D02*
X80629142Y-57201152D01*
X80629142Y-57201152D02*
X80629142Y-57534485D01*
X80629142Y-57534485D02*
X80581523Y-57724961D01*
X80581523Y-57724961D02*
X80486285Y-57820200D01*
X80486285Y-57820200D02*
X80391047Y-57867819D01*
X80391047Y-57867819D02*
X80200571Y-57867819D01*
X81581523Y-57867819D02*
X81010095Y-57867819D01*
X81295809Y-57867819D02*
X81295809Y-56867819D01*
X81295809Y-56867819D02*
X81200571Y-57010676D01*
X81200571Y-57010676D02*
X81105333Y-57105914D01*
X81105333Y-57105914D02*
X81010095Y-57153533D01*
X48347333Y-53285580D02*
X48299714Y-53333200D01*
X48299714Y-53333200D02*
X48156857Y-53380819D01*
X48156857Y-53380819D02*
X48061619Y-53380819D01*
X48061619Y-53380819D02*
X47918762Y-53333200D01*
X47918762Y-53333200D02*
X47823524Y-53237961D01*
X47823524Y-53237961D02*
X47775905Y-53142723D01*
X47775905Y-53142723D02*
X47728286Y-52952247D01*
X47728286Y-52952247D02*
X47728286Y-52809390D01*
X47728286Y-52809390D02*
X47775905Y-52618914D01*
X47775905Y-52618914D02*
X47823524Y-52523676D01*
X47823524Y-52523676D02*
X47918762Y-52428438D01*
X47918762Y-52428438D02*
X48061619Y-52380819D01*
X48061619Y-52380819D02*
X48156857Y-52380819D01*
X48156857Y-52380819D02*
X48299714Y-52428438D01*
X48299714Y-52428438D02*
X48347333Y-52476057D01*
X49299714Y-53380819D02*
X48728286Y-53380819D01*
X49014000Y-53380819D02*
X49014000Y-52380819D01*
X49014000Y-52380819D02*
X48918762Y-52523676D01*
X48918762Y-52523676D02*
X48823524Y-52618914D01*
X48823524Y-52618914D02*
X48728286Y-52666533D01*
X129502819Y-46481904D02*
X130312342Y-46481904D01*
X130312342Y-46481904D02*
X130407580Y-46434285D01*
X130407580Y-46434285D02*
X130455200Y-46386666D01*
X130455200Y-46386666D02*
X130502819Y-46291428D01*
X130502819Y-46291428D02*
X130502819Y-46100952D01*
X130502819Y-46100952D02*
X130455200Y-46005714D01*
X130455200Y-46005714D02*
X130407580Y-45958095D01*
X130407580Y-45958095D02*
X130312342Y-45910476D01*
X130312342Y-45910476D02*
X129502819Y-45910476D01*
X130502819Y-44910476D02*
X130502819Y-45481904D01*
X130502819Y-45196190D02*
X129502819Y-45196190D01*
X129502819Y-45196190D02*
X129645676Y-45291428D01*
X129645676Y-45291428D02*
X129740914Y-45386666D01*
X129740914Y-45386666D02*
X129788533Y-45481904D01*
X43050833Y-64970819D02*
X42717500Y-64494628D01*
X42479405Y-64970819D02*
X42479405Y-63970819D01*
X42479405Y-63970819D02*
X42860357Y-63970819D01*
X42860357Y-63970819D02*
X42955595Y-64018438D01*
X42955595Y-64018438D02*
X43003214Y-64066057D01*
X43003214Y-64066057D02*
X43050833Y-64161295D01*
X43050833Y-64161295D02*
X43050833Y-64304152D01*
X43050833Y-64304152D02*
X43003214Y-64399390D01*
X43003214Y-64399390D02*
X42955595Y-64447009D01*
X42955595Y-64447009D02*
X42860357Y-64494628D01*
X42860357Y-64494628D02*
X42479405Y-64494628D01*
X43384167Y-63970819D02*
X44003214Y-63970819D01*
X44003214Y-63970819D02*
X43669881Y-64351771D01*
X43669881Y-64351771D02*
X43812738Y-64351771D01*
X43812738Y-64351771D02*
X43907976Y-64399390D01*
X43907976Y-64399390D02*
X43955595Y-64447009D01*
X43955595Y-64447009D02*
X44003214Y-64542247D01*
X44003214Y-64542247D02*
X44003214Y-64780342D01*
X44003214Y-64780342D02*
X43955595Y-64875580D01*
X43955595Y-64875580D02*
X43907976Y-64923200D01*
X43907976Y-64923200D02*
X43812738Y-64970819D01*
X43812738Y-64970819D02*
X43527024Y-64970819D01*
X43527024Y-64970819D02*
X43431786Y-64923200D01*
X43431786Y-64923200D02*
X43384167Y-64875580D01*
X43154333Y-68506753D02*
X42821000Y-68030562D01*
X42582905Y-68506753D02*
X42582905Y-67506753D01*
X42582905Y-67506753D02*
X42963857Y-67506753D01*
X42963857Y-67506753D02*
X43059095Y-67554372D01*
X43059095Y-67554372D02*
X43106714Y-67601991D01*
X43106714Y-67601991D02*
X43154333Y-67697229D01*
X43154333Y-67697229D02*
X43154333Y-67840086D01*
X43154333Y-67840086D02*
X43106714Y-67935324D01*
X43106714Y-67935324D02*
X43059095Y-67982943D01*
X43059095Y-67982943D02*
X42963857Y-68030562D01*
X42963857Y-68030562D02*
X42582905Y-68030562D01*
X44011476Y-67840086D02*
X44011476Y-68506753D01*
X43773381Y-67459134D02*
X43535286Y-68173419D01*
X43535286Y-68173419D02*
X44154333Y-68173419D01*
X46552905Y-72082819D02*
X46552905Y-71082819D01*
X46552905Y-71082819D02*
X46791000Y-71082819D01*
X46791000Y-71082819D02*
X46933857Y-71130438D01*
X46933857Y-71130438D02*
X47029095Y-71225676D01*
X47029095Y-71225676D02*
X47076714Y-71320914D01*
X47076714Y-71320914D02*
X47124333Y-71511390D01*
X47124333Y-71511390D02*
X47124333Y-71654247D01*
X47124333Y-71654247D02*
X47076714Y-71844723D01*
X47076714Y-71844723D02*
X47029095Y-71939961D01*
X47029095Y-71939961D02*
X46933857Y-72035200D01*
X46933857Y-72035200D02*
X46791000Y-72082819D01*
X46791000Y-72082819D02*
X46552905Y-72082819D01*
X47457667Y-71082819D02*
X48076714Y-71082819D01*
X48076714Y-71082819D02*
X47743381Y-71463771D01*
X47743381Y-71463771D02*
X47886238Y-71463771D01*
X47886238Y-71463771D02*
X47981476Y-71511390D01*
X47981476Y-71511390D02*
X48029095Y-71559009D01*
X48029095Y-71559009D02*
X48076714Y-71654247D01*
X48076714Y-71654247D02*
X48076714Y-71892342D01*
X48076714Y-71892342D02*
X48029095Y-71987580D01*
X48029095Y-71987580D02*
X47981476Y-72035200D01*
X47981476Y-72035200D02*
X47886238Y-72082819D01*
X47886238Y-72082819D02*
X47600524Y-72082819D01*
X47600524Y-72082819D02*
X47505286Y-72035200D01*
X47505286Y-72035200D02*
X47457667Y-71987580D01*
X77882761Y-58217057D02*
X77787523Y-58169438D01*
X77787523Y-58169438D02*
X77692285Y-58074200D01*
X77692285Y-58074200D02*
X77549428Y-57931342D01*
X77549428Y-57931342D02*
X77454190Y-57883723D01*
X77454190Y-57883723D02*
X77358952Y-57883723D01*
X77406571Y-58121819D02*
X77311333Y-58074200D01*
X77311333Y-58074200D02*
X77216095Y-57978961D01*
X77216095Y-57978961D02*
X77168476Y-57788485D01*
X77168476Y-57788485D02*
X77168476Y-57455152D01*
X77168476Y-57455152D02*
X77216095Y-57264676D01*
X77216095Y-57264676D02*
X77311333Y-57169438D01*
X77311333Y-57169438D02*
X77406571Y-57121819D01*
X77406571Y-57121819D02*
X77597047Y-57121819D01*
X77597047Y-57121819D02*
X77692285Y-57169438D01*
X77692285Y-57169438D02*
X77787523Y-57264676D01*
X77787523Y-57264676D02*
X77835142Y-57455152D01*
X77835142Y-57455152D02*
X77835142Y-57788485D01*
X77835142Y-57788485D02*
X77787523Y-57978961D01*
X77787523Y-57978961D02*
X77692285Y-58074200D01*
X77692285Y-58074200D02*
X77597047Y-58121819D01*
X77597047Y-58121819D02*
X77406571Y-58121819D01*
X78216095Y-57217057D02*
X78263714Y-57169438D01*
X78263714Y-57169438D02*
X78358952Y-57121819D01*
X78358952Y-57121819D02*
X78597047Y-57121819D01*
X78597047Y-57121819D02*
X78692285Y-57169438D01*
X78692285Y-57169438D02*
X78739904Y-57217057D01*
X78739904Y-57217057D02*
X78787523Y-57312295D01*
X78787523Y-57312295D02*
X78787523Y-57407533D01*
X78787523Y-57407533D02*
X78739904Y-57550390D01*
X78739904Y-57550390D02*
X78168476Y-58121819D01*
X78168476Y-58121819D02*
X78787523Y-58121819D01*
X74001333Y-61169819D02*
X73668000Y-60693628D01*
X73429905Y-61169819D02*
X73429905Y-60169819D01*
X73429905Y-60169819D02*
X73810857Y-60169819D01*
X73810857Y-60169819D02*
X73906095Y-60217438D01*
X73906095Y-60217438D02*
X73953714Y-60265057D01*
X73953714Y-60265057D02*
X74001333Y-60360295D01*
X74001333Y-60360295D02*
X74001333Y-60503152D01*
X74001333Y-60503152D02*
X73953714Y-60598390D01*
X73953714Y-60598390D02*
X73906095Y-60646009D01*
X73906095Y-60646009D02*
X73810857Y-60693628D01*
X73810857Y-60693628D02*
X73429905Y-60693628D01*
X74382286Y-60265057D02*
X74429905Y-60217438D01*
X74429905Y-60217438D02*
X74525143Y-60169819D01*
X74525143Y-60169819D02*
X74763238Y-60169819D01*
X74763238Y-60169819D02*
X74858476Y-60217438D01*
X74858476Y-60217438D02*
X74906095Y-60265057D01*
X74906095Y-60265057D02*
X74953714Y-60360295D01*
X74953714Y-60360295D02*
X74953714Y-60455533D01*
X74953714Y-60455533D02*
X74906095Y-60598390D01*
X74906095Y-60598390D02*
X74334667Y-61169819D01*
X74334667Y-61169819D02*
X74953714Y-61169819D01*
X67606057Y-59863738D02*
X67558438Y-59958976D01*
X67558438Y-59958976D02*
X67463200Y-60054214D01*
X67463200Y-60054214D02*
X67320342Y-60197071D01*
X67320342Y-60197071D02*
X67272723Y-60292309D01*
X67272723Y-60292309D02*
X67272723Y-60387547D01*
X67510819Y-60339928D02*
X67463200Y-60435166D01*
X67463200Y-60435166D02*
X67367961Y-60530404D01*
X67367961Y-60530404D02*
X67177485Y-60578023D01*
X67177485Y-60578023D02*
X66844152Y-60578023D01*
X66844152Y-60578023D02*
X66653676Y-60530404D01*
X66653676Y-60530404D02*
X66558438Y-60435166D01*
X66558438Y-60435166D02*
X66510819Y-60339928D01*
X66510819Y-60339928D02*
X66510819Y-60149452D01*
X66510819Y-60149452D02*
X66558438Y-60054214D01*
X66558438Y-60054214D02*
X66653676Y-59958976D01*
X66653676Y-59958976D02*
X66844152Y-59911357D01*
X66844152Y-59911357D02*
X67177485Y-59911357D01*
X67177485Y-59911357D02*
X67367961Y-59958976D01*
X67367961Y-59958976D02*
X67463200Y-60054214D01*
X67463200Y-60054214D02*
X67510819Y-60149452D01*
X67510819Y-60149452D02*
X67510819Y-60339928D01*
X66510819Y-59578023D02*
X66510819Y-58958976D01*
X66510819Y-58958976D02*
X66891771Y-59292309D01*
X66891771Y-59292309D02*
X66891771Y-59149452D01*
X66891771Y-59149452D02*
X66939390Y-59054214D01*
X66939390Y-59054214D02*
X66987009Y-59006595D01*
X66987009Y-59006595D02*
X67082247Y-58958976D01*
X67082247Y-58958976D02*
X67320342Y-58958976D01*
X67320342Y-58958976D02*
X67415580Y-59006595D01*
X67415580Y-59006595D02*
X67463200Y-59054214D01*
X67463200Y-59054214D02*
X67510819Y-59149452D01*
X67510819Y-59149452D02*
X67510819Y-59435166D01*
X67510819Y-59435166D02*
X67463200Y-59530404D01*
X67463200Y-59530404D02*
X67415580Y-59578023D01*
X84819955Y-61291819D02*
X84486622Y-60815628D01*
X84248527Y-61291819D02*
X84248527Y-60291819D01*
X84248527Y-60291819D02*
X84629479Y-60291819D01*
X84629479Y-60291819D02*
X84724717Y-60339438D01*
X84724717Y-60339438D02*
X84772336Y-60387057D01*
X84772336Y-60387057D02*
X84819955Y-60482295D01*
X84819955Y-60482295D02*
X84819955Y-60625152D01*
X84819955Y-60625152D02*
X84772336Y-60720390D01*
X84772336Y-60720390D02*
X84724717Y-60768009D01*
X84724717Y-60768009D02*
X84629479Y-60815628D01*
X84629479Y-60815628D02*
X84248527Y-60815628D01*
X85772336Y-61291819D02*
X85200908Y-61291819D01*
X85486622Y-61291819D02*
X85486622Y-60291819D01*
X85486622Y-60291819D02*
X85391384Y-60434676D01*
X85391384Y-60434676D02*
X85296146Y-60529914D01*
X85296146Y-60529914D02*
X85200908Y-60577533D01*
D13*
%TO.C,R6*%
X86599500Y-57921724D02*
X86599500Y-57412276D01*
X87644500Y-57921724D02*
X87644500Y-57412276D01*
D12*
%TO.C,Conn1*%
X139282200Y-71628000D02*
X139282200Y-55880000D01*
X139256800Y-71628000D02*
X131509800Y-71628000D01*
X139256800Y-63779400D02*
X130366800Y-63779400D01*
X131535200Y-55880000D02*
X130366800Y-55880000D01*
X131509800Y-55880000D02*
X139256800Y-55880000D01*
X130366800Y-71628000D02*
X131586000Y-71628000D01*
X129223800Y-70485000D02*
X129223800Y-69316600D01*
X129223800Y-66040000D02*
X129223800Y-69316600D01*
X129223800Y-66040000D02*
X129223800Y-64897000D01*
X129223800Y-61468000D02*
X129223800Y-62611000D01*
X129223800Y-61468000D02*
X129223800Y-58166000D01*
X129223800Y-58191400D02*
X129223800Y-57023000D01*
X126963200Y-71628000D02*
X128055400Y-71628000D01*
X126937800Y-71628000D02*
X114644200Y-71628000D01*
X126937800Y-63754000D02*
X128080800Y-63754000D01*
X126937800Y-63754000D02*
X114644200Y-63754000D01*
X126937800Y-55880000D02*
X114644200Y-55880000D01*
X126912400Y-55880000D02*
X128106200Y-55880000D01*
X114644200Y-71628000D02*
X114644200Y-55880000D01*
X129223800Y-56997600D02*
G75*
G03*
X130341400Y-55880000I2J1117598D01*
G01*
X130366800Y-71628000D02*
G75*
G03*
X129223800Y-70485000I-1143000J0D01*
G01*
X128106200Y-55880000D02*
G75*
G03*
X129223800Y-56997600I1117598J-2D01*
G01*
X129223800Y-70485000D02*
G75*
G03*
X128080800Y-71628000I0J-1143000D01*
G01*
X130366800Y-63754000D02*
G75*
G03*
X130366800Y-63754000I-1143000J0D01*
G01*
D13*
%TO.C,J1*%
X45804500Y-43183000D02*
X45804500Y-59433000D01*
X24254500Y-43183000D02*
X45804500Y-43183000D01*
X24254500Y-43183000D02*
X24254500Y-59433000D01*
X24254500Y-59433000D02*
X45804500Y-59433000D01*
%TO.C,D2*%
X45725000Y-65559000D02*
X45725000Y-67029000D01*
X45725000Y-67029000D02*
X48185000Y-67029000D01*
X48185000Y-65559000D02*
X45725000Y-65559000D01*
D12*
%TO.C,U2*%
X95504000Y-56769000D02*
X105664000Y-56769000D01*
X95504000Y-63119000D02*
X98044000Y-60579000D01*
X95504000Y-68199000D02*
X95504000Y-63119000D01*
X95504000Y-73279000D02*
X95504000Y-56769000D01*
X95504000Y-73279000D02*
X105664000Y-73279000D01*
X98044000Y-60579000D02*
X103124000Y-60579000D01*
X98044000Y-70739000D02*
X95504000Y-68199000D01*
X103124000Y-60579000D02*
X105664000Y-63119000D01*
X103124000Y-70739000D02*
X98044000Y-70739000D01*
X105664000Y-56769000D02*
X105664000Y-73279000D01*
X105664000Y-63119000D02*
X105664000Y-68199000D01*
X105664000Y-68199000D02*
X103124000Y-70739000D01*
D13*
%TO.C,C2*%
X107698000Y-57257733D02*
X107698000Y-57550267D01*
X106678000Y-57257733D02*
X106678000Y-57550267D01*
D12*
%TO.C,Conn4*%
X78740000Y-27686000D02*
X78740000Y-29210000D01*
X78740000Y-29210000D02*
X104140000Y-29210000D01*
X78740000Y-34290000D02*
X78740000Y-29210000D01*
X104140000Y-27686000D02*
X78740000Y-27686000D01*
X104140000Y-29210000D02*
X104140000Y-27686000D01*
X104140000Y-34290000D02*
X78740000Y-34290000D01*
X104140000Y-34290000D02*
X104140000Y-29210000D01*
%TO.C,Conn5*%
X67564000Y-71120000D02*
X60071000Y-71120000D01*
X67564000Y-69850000D02*
X67564000Y-71120000D01*
X67564000Y-69850000D02*
X67564000Y-64770000D01*
X67564000Y-69850000D02*
X60071000Y-69850000D01*
X60071000Y-71120000D02*
X60071000Y-69850000D01*
X60071000Y-69850000D02*
X60071000Y-64770000D01*
X60071000Y-64770000D02*
X67564000Y-64770000D01*
D13*
%TO.C,C3*%
X94490000Y-66047233D02*
X94490000Y-66339767D01*
X93470000Y-66047233D02*
X93470000Y-66339767D01*
D12*
%TO.C,Conn2*%
X90678000Y-70866000D02*
X90678000Y-69342000D01*
X90678000Y-69342000D02*
X75438000Y-69342000D01*
X90678000Y-64262000D02*
X90678000Y-69342000D01*
X75438000Y-70866000D02*
X90678000Y-70866000D01*
X75438000Y-69342000D02*
X75438000Y-70866000D01*
X75438000Y-64262000D02*
X90678000Y-64262000D01*
X75438000Y-64262000D02*
X75438000Y-69342000D01*
D13*
%TO.C,D1*%
X45725000Y-62003000D02*
X45725000Y-63473000D01*
X45725000Y-63473000D02*
X48185000Y-63473000D01*
X48185000Y-62003000D02*
X45725000Y-62003000D01*
%TO.C,R5*%
X43585224Y-70372500D02*
X43075776Y-70372500D01*
X43585224Y-69327500D02*
X43075776Y-69327500D01*
D12*
%TO.C,V2*%
X128986283Y-31242000D02*
G75*
G03*
X128986283Y-31242000I-4018283J0D01*
G01*
D13*
%TO.C,R8*%
X64874224Y-56402500D02*
X64364776Y-56402500D01*
X64874224Y-55357500D02*
X64364776Y-55357500D01*
%TO.C,R7*%
X71642500Y-58428276D02*
X71642500Y-58937724D01*
X70597500Y-58428276D02*
X70597500Y-58937724D01*
%TO.C,Q1*%
X83898500Y-59161000D02*
X85573500Y-59161000D01*
X83898500Y-59161000D02*
X83248500Y-59161000D01*
X83898500Y-56041000D02*
X84548500Y-56041000D01*
X83898500Y-56041000D02*
X83248500Y-56041000D01*
%TO.C,C1*%
X48367733Y-53846000D02*
X48660267Y-53846000D01*
X48367733Y-54866000D02*
X48660267Y-54866000D01*
D14*
%TO.C,U1*%
X66610000Y-50004000D02*
X66610000Y-41944000D01*
X67310000Y-37084000D02*
X67310000Y-41944000D01*
X67310000Y-37084000D02*
X128270000Y-37084000D01*
X67310000Y-41944000D02*
X66610000Y-41944000D01*
X67310000Y-50004000D02*
X66610000Y-50004000D01*
X67310000Y-54864000D02*
X67310000Y-50004000D01*
X128270000Y-37084000D02*
X128270000Y-54864000D01*
X128270000Y-54864000D02*
X67310000Y-54864000D01*
D15*
X73760000Y-55474000D02*
G75*
G03*
X73760000Y-55474000I-100000J0D01*
G01*
D13*
%TO.C,R3*%
X43472224Y-63260500D02*
X42962776Y-63260500D01*
X43472224Y-62215500D02*
X42962776Y-62215500D01*
%TO.C,R4*%
X43472224Y-66816434D02*
X42962776Y-66816434D01*
X43472224Y-65771434D02*
X42962776Y-65771434D01*
%TO.C,D3*%
X45838000Y-69115000D02*
X45838000Y-70585000D01*
X45838000Y-70585000D02*
X48298000Y-70585000D01*
X48298000Y-69115000D02*
X45838000Y-69115000D01*
%TO.C,Q2*%
X74754500Y-55975000D02*
X73079500Y-55975000D01*
X74754500Y-55975000D02*
X75404500Y-55975000D01*
X74754500Y-59095000D02*
X74104500Y-59095000D01*
X74754500Y-59095000D02*
X75404500Y-59095000D01*
D12*
%TO.C,V1*%
X32466283Y-69342000D02*
G75*
G03*
X32466283Y-69342000I-4018283J0D01*
G01*
D13*
%TO.C,R2*%
X76707276Y-60314500D02*
X77216724Y-60314500D01*
X76707276Y-61359500D02*
X77216724Y-61359500D01*
%TO.C,Q3*%
X65924000Y-58768500D02*
X65924000Y-60418500D01*
X64124000Y-60418500D02*
X64124000Y-59118500D01*
%TO.C,R1*%
X82447346Y-61359500D02*
X81937898Y-61359500D01*
X82447346Y-60314500D02*
X81937898Y-60314500D01*
%TD*%
M02*
