%TF.GenerationSoftware,KiCad,Pcbnew,7.0.7*%
%TF.CreationDate,2024-03-26T15:49:53-05:00*%
%TF.ProjectId,InstrumentsBoard,496e7374-7275-46d6-956e-7473426f6172,rev?*%
%TF.SameCoordinates,Original*%
%TF.FileFunction,Soldermask,Bot*%
%TF.FilePolarity,Negative*%
%FSLAX46Y46*%
G04 Gerber Fmt 4.6, Leading zero omitted, Abs format (unit mm)*
G04 Created by KiCad (PCBNEW 7.0.7) date 2024-03-26 15:49:53*
%MOMM*%
%LPD*%
G01*
G04 APERTURE LIST*
%ADD10O,3.000000X5.100000*%
%ADD11C,1.100000*%
%ADD12C,1.400000*%
%ADD13C,4.000000*%
%ADD14C,2.000000*%
%ADD15C,1.524000*%
%ADD16C,2.946400*%
%ADD17C,1.308000*%
%ADD18C,1.208000*%
G04 APERTURE END LIST*
D10*
%TO.C,Conn1*%
X111062800Y-67691000D03*
X111062800Y-59817000D03*
%TD*%
D11*
%TO.C,J1*%
X41604500Y-46863000D03*
X44144500Y-48133000D03*
X41604500Y-49403000D03*
X44144500Y-50673000D03*
X41604500Y-51943000D03*
X44144500Y-53213000D03*
X41604500Y-54483000D03*
X44144500Y-55753000D03*
D12*
X30174500Y-44983000D03*
X31964500Y-47523000D03*
X30174500Y-55093000D03*
X31964500Y-57633000D03*
D13*
X35254500Y-45593000D03*
X35254500Y-57023000D03*
D14*
X38304500Y-43433000D03*
X38304500Y-59183000D03*
%TD*%
D15*
%TO.C,U2*%
X98044000Y-58039000D03*
X100584000Y-58039000D03*
X103124000Y-58039000D03*
%TD*%
%TO.C,Conn4*%
X81280000Y-31750000D03*
X83820000Y-31750000D03*
X86360000Y-31750000D03*
X88900000Y-31750000D03*
X91440000Y-31750000D03*
X93980000Y-31750000D03*
X96520000Y-31750000D03*
X99060000Y-31750000D03*
X101600000Y-31750000D03*
%TD*%
%TO.C,Conn5*%
X65024000Y-67310000D03*
X62484000Y-67310000D03*
%TD*%
%TO.C,Conn2*%
X88138000Y-66802000D03*
X85598000Y-66802000D03*
X83058000Y-66802000D03*
X80518000Y-66802000D03*
X77978000Y-66802000D03*
%TD*%
D16*
%TO.C,V2*%
X124968000Y-31242000D03*
%TD*%
D17*
%TO.C,U1*%
X71120000Y-53594000D03*
X73660000Y-53594000D03*
X76200000Y-53594000D03*
X78740000Y-53594000D03*
X104140000Y-53594000D03*
X73660000Y-38354000D03*
X81280000Y-53594000D03*
X83820000Y-53594000D03*
X86360000Y-53594000D03*
X88900000Y-53594000D03*
X91440000Y-53594000D03*
X93980000Y-53594000D03*
X96520000Y-53594000D03*
X99060000Y-53594000D03*
X101600000Y-53594000D03*
X101600000Y-38354000D03*
X99060000Y-38354000D03*
X96520000Y-38354000D03*
X93980000Y-38354000D03*
X91440000Y-38354000D03*
X88900000Y-38354000D03*
X86360000Y-38354000D03*
X83820000Y-38354000D03*
X81280000Y-38354000D03*
X78740000Y-38354000D03*
X76200000Y-38354000D03*
X106680000Y-53594000D03*
X109220000Y-53594000D03*
X111760000Y-53594000D03*
X114300000Y-53594000D03*
X116840000Y-53594000D03*
X119380000Y-53594000D03*
X121920000Y-53594000D03*
X124460000Y-53594000D03*
X127000000Y-53594000D03*
X127000000Y-38354000D03*
X124460000Y-38354000D03*
X121920000Y-38354000D03*
X119380000Y-38354000D03*
X116840000Y-38354000D03*
X114300000Y-38354000D03*
X111760000Y-38354000D03*
X109220000Y-38354000D03*
X106680000Y-38354000D03*
X68580000Y-53594000D03*
X104140000Y-38354000D03*
X71120000Y-38354000D03*
D18*
X83550000Y-42804000D03*
X81550000Y-42804000D03*
X81550000Y-40804000D03*
X83550000Y-40804000D03*
X83550000Y-44804000D03*
X81550000Y-44804000D03*
D17*
X68580000Y-38354000D03*
%TD*%
D16*
%TO.C,V1*%
X28448000Y-69342000D03*
%TD*%
M02*
